<?xml version="1.0" encoding="utf-8" ?>
<svg xmlns="http://www.w3.org/2000/svg" xmlns:ev="http://www.w3.org/2001/xml-events" xmlns:xlink="http://www.w3.org/1999/xlink" baseProfile="full" height="500" version="1.1" viewBox="0,0,1024,500" width="1024">
    <defs/>
    <rect fill="white" height="500.0" stroke="black" stroke-width="1.2000000000000002" width="1024.0" x="0" y="0"/>
    <linearGradient gradientUnits="userSpaceOnUse" id="id1" x1="346.0175438596491" x2="167.2175438596491" y1="101.79999999999998" y2="315.4">
        <stop offset="0%" stop-color="#47a8cd"/>
        <stop offset="100%" stop-color="#008fb5"/>
    </linearGradient>
    <rect fill="url(#id1) none" height="213.59999999999997" rx="0" ry="0" stroke="#b5a739" stroke-width="1.2000000000000002" width="178.8" x="167.2175438596491" y="101.79999999999998"/>
    <rect fill="#b5a739" height="1.2000000000000002" rx="0" ry="0" width="19.200000000000003" x="166.6175438596491" y="273.4"/>
    <rect fill="#b5a739" height="41.400000000000006" rx="0" ry="0" width="1.2000000000000002" x="185.8175438596491" y="273.4"/>
    <rect fill="#fff" height="42.599999999999994" rx="0" ry="0" width="20.4" x="165.4175438596491" y="274.6"/>
    <rect fill="#b5a739" height="1.2000000000000002" rx="0" ry="0" width="19.200000000000003" x="326.2175438596491" y="273.4"/>
    <rect fill="#b5a739" height="41.400000000000006" rx="0" ry="0" width="1.2000000000000002" x="326.2175438596491" y="273.4"/>
    <rect fill="#fff" height="42.599999999999994" rx="0" ry="0" width="20.4" x="327.4175438596491" y="274.6"/>
    <linearGradient gradientUnits="userSpaceOnUse" id="id2" x1="343.0175438596491" x2="170.2175438596491" y1="173.2" y2="269.19999999999993">
        <stop offset="0%" stop-color="whitesmoke"/>
        <stop offset="100%" stop-color="#999"/>
    </linearGradient>
    <rect fill="url(#id2) none" height="96.0" rx="6.0" ry="6.0" width="172.8" x="170.2175438596491" y="173.2"/>
    <rect fill="#e5b472" height="30.0" id="r_pins_horz.pin1.pad" rx="2.4000000000000004" ry="2.4000000000000004" width="12.0" x="202.61754385964912" y="281.8"/>
    <rect fill="#e5b472" height="30.0" id="r_pins_horz.pin2.pad" rx="2.4000000000000004" ry="2.4000000000000004" width="12.0" x="226.61754385964912" y="281.8"/>
    <rect fill="#e5b472" height="30.0" id="r_pins_horz.pin3.pad" rx="2.4000000000000004" ry="2.4000000000000004" width="12.0" x="250.61754385964912" y="281.8"/>
    <rect fill="#e5b472" height="30.0" id="r_pins_horz.pin4.pad" rx="2.4000000000000004" ry="2.4000000000000004" width="12.0" x="274.6175438596491" y="281.8"/>
    <rect fill="#e5b472" height="30.0" id="r_pins_horz.pin5.pad" rx="2.4000000000000004" ry="2.4000000000000004" width="12.0" x="298.6175438596491" y="281.8"/>
    <rect fill="#4e4c4c" height="24.0" rx="0" ry="0" width="2.4000000000000004" x="207.4175438596491" y="318.4"/>
    <rect fill="#4e4c4c" height="2.4000000000000004" rx="0" ry="0" width="2.4000000000000004" x="205.0175438596491" y="339.99999999999994"/>
    <rect height="0.0" id="tuya2.front.pins.label1.anchor" rx="0" ry="0" width="0.0" x="377.6350877192982" y="442.3999999999999"/>
    <rect fill="#4e4c4c" height="48.0" rx="0" ry="0" width="2.4000000000000004" x="231.4175438596491" y="318.4"/>
    <rect fill="#4e4c4c" height="2.4000000000000004" rx="0" ry="0" width="26.400000000000002" x="205.0175438596491" y="363.99999999999994"/>
    <rect height="0.0" id="tuya2.front.pins.label2.anchor" rx="0" ry="0" width="0.0" x="377.6350877192982" y="466.3999999999999"/>
    <rect fill="#4e4c4c" height="72.0" rx="0" ry="0" width="2.4000000000000004" x="255.4175438596491" y="318.4"/>
    <rect fill="#4e4c4c" height="2.4000000000000004" rx="0" ry="0" width="50.400000000000006" x="205.0175438596491" y="387.99999999999994"/>
    <rect height="0.0" id="tuya2.front.pins.label3.anchor" rx="0" ry="0" width="0.0" x="377.6350877192982" y="490.3999999999999"/>
    <rect fill="#4e4c4c" height="72.0" rx="0" ry="0" width="2.4000000000000004" x="279.4175438596491" y="318.4"/>
    <rect fill="#4e4c4c" height="2.4000000000000004" rx="0" ry="0" width="50.400000000000006" x="280.6175438596491" y="387.99999999999994"/>
    <rect height="0.0" id="tuya2.front.pins.label4.anchor" rx="0" ry="0" width="0.0" x="491.6350877192982" y="490.3999999999999"/>
    <rect fill="#4e4c4c" height="48.0" rx="0" ry="0" width="2.4000000000000004" x="303.4175438596491" y="318.4"/>
    <rect fill="#4e4c4c" height="2.4000000000000004" rx="0" ry="0" width="26.400000000000002" x="304.6175438596491" y="363.99999999999994"/>
    <rect height="0.0" id="tuya2.front.pins.label5.anchor" rx="0" ry="0" width="0.0" x="491.6350877192982" y="466.3999999999999"/>
    <text fill="#fff" font-family="Consolas" font-size="12.0" x="238.61754385964912" y="167.2">WB2S</text>
    <rect fill="#58839b" height="56.26229508196722" rx="0" ry="0" width="5.625" x="178.9925438596491" y="109.85573770491801"/>
    <rect fill="#58839b" height="5.409836065573771" rx="0" ry="0" width="51.75" x="178.9925438596491" y="109.85573770491801"/>
    <rect fill="#58839b" height="56.26229508196722" rx="0" ry="0" width="5.625" x="203.74254385964912" y="109.85573770491801"/>
    <rect fill="#58839b" height="32.459016393442624" rx="0" ry="0" width="5.625" x="225.11754385964912" y="109.85573770491801"/>
    <rect fill="#58839b" height="5.409836065573771" rx="0" ry="0" width="33.75" x="225.11754385964912" y="136.90491803278687"/>
    <rect fill="#58839b" height="32.459016393442624" rx="0" ry="0" width="5.625" x="253.24254385964912" y="109.85573770491801"/>
    <rect fill="#58839b" height="5.409836065573771" rx="0" ry="0" width="30.375" x="253.24254385964912" y="109.85573770491801"/>
    <rect fill="#58839b" height="32.459016393442624" rx="0" ry="0" width="5.625" x="277.9925438596491" y="109.85573770491801"/>
    <rect fill="#58839b" height="5.409836065573771" rx="0" ry="0" width="33.75" x="277.9925438596491" y="136.90491803278687"/>
    <rect fill="#58839b" height="32.459016393442624" rx="0" ry="0" width="5.625" x="306.1175438596491" y="109.85573770491801"/>
    <rect fill="#58839b" height="5.409836065573771" rx="0" ry="0" width="28.125" x="306.1175438596491" y="109.85573770491801"/>
    <rect fill="#58839b" height="47.606557377049185" rx="0" ry="0" width="5.625" x="328.6175438596491" y="109.85573770491801"/>
    <rect fill="#4e4c4c" height="2.4000000000000004" width="31.200000000000003" x="331.0175438596491" y="363.99999999999994"/>
    <g transform="translate(371.9898561069879,355.59999999999997)">
        <rect fill="#4e4c4c" height="19.200000000000003" rx="3.5999999999999996" ry="3.5999999999999996" transform="skewX(-15)" width="21.6" x="0" y="0"/>
    </g>
    <text dominant-baseline="central" fill="white" font-family="Consolas" font-size="14.399999999999999" text-anchor="middle" x="380.2175438596491" y="365.19999999999993">2</text>
    <g transform="translate(395.9898561069879,355.59999999999997)">
        <rect fill="#800000" height="19.200000000000003" rx="3.5999999999999996" ry="3.5999999999999996" transform="skewX(-15)" width="40.8" x="0" y="0"/>
    </g>
    <text dominant-baseline="central" fill="white" font-family="Consolas" font-size="14.399999999999999" text-anchor="middle" x="413.81754385964916" y="365.19999999999993">P8</text>
    <g transform="translate(439.1898561069879,355.59999999999997)">
        <rect fill="#afa35e" height="19.200000000000003" rx="3.5999999999999996" ry="3.5999999999999996" transform="skewX(-15)" width="40.8" x="0" y="0"/>
    </g>
    <text dominant-baseline="central" fill="#423F42" font-family="Consolas" font-size="14.399999999999999" text-anchor="middle" x="457.01754385964915" y="365.19999999999993">PWM2</text>
    <rect fill="#4e4c4c" height="2.4000000000000004" width="31.200000000000003" x="331.0175438596491" y="387.99999999999994"/>
    <g transform="translate(371.9898561069879,379.59999999999997)">
        <rect fill="#4e4c4c" height="19.200000000000003" rx="3.5999999999999996" ry="3.5999999999999996" transform="skewX(-15)" width="21.6" x="0" y="0"/>
    </g>
    <text dominant-baseline="central" fill="white" font-family="Consolas" font-size="14.399999999999999" text-anchor="middle" x="380.2175438596491" y="389.19999999999993">4</text>
    <g transform="translate(395.9898561069879,379.59999999999997)">
        <rect fill="#800000" height="19.200000000000003" rx="3.5999999999999996" ry="3.5999999999999996" transform="skewX(-15)" width="40.8" x="0" y="0"/>
    </g>
    <text dominant-baseline="central" fill="white" font-family="Consolas" font-size="14.399999999999999" text-anchor="middle" x="413.81754385964916" y="389.19999999999993">P7</text>
    <g transform="translate(439.1898561069879,379.59999999999997)">
        <rect fill="#afa35e" height="19.200000000000003" rx="3.5999999999999996" ry="3.5999999999999996" transform="skewX(-15)" width="40.8" x="0" y="0"/>
    </g>
    <text dominant-baseline="central" fill="#423F42" font-family="Consolas" font-size="14.399999999999999" text-anchor="middle" x="457.01754385964915" y="389.19999999999993">PWM1</text>
    <rect fill="#4e4c4c" height="2.4000000000000004" width="31.200000000000003" x="173.8175438596491" y="387.99999999999994"/>
    <g transform="translate(147.58985610698787,379.59999999999997)">
        <rect fill="#4e4c4c" height="19.200000000000003" rx="3.5999999999999996" ry="3.5999999999999996" transform="skewX(-15)" width="21.6" x="0" y="0"/>
    </g>
    <text dominant-baseline="central" fill="white" font-family="Consolas" font-size="14.399999999999999" text-anchor="middle" x="155.8175438596491" y="389.19999999999993">6</text>
    <g transform="translate(104.38985610698788,379.59999999999997)">
        <rect fill="#800000" height="19.200000000000003" rx="3.5999999999999996" ry="3.5999999999999996" transform="skewX(-15)" width="40.8" x="0" y="0"/>
    </g>
    <text dominant-baseline="central" fill="white" font-family="Consolas" font-size="14.399999999999999" text-anchor="middle" x="122.21754385964908" y="389.19999999999993">P6</text>
    <g transform="translate(61.189856106987875,379.59999999999997)">
        <rect fill="#afa35e" height="19.200000000000003" rx="3.5999999999999996" ry="3.5999999999999996" transform="skewX(-15)" width="40.8" x="0" y="0"/>
    </g>
    <text dominant-baseline="central" fill="#423F42" font-family="Consolas" font-size="14.399999999999999" text-anchor="middle" x="79.0175438596491" y="389.19999999999993">PWM0</text>
    <rect fill="#4e4c4c" height="2.4000000000000004" width="31.200000000000003" x="173.8175438596491" y="363.99999999999994"/>
    <g transform="translate(147.58985610698787,355.59999999999997)">
        <rect fill="#4e4c4c" height="19.200000000000003" rx="3.5999999999999996" ry="3.5999999999999996" transform="skewX(-15)" width="21.6" x="0" y="0"/>
    </g>
    <text dominant-baseline="central" fill="white" font-family="Consolas" font-size="14.399999999999999" text-anchor="middle" x="155.8175438596491" y="365.19999999999993">8</text>
    <g transform="translate(104.38985610698788,355.59999999999997)">
        <rect fill="#800000" height="19.200000000000003" rx="3.5999999999999996" ry="3.5999999999999996" transform="skewX(-15)" width="40.8" x="0" y="0"/>
    </g>
    <text dominant-baseline="central" fill="white" font-family="Consolas" font-size="14.399999999999999" text-anchor="middle" x="122.21754385964908" y="365.19999999999993">P23</text>
    <g transform="translate(61.189856106987875,355.59999999999997)">
        <rect fill="#8ad039" height="19.200000000000003" rx="3.5999999999999996" ry="3.5999999999999996" transform="skewX(-15)" width="40.8" x="0" y="0"/>
    </g>
    <text dominant-baseline="central" fill="#423F42" font-family="Consolas" font-size="14.399999999999999" text-anchor="middle" x="79.0175438596491" y="365.19999999999993">ADC3</text>
    <g transform="translate(17.98985610698788,355.59999999999997)">
        <rect fill="#ffe680" height="19.200000000000003" rx="3.5999999999999996" ry="3.5999999999999996" transform="skewX(-15)" width="40.8" x="0" y="0"/>
    </g>
    <text dominant-baseline="central" fill="#423F42" font-family="Consolas" font-size="14.399999999999999" text-anchor="middle" x="35.817543859649106" y="365.19999999999993">TDO</text>
    <rect fill="#4e4c4c" height="2.4000000000000004" width="31.200000000000003" x="173.8175438596491" y="339.99999999999994"/>
    <g transform="translate(147.58985610698787,331.59999999999997)">
        <rect fill="#4e4c4c" height="19.200000000000003" rx="3.5999999999999996" ry="3.5999999999999996" transform="skewX(-15)" width="21.6" x="0" y="0"/>
    </g>
    <text dominant-baseline="central" fill="white" font-family="Consolas" font-size="14.399999999999999" text-anchor="middle" x="155.8175438596491" y="341.19999999999993">10</text>
    <g transform="translate(104.38985610698788,331.59999999999997)">
        <rect fill="#ed602e" height="19.200000000000003" rx="3.5999999999999996" ry="3.5999999999999996" transform="skewX(-15)" width="40.8" x="0" y="0"/>
    </g>
    <text dominant-baseline="central" fill="#423F42" font-family="Consolas" font-size="14.399999999999999" text-anchor="middle" x="122.21754385964908" y="341.19999999999993">CEN</text>
    <linearGradient gradientUnits="userSpaceOnUse" id="id3" x1="843.6175438596492" x2="664.817543859649" y1="101.79999999999998" y2="315.4">
        <stop offset="0%" stop-color="#47a8cd"/>
        <stop offset="100%" stop-color="#008fb5"/>
    </linearGradient>
    <rect fill="url(#id3) none" height="213.59999999999997" rx="0" ry="0" stroke="#b5a739" stroke-width="1.2000000000000002" width="178.8" x="664.817543859649" y="101.79999999999998"/>
    <rect fill="#b5a739" height="1.2000000000000002" rx="0" ry="0" width="19.200000000000003" x="664.2175438596491" y="273.4"/>
    <rect fill="#b5a739" height="41.400000000000006" rx="0" ry="0" width="1.2000000000000002" x="683.4175438596492" y="273.4"/>
    <rect fill="#fff" height="42.599999999999994" rx="0" ry="0" width="20.4" x="663.0175438596491" y="274.6"/>
    <rect fill="#b5a739" height="1.2000000000000002" rx="0" ry="0" width="19.200000000000003" x="823.817543859649" y="273.4"/>
    <rect fill="#b5a739" height="41.400000000000006" rx="0" ry="0" width="1.2000000000000002" x="823.817543859649" y="273.4"/>
    <rect fill="#fff" height="42.599999999999994" rx="0" ry="0" width="20.4" x="825.0175438596492" y="274.6"/>
    <rect fill="#e5b472" height="30.0" id="r_pins_horz.pin1.pad" rx="2.4000000000000004" ry="2.4000000000000004" width="12.0" x="688.2175438596491" y="281.8"/>
    <rect fill="#e5b472" height="30.0" id="r_pins_horz.pin2.pad" rx="2.4000000000000004" ry="2.4000000000000004" width="12.0" x="712.2175438596491" y="281.8"/>
    <rect fill="#e5b472" height="30.0" id="r_pins_horz.pin3.pad" rx="2.4000000000000004" ry="2.4000000000000004" width="12.0" x="736.2175438596491" y="281.8"/>
    <rect fill="#e5b472" height="30.0" id="r_pins_horz.pin4.pad" rx="2.4000000000000004" ry="2.4000000000000004" width="12.0" x="760.2175438596491" y="281.8"/>
    <rect fill="#e5b472" height="30.0" id="r_pins_horz.pin5.pad" rx="2.4000000000000004" ry="2.4000000000000004" width="12.0" x="784.2175438596491" y="281.8"/>
    <rect fill="#e5b472" height="30.0" id="r_pins_horz.pin6.pad" rx="2.4000000000000004" ry="2.4000000000000004" width="12.0" x="808.2175438596491" y="281.8"/>
    <rect fill="#4e4c4c" height="24.0" rx="0" ry="0" width="2.4000000000000004" x="693.0175438596491" y="318.4"/>
    <rect fill="#4e4c4c" height="2.4000000000000004" rx="0" ry="0" width="2.4000000000000004" x="690.6175438596492" y="339.99999999999994"/>
    <rect height="0.0" id="tuya2.back.pins.label1.anchor" rx="0" ry="0" width="0.0" x="1360.8350877192984" y="442.3999999999999"/>
    <rect fill="#4e4c4c" height="48.0" rx="0" ry="0" width="2.4000000000000004" x="717.0175438596491" y="318.4"/>
    <rect fill="#4e4c4c" height="2.4000000000000004" rx="0" ry="0" width="26.400000000000002" x="690.6175438596492" y="363.99999999999994"/>
    <rect height="0.0" id="tuya2.back.pins.label2.anchor" rx="0" ry="0" width="0.0" x="1360.8350877192984" y="466.3999999999999"/>
    <rect fill="#4e4c4c" height="72.0" rx="0" ry="0" width="2.4000000000000004" x="741.0175438596491" y="318.4"/>
    <rect fill="#4e4c4c" height="2.4000000000000004" rx="0" ry="0" width="50.400000000000006" x="690.6175438596492" y="387.99999999999994"/>
    <rect height="0.0" id="tuya2.back.pins.label3.anchor" rx="0" ry="0" width="0.0" x="1360.8350877192984" y="490.3999999999999"/>
    <rect fill="#4e4c4c" height="72.0" rx="0" ry="0" width="2.4000000000000004" x="765.0175438596491" y="318.4"/>
    <rect fill="#4e4c4c" height="2.4000000000000004" rx="0" ry="0" width="50.400000000000006" x="766.2175438596491" y="387.99999999999994"/>
    <rect height="0.0" id="tuya2.back.pins.label4.anchor" rx="0" ry="0" width="0.0" x="1474.8350877192984" y="490.3999999999999"/>
    <rect fill="#4e4c4c" height="48.0" rx="0" ry="0" width="2.4000000000000004" x="789.0175438596492" y="318.4"/>
    <rect fill="#4e4c4c" height="2.4000000000000004" rx="0" ry="0" width="26.400000000000002" x="790.2175438596491" y="363.99999999999994"/>
    <rect height="0.0" id="tuya2.back.pins.label5.anchor" rx="0" ry="0" width="0.0" x="1474.8350877192984" y="466.3999999999999"/>
    <rect fill="#4e4c4c" height="24.0" rx="0" ry="0" width="2.4000000000000004" x="813.0175438596492" y="318.4"/>
    <rect fill="#4e4c4c" height="2.4000000000000004" rx="0" ry="0" width="2.4000000000000004" x="814.2175438596491" y="339.99999999999994"/>
    <rect height="0.0" id="tuya2.back.pins.label6.anchor" rx="0" ry="0" width="0.0" x="1474.8350877192984" y="442.3999999999999"/>
    <circle cx="695.4175438596492" cy="175.6" fill="#e5b472" r="6.0"/>
    <rect fill="#4e4c4c" height="24.0" rx="0" ry="0" width="2.4000000000000004" x="694.2175438596491" y="139.6"/>
    <rect fill="#4e4c4c" height="2.4000000000000004" rx="0" ry="0" width="18.0" x="676.2175438596491" y="139.6"/>
    <rect height="0.0" id="wb2s.back.sck.anchor" rx="0" ry="0" width="0.0" x="1346.4350877192983" y="241.99999999999997"/>
    <circle cx="719.4175438596492" cy="175.6" fill="#e5b472" r="6.0"/>
    <rect fill="#4e4c4c" height="48.0" rx="0" ry="0" width="2.4000000000000004" x="718.2175438596491" y="115.6"/>
    <rect fill="#4e4c4c" height="2.4000000000000004" rx="0" ry="0" width="42.0" x="676.2175438596491" y="115.6"/>
    <rect height="0.0" id="wb2s.back.pwm3.anchor" rx="0" ry="0" width="0.0" x="1346.4350877192983" y="217.99999999999997"/>
    <circle cx="748.2175438596491" cy="175.6" fill="#e5b472" r="6.0"/>
    <rect fill="#4e4c4c" height="48.0" rx="0" ry="0" width="2.4000000000000004" x="747.0175438596491" y="115.6"/>
    <rect fill="#4e4c4c" height="2.4000000000000004" rx="0" ry="0" width="26.400000000000002" x="748.2175438596491" y="115.6"/>
    <rect height="0.0" id="wb2s.back.2rx.anchor" rx="0" ry="0" width="0.0" x="1432.8350877192984" y="217.99999999999997"/>
    <circle cx="772.2175438596491" cy="175.6" fill="#e5b472" r="6.0"/>
    <rect fill="#4e4c4c" height="24.0" rx="0" ry="0" width="2.4000000000000004" x="771.0175438596492" y="139.6"/>
    <rect fill="#4e4c4c" height="2.4000000000000004" rx="0" ry="0" width="2.4000000000000004" x="772.2175438596491" y="139.6"/>
    <rect height="0.0" id="wb2s.back.2tx.anchor" rx="0" ry="0" width="0.0" x="1432.8350877192984" y="241.99999999999997"/>
    <circle cx="700.2175438596491" cy="200.8" fill="#e5b472" r="6.0"/>
    <rect fill="#4e4c4c" height="0.0" rx="0" ry="0" width="2.4000000000000004" x="689.4175438596492" y="199.6"/>
    <rect fill="#4e4c4c" height="2.4000000000000004" rx="0" ry="0" width="13.200000000000001" x="676.2175438596491" y="199.6"/>
    <rect height="0.0" id="wb2s.back.csn.anchor" rx="0" ry="0" width="0.0" x="1346.4350877192983" y="302.0"/>
    <circle cx="726.6175438596492" cy="206.8" fill="#e5b472" r="6.0"/>
    <rect fill="#4e4c4c" height="0.0" rx="0" ry="0" width="2.4000000000000004" x="735.0175438596491" y="205.6"/>
    <rect fill="#4e4c4c" height="2.4000000000000004" rx="0" ry="0" width="38.400000000000006" x="736.2175438596491" y="205.6"/>
    <rect height="0.0" id="wb2s.back.si.anchor" rx="0" ry="0" width="0.0" x="1432.8350877192984" y="308.0"/>
    <circle cx="689.4175438596492" cy="240.39999999999998" fill="#e5b472" r="6.0"/>
    <rect fill="#4e4c4c" height="0.0" rx="0" ry="0" width="2.4000000000000004" x="678.6175438596492" y="239.19999999999996"/>
    <rect fill="#4e4c4c" height="2.4000000000000004" rx="0" ry="0" width="2.4000000000000004" x="676.2175438596491" y="239.19999999999996"/>
    <rect height="0.0" id="wb2s.back.adc_so.anchor" rx="0" ry="0" width="0.0" x="1346.4350877192983" y="341.5999999999999"/>
    <circle cx="715.817543859649" cy="240.39999999999998" fill="#e5b472" r="6.0"/>
    <rect fill="#4e4c4c" height="0.0" rx="0" ry="0" width="2.4000000000000004" x="724.2175438596491" y="239.19999999999996"/>
    <rect fill="#4e4c4c" height="2.4000000000000004" rx="0" ry="0" width="49.199999999999996" x="725.4175438596492" y="239.19999999999996"/>
    <rect height="0.0" id="wb2s.back.cen.anchor" rx="0" ry="0" width="0.0" x="1432.8350877192984" y="341.5999999999999"/>
    <circle cx="694.2175438596491" cy="275.19999999999993" fill="#e5b472" r="6.0"/>
    <rect fill="#4e4c4c" height="0.0" rx="0" ry="0" width="2.4000000000000004" x="683.4175438596492" y="274.0"/>
    <rect fill="#4e4c4c" height="2.4000000000000004" rx="0" ry="0" width="7.200000000000001" x="676.2175438596491" y="274.0"/>
    <rect height="0.0" id="wb2s.back.vbat.anchor" rx="0" ry="0" width="0.0" x="1346.4350877192983" y="376.3999999999999"/>
    <circle cx="721.817543859649" cy="275.19999999999993" fill="#e5b472" r="6.0"/>
    <rect fill="#4e4c4c" height="0.0" rx="0" ry="0" width="2.4000000000000004" x="730.2175438596491" y="274.0"/>
    <rect fill="#4e4c4c" height="2.4000000000000004" rx="0" ry="0" width="43.2" x="731.4175438596492" y="274.0"/>
    <rect height="0.0" id="wb2s.back.gnd.anchor" rx="0" ry="0" width="0.0" x="1432.8350877192984" y="376.3999999999999"/>
    <rect fill="#4e4c4c" height="2.4000000000000004" width="31.200000000000003" x="659.4175438596492" y="339.99999999999994"/>
    <g transform="translate(633.1898561069879,331.59999999999997)">
        <rect fill="#4e4c4c" height="19.200000000000003" rx="3.5999999999999996" ry="3.5999999999999996" transform="skewX(-15)" width="21.6" x="0" y="0"/>
    </g>
    <text dominant-baseline="central" fill="white" font-family="Consolas" font-size="14.399999999999999" text-anchor="middle" x="641.4175438596492" y="341.19999999999993">1</text>
    <g transform="translate(589.989856106988,331.59999999999997)">
        <rect fill="#cd3c24" height="19.200000000000003" rx="3.5999999999999996" ry="3.5999999999999996" transform="skewX(-15)" width="40.8" x="0" y="0"/>
    </g>
    <text dominant-baseline="central" fill="white" font-family="Consolas" font-size="14.399999999999999" text-anchor="middle" x="607.8175438596492" y="341.19999999999993">3V3</text>
    <rect fill="#4e4c4c" height="2.4000000000000004" width="31.200000000000003" x="659.4175438596492" y="363.99999999999994"/>
    <g transform="translate(633.1898561069879,355.59999999999997)">
        <rect fill="#4e4c4c" height="19.200000000000003" rx="3.5999999999999996" ry="3.5999999999999996" transform="skewX(-15)" width="21.6" x="0" y="0"/>
    </g>
    <text dominant-baseline="central" fill="white" font-family="Consolas" font-size="14.399999999999999" text-anchor="middle" x="641.4175438596492" y="365.19999999999993">3</text>
    <g transform="translate(589.989856106988,355.59999999999997)">
        <rect fill="#000" height="19.200000000000003" rx="3.5999999999999996" ry="3.5999999999999996" transform="skewX(-15)" width="40.8" x="0" y="0"/>
    </g>
    <text dominant-baseline="central" fill="white" font-family="Consolas" font-size="14.399999999999999" text-anchor="middle" x="607.8175438596492" y="365.19999999999993">GND</text>
    <rect fill="#4e4c4c" height="2.4000000000000004" width="31.200000000000003" x="659.4175438596492" y="387.99999999999994"/>
    <g transform="translate(633.1898561069879,379.59999999999997)">
        <rect fill="#4e4c4c" height="19.200000000000003" rx="3.5999999999999996" ry="3.5999999999999996" transform="skewX(-15)" width="21.6" x="0" y="0"/>
    </g>
    <text dominant-baseline="central" fill="white" font-family="Consolas" font-size="14.399999999999999" text-anchor="middle" x="641.4175438596492" y="389.19999999999993">5</text>
    <g transform="translate(589.989856106988,379.59999999999997)">
        <rect fill="#800000" height="19.200000000000003" rx="3.5999999999999996" ry="3.5999999999999996" transform="skewX(-15)" width="40.8" x="0" y="0"/>
    </g>
    <text dominant-baseline="central" fill="white" font-family="Consolas" font-size="14.399999999999999" text-anchor="middle" x="607.8175438596492" y="389.19999999999993">P10</text>
    <g transform="translate(546.7898561069879,379.59999999999997)">
        <rect fill="#dcd4ee" height="19.200000000000003" rx="3.5999999999999996" ry="3.5999999999999996" transform="skewX(-15)" width="40.8" x="0" y="0"/>
    </g>
    <text dominant-baseline="central" fill="#423F42" font-family="Consolas" font-size="14.399999999999999" text-anchor="middle" x="564.6175438596492" y="389.19999999999993">RX1</text>
    <rect fill="#4e4c4c" height="2.4000000000000004" width="31.200000000000003" x="816.6175438596492" y="387.99999999999994"/>
    <g transform="translate(857.5898561069878,379.59999999999997)">
        <rect fill="#4e4c4c" height="19.200000000000003" rx="3.5999999999999996" ry="3.5999999999999996" transform="skewX(-15)" width="21.6" x="0" y="0"/>
    </g>
    <text dominant-baseline="central" fill="white" font-family="Consolas" font-size="14.399999999999999" text-anchor="middle" x="865.817543859649" y="389.19999999999993">7</text>
    <g transform="translate(881.5898561069878,379.59999999999997)">
        <rect fill="#800000" height="19.200000000000003" rx="3.5999999999999996" ry="3.5999999999999996" transform="skewX(-15)" width="40.8" x="0" y="0"/>
    </g>
    <text dominant-baseline="central" fill="white" font-family="Consolas" font-size="14.399999999999999" text-anchor="middle" x="899.4175438596491" y="389.19999999999993">P11</text>
    <g transform="translate(924.7898561069879,379.59999999999997)">
        <rect fill="#dcd4ee" height="19.200000000000003" rx="3.5999999999999996" ry="3.5999999999999996" transform="skewX(-15)" width="40.8" x="0" y="0"/>
    </g>
    <text dominant-baseline="central" fill="#423F42" font-family="Consolas" font-size="14.399999999999999" text-anchor="middle" x="942.6175438596492" y="389.19999999999993">TX1</text>
    <rect fill="#4e4c4c" height="2.4000000000000004" width="31.200000000000003" x="816.6175438596492" y="363.99999999999994"/>
    <g transform="translate(857.5898561069878,355.59999999999997)">
        <rect fill="#4e4c4c" height="19.200000000000003" rx="3.5999999999999996" ry="3.5999999999999996" transform="skewX(-15)" width="21.6" x="0" y="0"/>
    </g>
    <text dominant-baseline="central" fill="white" font-family="Consolas" font-size="14.399999999999999" text-anchor="middle" x="865.817543859649" y="365.19999999999993">9</text>
    <g transform="translate(881.5898561069878,355.59999999999997)">
        <rect fill="#800000" height="19.200000000000003" rx="3.5999999999999996" ry="3.5999999999999996" transform="skewX(-15)" width="40.8" x="0" y="0"/>
    </g>
    <text dominant-baseline="central" fill="white" font-family="Consolas" font-size="14.399999999999999" text-anchor="middle" x="899.4175438596491" y="365.19999999999993">P24</text>
    <g transform="translate(924.7898561069879,355.59999999999997)">
        <rect fill="#afa35e" height="19.200000000000003" rx="3.5999999999999996" ry="3.5999999999999996" transform="skewX(-15)" width="40.8" x="0" y="0"/>
    </g>
    <text dominant-baseline="central" fill="#423F42" font-family="Consolas" font-size="14.399999999999999" text-anchor="middle" x="942.6175438596492" y="365.19999999999993">PWM4</text>
    <rect fill="#4e4c4c" height="2.4000000000000004" width="31.200000000000003" x="816.6175438596492" y="339.99999999999994"/>
    <g transform="translate(857.5898561069878,331.59999999999997)">
        <rect fill="#4e4c4c" height="19.200000000000003" rx="3.5999999999999996" ry="3.5999999999999996" transform="skewX(-15)" width="21.6" x="0" y="0"/>
    </g>
    <text dominant-baseline="central" fill="white" font-family="Consolas" font-size="14.399999999999999" text-anchor="middle" x="865.817543859649" y="341.19999999999993">11</text>
    <g transform="translate(881.5898561069878,331.59999999999997)">
        <rect fill="#800000" height="19.200000000000003" rx="3.5999999999999996" ry="3.5999999999999996" transform="skewX(-15)" width="40.8" x="0" y="0"/>
    </g>
    <text dominant-baseline="central" fill="white" font-family="Consolas" font-size="14.399999999999999" text-anchor="middle" x="899.4175438596491" y="341.19999999999993">P26</text>
    <g transform="translate(924.7898561069879,331.59999999999997)">
        <rect fill="#aeafc1" height="19.200000000000003" rx="3.5999999999999996" ry="3.5999999999999996" transform="skewX(-15)" width="40.8" x="0" y="0"/>
    </g>
    <text dominant-baseline="central" fill="#423F42" font-family="Consolas" font-size="14.399999999999999" text-anchor="middle" x="942.6175438596492" y="341.19999999999993">IRDA</text>
    <g transform="translate(967.9898561069879,331.59999999999997)">
        <rect fill="#afa35e" height="19.200000000000003" rx="3.5999999999999996" ry="3.5999999999999996" transform="skewX(-15)" width="40.8" x="0" y="0"/>
    </g>
    <text dominant-baseline="central" fill="#423F42" font-family="Consolas" font-size="14.399999999999999" text-anchor="middle" x="985.817543859649" y="341.19999999999993">PWM5</text>
    <rect fill="#4e4c4c" height="2.4000000000000004" width="31.200000000000003" x="645.0175438596491" y="139.6"/>
    <g transform="translate(599.5898561069879,131.2)">
        <rect fill="#800000" height="19.200000000000003" rx="3.5999999999999996" ry="3.5999999999999996" transform="skewX(-15)" width="40.8" x="0" y="0"/>
    </g>
    <text dominant-baseline="central" fill="white" font-family="Consolas" font-size="14.399999999999999" text-anchor="middle" x="617.4175438596492" y="140.79999999999998">P20</text>
    <g transform="translate(556.389856106988,131.2)">
        <rect fill="#f95" height="19.200000000000003" rx="3.5999999999999996" ry="3.5999999999999996" transform="skewX(-15)" width="40.8" x="0" y="0"/>
    </g>
    <text dominant-baseline="central" fill="#423F42" font-family="Consolas" font-size="14.399999999999999" text-anchor="middle" x="574.2175438596491" y="140.79999999999998">SCL1</text>
    <g transform="translate(513.1898561069879,131.2)">
        <rect fill="#ffe680" height="19.200000000000003" rx="3.5999999999999996" ry="3.5999999999999996" transform="skewX(-15)" width="40.8" x="0" y="0"/>
    </g>
    <text dominant-baseline="central" fill="#423F42" font-family="Consolas" font-size="14.399999999999999" text-anchor="middle" x="531.0175438596492" y="140.79999999999998">TCK</text>
    <rect fill="#4e4c4c" height="2.4000000000000004" width="31.200000000000003" x="645.0175438596491" y="115.6"/>
    <g transform="translate(599.5898561069879,107.19999999999999)">
        <rect fill="#800000" height="19.200000000000003" rx="3.5999999999999996" ry="3.5999999999999996" transform="skewX(-15)" width="40.8" x="0" y="0"/>
    </g>
    <text dominant-baseline="central" fill="white" font-family="Consolas" font-size="14.399999999999999" text-anchor="middle" x="617.4175438596492" y="116.79999999999998">P9</text>
    <g transform="translate(556.389856106988,107.19999999999999)">
        <rect fill="#afa35e" height="19.200000000000003" rx="3.5999999999999996" ry="3.5999999999999996" transform="skewX(-15)" width="40.8" x="0" y="0"/>
    </g>
    <text dominant-baseline="central" fill="#423F42" font-family="Consolas" font-size="14.399999999999999" text-anchor="middle" x="574.2175438596491" y="116.79999999999998">PWM3</text>
    <rect fill="#4e4c4c" height="2.4000000000000004" width="31.200000000000003" x="774.6175438596492" y="115.6"/>
    <g transform="translate(815.5898561069878,107.19999999999999)">
        <rect fill="#800000" height="19.200000000000003" rx="3.5999999999999996" ry="3.5999999999999996" transform="skewX(-15)" width="40.8" x="0" y="0"/>
    </g>
    <text dominant-baseline="central" fill="white" font-family="Consolas" font-size="14.399999999999999" text-anchor="middle" x="833.4175438596491" y="116.79999999999998">P1</text>
    <g transform="translate(858.7898561069879,107.19999999999999)">
        <rect fill="#dcd4ee" height="19.200000000000003" rx="3.5999999999999996" ry="3.5999999999999996" transform="skewX(-15)" width="40.8" x="0" y="0"/>
    </g>
    <text dominant-baseline="central" fill="#423F42" font-family="Consolas" font-size="14.399999999999999" text-anchor="middle" x="876.6175438596492" y="116.79999999999998">RX2</text>
    <g transform="translate(901.9898561069879,107.19999999999999)">
        <rect fill="#f95" height="19.200000000000003" rx="3.5999999999999996" ry="3.5999999999999996" transform="skewX(-15)" width="40.8" x="0" y="0"/>
    </g>
    <text dominant-baseline="central" fill="#423F42" font-family="Consolas" font-size="14.399999999999999" text-anchor="middle" x="919.817543859649" y="116.79999999999998">SDA2</text>
    <rect fill="#4e4c4c" height="2.4000000000000004" width="31.200000000000003" x="774.6175438596492" y="139.6"/>
    <g transform="translate(815.5898561069878,131.2)">
        <rect fill="#800000" height="19.200000000000003" rx="3.5999999999999996" ry="3.5999999999999996" transform="skewX(-15)" width="40.8" x="0" y="0"/>
    </g>
    <text dominant-baseline="central" fill="white" font-family="Consolas" font-size="14.399999999999999" text-anchor="middle" x="833.4175438596491" y="140.79999999999998">P0</text>
    <g transform="translate(858.7898561069879,131.2)">
        <rect fill="#dcd4ee" height="19.200000000000003" rx="3.5999999999999996" ry="3.5999999999999996" transform="skewX(-15)" width="40.8" x="0" y="0"/>
    </g>
    <text dominant-baseline="central" fill="#423F42" font-family="Consolas" font-size="14.399999999999999" text-anchor="middle" x="876.6175438596492" y="140.79999999999998">TX2</text>
    <g transform="translate(901.9898561069879,131.2)">
        <rect fill="#f95" height="19.200000000000003" rx="3.5999999999999996" ry="3.5999999999999996" transform="skewX(-15)" width="40.8" x="0" y="0"/>
    </g>
    <text dominant-baseline="central" fill="#423F42" font-family="Consolas" font-size="14.399999999999999" text-anchor="middle" x="919.817543859649" y="140.79999999999998">SCL2</text>
    <rect fill="#4e4c4c" height="2.4000000000000004" width="31.200000000000003" x="645.0175438596491" y="199.6"/>
    <g transform="translate(599.5898561069879,191.2)">
        <rect fill="#800000" height="19.200000000000003" rx="3.5999999999999996" ry="3.5999999999999996" transform="skewX(-15)" width="40.8" x="0" y="0"/>
    </g>
    <text dominant-baseline="central" fill="white" font-family="Consolas" font-size="14.399999999999999" text-anchor="middle" x="617.4175438596492" y="200.8">P21</text>
    <g transform="translate(556.389856106988,191.2)">
        <rect fill="#f95" height="19.200000000000003" rx="3.5999999999999996" ry="3.5999999999999996" transform="skewX(-15)" width="40.8" x="0" y="0"/>
    </g>
    <text dominant-baseline="central" fill="#423F42" font-family="Consolas" font-size="14.399999999999999" text-anchor="middle" x="574.2175438596491" y="200.8">SDA1</text>
    <g transform="translate(513.1898561069879,191.2)">
        <rect fill="#ffe680" height="19.200000000000003" rx="3.5999999999999996" ry="3.5999999999999996" transform="skewX(-15)" width="40.8" x="0" y="0"/>
    </g>
    <text dominant-baseline="central" fill="#423F42" font-family="Consolas" font-size="14.399999999999999" text-anchor="middle" x="531.0175438596492" y="200.8">TMS</text>
    <rect fill="#4e4c4c" height="2.4000000000000004" width="31.200000000000003" x="774.6175438596492" y="205.6"/>
    <g transform="translate(815.5898561069878,197.2)">
        <rect fill="#800000" height="19.200000000000003" rx="3.5999999999999996" ry="3.5999999999999996" transform="skewX(-15)" width="40.8" x="0" y="0"/>
    </g>
    <text dominant-baseline="central" fill="white" font-family="Consolas" font-size="14.399999999999999" text-anchor="middle" x="833.4175438596491" y="206.8">P22</text>
    <g transform="translate(858.7898561069879,197.2)">
        <rect fill="#ffe680" height="19.200000000000003" rx="3.5999999999999996" ry="3.5999999999999996" transform="skewX(-15)" width="40.8" x="0" y="0"/>
    </g>
    <text dominant-baseline="central" fill="#423F42" font-family="Consolas" font-size="14.399999999999999" text-anchor="middle" x="876.6175438596492" y="206.8">TDI</text>
    <rect fill="#4e4c4c" height="2.4000000000000004" width="31.200000000000003" x="645.0175438596491" y="239.19999999999996"/>
    <g transform="translate(599.5898561069879,230.79999999999995)">
        <rect fill="#800000" height="19.200000000000003" rx="3.5999999999999996" ry="3.5999999999999996" transform="skewX(-15)" width="40.8" x="0" y="0"/>
    </g>
    <text dominant-baseline="central" fill="white" font-family="Consolas" font-size="14.399999999999999" text-anchor="middle" x="617.4175438596492" y="240.39999999999998">P23</text>
    <g transform="translate(556.389856106988,230.79999999999995)">
        <rect fill="#8ad039" height="19.200000000000003" rx="3.5999999999999996" ry="3.5999999999999996" transform="skewX(-15)" width="40.8" x="0" y="0"/>
    </g>
    <text dominant-baseline="central" fill="#423F42" font-family="Consolas" font-size="14.399999999999999" text-anchor="middle" x="574.2175438596491" y="240.39999999999998">ADC3</text>
    <g transform="translate(513.1898561069879,230.79999999999995)">
        <rect fill="#ffe680" height="19.200000000000003" rx="3.5999999999999996" ry="3.5999999999999996" transform="skewX(-15)" width="40.8" x="0" y="0"/>
    </g>
    <text dominant-baseline="central" fill="#423F42" font-family="Consolas" font-size="14.399999999999999" text-anchor="middle" x="531.0175438596492" y="240.39999999999998">TDO</text>
    <rect fill="#4e4c4c" height="2.4000000000000004" width="31.200000000000003" x="774.6175438596492" y="239.19999999999996"/>
    <g transform="translate(815.5898561069878,230.79999999999995)">
        <rect fill="#ed602e" height="19.200000000000003" rx="3.5999999999999996" ry="3.5999999999999996" transform="skewX(-15)" width="40.8" x="0" y="0"/>
    </g>
    <text dominant-baseline="middle" fill="#423F42" font-family="Consolas" font-size="14.399999999999999" text-anchor="middle" x="833.4175438596491" y="228.25">___</text>
    <text dominant-baseline="central" fill="#423F42" font-family="Consolas" font-size="14.399999999999999" text-anchor="middle" x="833.4175438596491" y="241.67499999999995">RST</text>
    <rect fill="#4e4c4c" height="2.4000000000000004" width="31.200000000000003" x="645.0175438596491" y="273.99999999999994"/>
    <g transform="translate(599.5898561069879,265.59999999999997)">
        <rect fill="#cd3c24" height="19.200000000000003" rx="3.5999999999999996" ry="3.5999999999999996" transform="skewX(-15)" width="40.8" x="0" y="0"/>
    </g>
    <text dominant-baseline="central" fill="white" font-family="Consolas" font-size="14.399999999999999" text-anchor="middle" x="617.4175438596492" y="275.19999999999993">3V3</text>
    <rect fill="#4e4c4c" height="2.4000000000000004" width="31.200000000000003" x="774.6175438596492" y="273.99999999999994"/>
    <g transform="translate(815.5898561069878,265.59999999999997)">
        <rect fill="#000" height="19.200000000000003" rx="3.5999999999999996" ry="3.5999999999999996" transform="skewX(-15)" width="40.8" x="0" y="0"/>
    </g>
    <text dominant-baseline="central" fill="white" font-family="Consolas" font-size="14.399999999999999" text-anchor="middle" x="833.4175438596491" y="275.19999999999993">GND</text>
</svg>
