<?xml version="1.0" encoding="utf-8" ?>
<svg xmlns="http://www.w3.org/2000/svg" xmlns:ev="http://www.w3.org/2001/xml-events" xmlns:xlink="http://www.w3.org/1999/xlink" baseProfile="full" height="500" version="1.1" viewBox="0,0,85.33333333333333,41.666666666666664" width="1024">
    <defs/>
    <rect fill="white" height="41.666666666666664" stroke="black" stroke-width="0.1" width="85.33333333333333" x="0" y="0"/>
    <linearGradient gradientUnits="objectBoundingBox" id="id1" x1="1.0" x2="0.0" y1="0.0" y2="1.0">
        <stop offset="0%" stop-color="#f9f9f9"/>
        <stop offset="100%" stop-color="#ededed"/>
    </linearGradient>
    <rect fill="url(#id1) none" height="23.9" stroke="#b5a739" stroke-width="0.1" width="15.9" x="34.36666666666666" y="8.883333333333333"/>
    <rect fill="#e5b472" height="1.2" id="esp12s.front.left.pin1.trace" width="1.7" x="34.31666666666666" y="16.583333333333332"/>
    <circle cx="34.31666666666666" cy="17.18333333333333" fill="#fff" id="esp12s.front.left.pin1.cast" r="0.35"/>
    <circle cx="35.36666666666666" cy="17.18333333333333" fill="#fff" id="esp12s.front.left.pin1.hole" r="0.35"/>
    <rect fill="#e5b472" height="1.2" id="esp12s.front.left.pin2.trace" width="1.7" x="34.31666666666666" y="18.583333333333332"/>
    <circle cx="34.31666666666666" cy="19.18333333333333" fill="#fff" id="esp12s.front.left.pin2.cast" r="0.35"/>
    <circle cx="35.36666666666666" cy="19.18333333333333" fill="#fff" id="esp12s.front.left.pin2.hole" r="0.35"/>
    <rect fill="#e5b472" height="1.2" id="esp12s.front.left.pin3.trace" width="1.7" x="34.31666666666666" y="20.583333333333332"/>
    <circle cx="34.31666666666666" cy="21.18333333333333" fill="#fff" id="esp12s.front.left.pin3.cast" r="0.35"/>
    <circle cx="35.36666666666666" cy="21.18333333333333" fill="#fff" id="esp12s.front.left.pin3.hole" r="0.35"/>
    <rect fill="#e5b472" height="1.2" id="esp12s.front.left.pin4.trace" width="1.7" x="34.31666666666666" y="22.583333333333332"/>
    <circle cx="34.31666666666666" cy="23.18333333333333" fill="#fff" id="esp12s.front.left.pin4.cast" r="0.35"/>
    <circle cx="35.36666666666666" cy="23.18333333333333" fill="#fff" id="esp12s.front.left.pin4.hole" r="0.35"/>
    <rect fill="#e5b472" height="1.2" id="esp12s.front.left.pin5.trace" width="1.7" x="34.31666666666666" y="24.583333333333332"/>
    <circle cx="34.31666666666666" cy="25.183333333333334" fill="#fff" id="esp12s.front.left.pin5.cast" r="0.35"/>
    <circle cx="35.36666666666666" cy="25.183333333333334" fill="#fff" id="esp12s.front.left.pin5.hole" r="0.35"/>
    <rect fill="#e5b472" height="1.2" id="esp12s.front.left.pin6.trace" width="1.7" x="34.31666666666666" y="26.583333333333332"/>
    <circle cx="34.31666666666666" cy="27.183333333333334" fill="#fff" id="esp12s.front.left.pin6.cast" r="0.35"/>
    <circle cx="35.36666666666666" cy="27.183333333333334" fill="#fff" id="esp12s.front.left.pin6.hole" r="0.35"/>
    <rect fill="#e5b472" height="1.2" id="esp12s.front.left.pin7.trace" width="1.7" x="34.31666666666666" y="28.583333333333332"/>
    <circle cx="34.31666666666666" cy="29.183333333333334" fill="#fff" id="esp12s.front.left.pin7.cast" r="0.35"/>
    <circle cx="35.36666666666666" cy="29.183333333333334" fill="#fff" id="esp12s.front.left.pin7.hole" r="0.35"/>
    <rect fill="#e5b472" height="1.2" id="esp12s.front.left.pin8.trace" width="1.7" x="34.31666666666666" y="30.583333333333332"/>
    <circle cx="34.31666666666666" cy="31.183333333333334" fill="#fff" id="esp12s.front.left.pin8.cast" r="0.35"/>
    <circle cx="35.36666666666666" cy="31.183333333333334" fill="#fff" id="esp12s.front.left.pin8.hole" r="0.35"/>
    <rect fill="#e5b472" height="1.2" id="esp12s.front.right.pin1.trace" width="1.7" x="48.61666666666666" y="16.583333333333332"/>
    <circle cx="50.31666666666666" cy="17.18333333333333" fill="#fff" id="esp12s.front.right.pin1.cast" r="0.35"/>
    <circle cx="49.266666666666666" cy="17.18333333333333" fill="#fff" id="esp12s.front.right.pin1.hole" r="0.35"/>
    <rect fill="#e5b472" height="1.2" id="esp12s.front.right.pin2.trace" width="1.7" x="48.61666666666666" y="18.583333333333332"/>
    <circle cx="50.31666666666666" cy="19.18333333333333" fill="#fff" id="esp12s.front.right.pin2.cast" r="0.35"/>
    <circle cx="49.266666666666666" cy="19.18333333333333" fill="#fff" id="esp12s.front.right.pin2.hole" r="0.35"/>
    <rect fill="#e5b472" height="1.2" id="esp12s.front.right.pin3.trace" width="1.7" x="48.61666666666666" y="20.583333333333332"/>
    <circle cx="50.31666666666666" cy="21.18333333333333" fill="#fff" id="esp12s.front.right.pin3.cast" r="0.35"/>
    <circle cx="49.266666666666666" cy="21.18333333333333" fill="#fff" id="esp12s.front.right.pin3.hole" r="0.35"/>
    <rect fill="#e5b472" height="1.2" id="esp12s.front.right.pin4.trace" width="1.7" x="48.61666666666666" y="22.583333333333332"/>
    <circle cx="50.31666666666666" cy="23.18333333333333" fill="#fff" id="esp12s.front.right.pin4.cast" r="0.35"/>
    <circle cx="49.266666666666666" cy="23.18333333333333" fill="#fff" id="esp12s.front.right.pin4.hole" r="0.35"/>
    <rect fill="#e5b472" height="1.2" id="esp12s.front.right.pin5.trace" width="1.7" x="48.61666666666666" y="24.583333333333332"/>
    <circle cx="50.31666666666666" cy="25.183333333333334" fill="#fff" id="esp12s.front.right.pin5.cast" r="0.35"/>
    <circle cx="49.266666666666666" cy="25.183333333333334" fill="#fff" id="esp12s.front.right.pin5.hole" r="0.35"/>
    <rect fill="#e5b472" height="1.2" id="esp12s.front.right.pin6.trace" width="1.7" x="48.61666666666666" y="26.583333333333332"/>
    <circle cx="50.31666666666666" cy="27.183333333333334" fill="#fff" id="esp12s.front.right.pin6.cast" r="0.35"/>
    <circle cx="49.266666666666666" cy="27.183333333333334" fill="#fff" id="esp12s.front.right.pin6.hole" r="0.35"/>
    <rect fill="#e5b472" height="1.2" id="esp12s.front.right.pin7.trace" width="1.7" x="48.61666666666666" y="28.583333333333332"/>
    <circle cx="50.31666666666666" cy="29.183333333333334" fill="#fff" id="esp12s.front.right.pin7.cast" r="0.35"/>
    <circle cx="49.266666666666666" cy="29.183333333333334" fill="#fff" id="esp12s.front.right.pin7.hole" r="0.35"/>
    <rect fill="#e5b472" height="1.2" id="esp12s.front.right.pin8.trace" width="1.7" x="48.61666666666666" y="30.583333333333332"/>
    <circle cx="50.31666666666666" cy="31.183333333333334" fill="#fff" id="esp12s.front.right.pin8.cast" r="0.35"/>
    <circle cx="49.266666666666666" cy="31.183333333333334" fill="#fff" id="esp12s.front.right.pin8.hole" r="0.35"/>
    <linearGradient gradientUnits="objectBoundingBox" id="id2" x1="1.0" x2="0.0" y1="0.0" y2="1.0">
        <stop offset="0%" stop-color="whitesmoke"/>
        <stop offset="100%" stop-color="#999"/>
    </linearGradient>
    <rect fill="url(#id2) none" height="15.8" rx="0.5" ry="0.5" width="12.0" x="36.31666666666666" y="15.783333333333331"/>
    <rect fill="#000" height="0.15" width="15.0" x="34.81666666666666" y="15.033333333333331"/>
    <text fill="#000" font-family="Consolas" font-size="1.0" x="41.31666666666666" y="14.333333333333332">WR3L</text>
    <rect fill="#e0e0e0" height="5.2" width="0.5" x="35.416666666666664" y="9.633333333333333"/>
    <rect fill="#e0e0e0" height="0.5" width="4.6" x="35.416666666666664" y="9.633333333333333"/>
    <rect fill="#e0e0e0" height="5.2" width="0.5" x="37.61666666666666" y="9.633333333333333"/>
    <rect fill="#e0e0e0" height="3.0" width="0.5" x="39.516666666666666" y="9.633333333333333"/>
    <rect fill="#e0e0e0" height="0.5" width="3.0" x="39.516666666666666" y="12.133333333333333"/>
    <rect fill="#e0e0e0" height="3.0" width="0.5" x="42.016666666666666" y="9.633333333333333"/>
    <rect fill="#e0e0e0" height="0.5" width="2.7" x="42.016666666666666" y="9.633333333333333"/>
    <rect fill="#e0e0e0" height="3.0" width="0.5" x="44.21666666666666" y="9.633333333333333"/>
    <rect fill="#e0e0e0" height="0.5" width="3.0" x="44.21666666666666" y="12.133333333333333"/>
    <rect fill="#e0e0e0" height="3.0" width="0.5" x="46.71666666666666" y="9.633333333333333"/>
    <rect fill="#e0e0e0" height="0.5" width="2.5" x="46.71666666666666" y="9.633333333333333"/>
    <rect fill="#e0e0e0" height="4.4" width="0.5" x="48.71666666666666" y="9.633333333333333"/>
    <rect fill="#4e4c4c" height="0.2" width="2.6" x="31.21666666666666" y="17.08333333333333"/>
    <rect fill="#4e4c4c" height="0.2" width="2.6" x="31.21666666666666" y="19.08333333333333"/>
    <g transform="translate(27.431026020611558,18.38333333333333)">
        <rect fill="#800000" height="1.6" rx="0.3" ry="0.3" transform="skewX(-15)" width="3.4" x="0" y="0"/>
    </g>
    <text dominant-baseline="central" fill="white" font-family="Consolas" font-size="1.2" text-anchor="middle" x="28.91666666666666" y="19.18333333333333">PA22</text>
    <g transform="translate(24.43102602061156,18.38333333333333)">
        <rect fill="#99188d" height="1.6" rx="0.3" ry="0.3" transform="skewX(-15)" width="2.8" x="0" y="0"/>
    </g>
    <text dominant-baseline="central" fill="white" font-family="Consolas" font-size="1.2" text-anchor="middle" x="25.616666666666664" y="19.18333333333333">D0</text>
    <g transform="translate(20.83102602061156,18.38333333333333)">
        <rect fill="#f95" height="1.6" rx="0.3" ry="0.3" transform="skewX(-15)" width="3.4" x="0" y="0"/>
    </g>
    <text dominant-baseline="central" fill="#423F42" font-family="Consolas" font-size="1.2" text-anchor="middle" x="22.316666666666663" y="19.18333333333333">SCL0</text>
    <g transform="translate(17.231026020611562,18.38333333333333)">
        <rect fill="#e9ba33" height="1.6" rx="0.3" ry="0.3" transform="skewX(-15)" width="3.4" x="0" y="0"/>
    </g>
    <text dominant-baseline="central" fill="#423F42" font-family="Consolas" font-size="1.2" text-anchor="middle" x="18.716666666666665" y="19.18333333333333">MISO0</text>
    <g transform="translate(13.631026020611563,18.38333333333333)">
        <rect fill="#e9ba33" height="1.6" rx="0.3" ry="0.3" transform="skewX(-15)" width="3.4" x="0" y="0"/>
    </g>
    <text dominant-baseline="central" fill="#423F42" font-family="Consolas" font-size="1.2" text-anchor="middle" x="15.116666666666664" y="19.18333333333333">MISO1</text>
    <g transform="translate(10.031026020611561,18.38333333333333)">
        <rect fill="#afa35e" height="1.6" rx="0.3" ry="0.3" transform="skewX(-15)" width="3.4" x="0" y="0"/>
    </g>
    <text dominant-baseline="central" fill="#423F42" font-family="Consolas" font-size="1.2" text-anchor="middle" x="11.516666666666662" y="19.18333333333333">PWM5</text>
    <rect fill="#4e4c4c" height="0.2" width="2.6" x="31.21666666666666" y="21.08333333333333"/>
    <g transform="translate(27.431026020611558,20.38333333333333)">
        <rect fill="#ed602e" height="1.6" rx="0.3" ry="0.3" transform="skewX(-15)" width="3.4" x="0" y="0"/>
    </g>
    <text dominant-baseline="central" fill="#423F42" font-family="Consolas" font-size="1.2" text-anchor="middle" x="28.91666666666666" y="21.18333333333333">CEN</text>
    <rect fill="#4e4c4c" height="0.2" width="2.6" x="31.21666666666666" y="23.08333333333333"/>
    <g transform="translate(27.431026020611558,22.38333333333333)">
        <rect fill="#800000" height="1.6" rx="0.3" ry="0.3" transform="skewX(-15)" width="3.4" x="0" y="0"/>
    </g>
    <text dominant-baseline="central" fill="white" font-family="Consolas" font-size="1.2" text-anchor="middle" x="28.91666666666666" y="23.18333333333333">PA19</text>
    <g transform="translate(23.83102602061156,22.38333333333333)">
        <rect fill="#8ad039" height="1.6" rx="0.3" ry="0.3" transform="skewX(-15)" width="3.4" x="0" y="0"/>
    </g>
    <text dominant-baseline="central" fill="#423F42" font-family="Consolas" font-size="1.2" text-anchor="middle" x="25.316666666666663" y="23.18333333333333">ADC1</text>
    <g transform="translate(20.83102602061156,22.38333333333333)">
        <rect fill="#99188d" height="1.6" rx="0.3" ry="0.3" transform="skewX(-15)" width="2.8" x="0" y="0"/>
    </g>
    <text dominant-baseline="central" fill="white" font-family="Consolas" font-size="1.2" text-anchor="middle" x="22.016666666666662" y="23.18333333333333">D1</text>
    <g transform="translate(17.83102602061156,22.38333333333333)">
        <rect fill="#16a352" height="1.6" rx="0.3" ry="0.3" transform="skewX(-15)" width="2.8" x="0" y="0"/>
    </g>
    <text dominant-baseline="central" fill="white" font-family="Consolas" font-size="1.2" text-anchor="middle" x="19.016666666666662" y="23.18333333333333">A0</text>
    <g transform="translate(14.23102602061156,22.38333333333333)">
        <rect fill="#f95" height="1.6" rx="0.3" ry="0.3" transform="skewX(-15)" width="3.4" x="0" y="0"/>
    </g>
    <text dominant-baseline="central" fill="#423F42" font-family="Consolas" font-size="1.2" text-anchor="middle" x="15.716666666666661" y="23.18333333333333">SDA0</text>
    <g transform="translate(10.631026020611559,22.38333333333333)">
        <rect fill="#e9ba33" height="1.6" rx="0.3" ry="0.3" transform="skewX(-15)" width="3.4" x="0" y="0"/>
    </g>
    <text dominant-baseline="central" fill="#423F42" font-family="Consolas" font-size="1.2" text-anchor="middle" x="12.11666666666666" y="23.18333333333333">CS0</text>
    <g transform="translate(7.031026020611558,22.38333333333333)">
        <rect fill="#e9ba33" height="1.6" rx="0.3" ry="0.3" transform="skewX(-15)" width="3.4" x="0" y="0"/>
    </g>
    <text dominant-baseline="central" fill="#423F42" font-family="Consolas" font-size="1.2" text-anchor="middle" x="8.516666666666659" y="23.18333333333333">CS1</text>
    <rect fill="#4e4c4c" height="0.2" width="2.6" x="31.21666666666666" y="25.083333333333332"/>
    <g transform="translate(27.431026020611558,24.383333333333333)">
        <rect fill="#800000" height="1.6" rx="0.3" ry="0.3" transform="skewX(-15)" width="3.4" x="0" y="0"/>
    </g>
    <text dominant-baseline="central" fill="white" font-family="Consolas" font-size="1.2" text-anchor="middle" x="28.91666666666666" y="25.183333333333334">PA14</text>
    <g transform="translate(24.43102602061156,24.383333333333333)">
        <rect fill="#99188d" height="1.6" rx="0.3" ry="0.3" transform="skewX(-15)" width="2.8" x="0" y="0"/>
    </g>
    <text dominant-baseline="central" fill="white" font-family="Consolas" font-size="1.2" text-anchor="middle" x="25.616666666666664" y="25.183333333333334">D2</text>
    <g transform="translate(20.83102602061156,24.383333333333333)">
        <rect fill="#afa35e" height="1.6" rx="0.3" ry="0.3" transform="skewX(-15)" width="3.4" x="0" y="0"/>
    </g>
    <text dominant-baseline="central" fill="#423F42" font-family="Consolas" font-size="1.2" text-anchor="middle" x="22.316666666666663" y="25.183333333333334">PWM0</text>
    <g transform="translate(17.231026020611562,24.383333333333333)">
        <rect fill="#ffe680" height="1.6" rx="0.3" ry="0.3" transform="skewX(-15)" width="3.4" x="0" y="0"/>
    </g>
    <text dominant-baseline="central" fill="#423F42" font-family="Consolas" font-size="1.2" text-anchor="middle" x="18.716666666666665" y="25.183333333333334">SWCLK</text>
    <rect fill="#4e4c4c" height="0.2" width="2.6" x="31.21666666666666" y="27.083333333333332"/>
    <g transform="translate(27.431026020611558,26.383333333333333)">
        <rect fill="#800000" height="1.6" rx="0.3" ry="0.3" transform="skewX(-15)" width="3.4" x="0" y="0"/>
    </g>
    <text dominant-baseline="central" fill="white" font-family="Consolas" font-size="1.2" text-anchor="middle" x="28.91666666666666" y="27.183333333333334">PA15</text>
    <g transform="translate(24.43102602061156,26.383333333333333)">
        <rect fill="#99188d" height="1.6" rx="0.3" ry="0.3" transform="skewX(-15)" width="2.8" x="0" y="0"/>
    </g>
    <text dominant-baseline="central" fill="white" font-family="Consolas" font-size="1.2" text-anchor="middle" x="25.616666666666664" y="27.183333333333334">D3</text>
    <g transform="translate(20.83102602061156,26.383333333333333)">
        <rect fill="#afa35e" height="1.6" rx="0.3" ry="0.3" transform="skewX(-15)" width="3.4" x="0" y="0"/>
    </g>
    <text dominant-baseline="central" fill="#423F42" font-family="Consolas" font-size="1.2" text-anchor="middle" x="22.316666666666663" y="27.183333333333334">PWM1</text>
    <g transform="translate(17.231026020611562,26.383333333333333)">
        <rect fill="#ffe680" height="1.6" rx="0.3" ry="0.3" transform="skewX(-15)" width="3.4" x="0" y="0"/>
    </g>
    <text dominant-baseline="central" fill="#423F42" font-family="Consolas" font-size="1.2" text-anchor="middle" x="18.716666666666665" y="27.183333333333334">SWDIO</text>
    <rect fill="#4e4c4c" height="0.2" width="2.6" x="31.21666666666666" y="29.083333333333332"/>
    <g transform="translate(27.431026020611558,28.383333333333333)">
        <rect fill="#800000" height="1.6" rx="0.3" ry="0.3" transform="skewX(-15)" width="3.4" x="0" y="0"/>
    </g>
    <text dominant-baseline="central" fill="white" font-family="Consolas" font-size="1.2" text-anchor="middle" x="28.91666666666666" y="29.183333333333334">PA00</text>
    <g transform="translate(24.43102602061156,28.383333333333333)">
        <rect fill="#99188d" height="1.6" rx="0.3" ry="0.3" transform="skewX(-15)" width="2.8" x="0" y="0"/>
    </g>
    <text dominant-baseline="central" fill="white" font-family="Consolas" font-size="1.2" text-anchor="middle" x="25.616666666666664" y="29.183333333333334">D4</text>
    <g transform="translate(20.83102602061156,28.383333333333333)">
        <rect fill="#afa35e" height="1.6" rx="0.3" ry="0.3" transform="skewX(-15)" width="3.4" x="0" y="0"/>
    </g>
    <text dominant-baseline="central" fill="#423F42" font-family="Consolas" font-size="1.2" text-anchor="middle" x="22.316666666666663" y="29.183333333333334">PWM2</text>
    <rect fill="#4e4c4c" height="0.2" width="2.6" x="31.21666666666666" y="31.083333333333332"/>
    <g transform="translate(27.431026020611558,30.383333333333333)">
        <rect fill="#cd3c24" height="1.6" rx="0.3" ry="0.3" transform="skewX(-15)" width="3.4" x="0" y="0"/>
    </g>
    <text dominant-baseline="central" fill="white" font-family="Consolas" font-size="1.2" text-anchor="middle" x="28.91666666666666" y="31.183333333333334">3V3</text>
    <rect fill="#4e4c4c" height="0.2" width="2.6" x="50.81666666666666" y="31.083333333333332"/>
    <g transform="translate(54.231026020611566,30.383333333333333)">
        <rect fill="#000" height="1.6" rx="0.3" ry="0.3" transform="skewX(-15)" width="3.4" x="0" y="0"/>
    </g>
    <text dominant-baseline="central" fill="white" font-family="Consolas" font-size="1.2" text-anchor="middle" x="55.71666666666667" y="31.183333333333334">GND</text>
    <rect fill="#4e4c4c" height="0.2" width="2.6" x="50.81666666666666" y="29.083333333333332"/>
    <g transform="translate(54.231026020611566,28.383333333333333)">
        <rect fill="#8ad039" height="1.6" rx="0.3" ry="0.3" transform="skewX(-15)" width="3.4" x="0" y="0"/>
    </g>
    <text dominant-baseline="central" fill="#423F42" font-family="Consolas" font-size="1.2" text-anchor="middle" x="55.71666666666667" y="29.183333333333334">ADC2</text>
    <g transform="translate(57.83102602061157,28.383333333333333)">
        <rect fill="#16a352" height="1.6" rx="0.3" ry="0.3" transform="skewX(-15)" width="2.8" x="0" y="0"/>
    </g>
    <text dominant-baseline="central" fill="white" font-family="Consolas" font-size="1.2" text-anchor="middle" x="59.016666666666666" y="29.183333333333334">A1</text>
    <rect fill="#4e4c4c" height="0.2" width="2.6" x="50.81666666666666" y="27.083333333333332"/>
    <g transform="translate(54.231026020611566,26.383333333333333)">
        <rect fill="#800000" height="1.6" rx="0.3" ry="0.3" transform="skewX(-15)" width="3.4" x="0" y="0"/>
    </g>
    <text dominant-baseline="central" fill="white" font-family="Consolas" font-size="1.2" text-anchor="middle" x="55.71666666666667" y="27.183333333333334">PA29</text>
    <g transform="translate(57.83102602061157,26.383333333333333)">
        <rect fill="#99188d" height="1.6" rx="0.3" ry="0.3" transform="skewX(-15)" width="2.8" x="0" y="0"/>
    </g>
    <text dominant-baseline="central" fill="white" font-family="Consolas" font-size="1.2" text-anchor="middle" x="59.016666666666666" y="27.183333333333334">D5</text>
    <g transform="translate(60.83102602061157,26.383333333333333)">
        <rect fill="#dcd4ee" height="1.6" rx="0.3" ry="0.3" transform="skewX(-15)" width="3.4" x="0" y="0"/>
    </g>
    <text dominant-baseline="central" fill="#423F42" font-family="Consolas" font-size="1.2" text-anchor="middle" x="62.31666666666667" y="27.183333333333334">RX2</text>
    <g transform="translate(64.43102602061157,26.383333333333333)">
        <rect fill="#f95" height="1.6" rx="0.3" ry="0.3" transform="skewX(-15)" width="3.4" x="0" y="0"/>
    </g>
    <text dominant-baseline="central" fill="#423F42" font-family="Consolas" font-size="1.2" text-anchor="middle" x="65.91666666666667" y="27.183333333333334">SCL0</text>
    <g transform="translate(68.03102602061156,26.383333333333333)">
        <rect fill="#afa35e" height="1.6" rx="0.3" ry="0.3" transform="skewX(-15)" width="3.4" x="0" y="0"/>
    </g>
    <text dominant-baseline="central" fill="#423F42" font-family="Consolas" font-size="1.2" text-anchor="middle" x="69.51666666666667" y="27.183333333333334">PWM4</text>
    <rect fill="#4e4c4c" height="0.2" width="2.6" x="50.81666666666666" y="25.083333333333332"/>
    <g transform="translate(54.231026020611566,24.383333333333333)">
        <rect fill="#800000" height="1.6" rx="0.3" ry="0.3" transform="skewX(-15)" width="3.4" x="0" y="0"/>
    </g>
    <text dominant-baseline="central" fill="white" font-family="Consolas" font-size="1.2" text-anchor="middle" x="55.71666666666667" y="25.183333333333334">PA30</text>
    <g transform="translate(57.83102602061157,24.383333333333333)">
        <rect fill="#99188d" height="1.6" rx="0.3" ry="0.3" transform="skewX(-15)" width="2.8" x="0" y="0"/>
    </g>
    <text dominant-baseline="central" fill="white" font-family="Consolas" font-size="1.2" text-anchor="middle" x="59.016666666666666" y="25.183333333333334">D6</text>
    <g transform="translate(60.83102602061157,24.383333333333333)">
        <rect fill="#dcd4ee" height="1.6" rx="0.3" ry="0.3" transform="skewX(-15)" width="3.4" x="0" y="0"/>
    </g>
    <text dominant-baseline="central" fill="#423F42" font-family="Consolas" font-size="1.2" text-anchor="middle" x="62.31666666666667" y="25.183333333333334">TX2</text>
    <g transform="translate(64.43102602061157,24.383333333333333)">
        <rect fill="#f95" height="1.6" rx="0.3" ry="0.3" transform="skewX(-15)" width="3.4" x="0" y="0"/>
    </g>
    <text dominant-baseline="central" fill="#423F42" font-family="Consolas" font-size="1.2" text-anchor="middle" x="65.91666666666667" y="25.183333333333334">SDA0</text>
    <g transform="translate(68.03102602061156,24.383333333333333)">
        <rect fill="#afa35e" height="1.6" rx="0.3" ry="0.3" transform="skewX(-15)" width="3.4" x="0" y="0"/>
    </g>
    <text dominant-baseline="central" fill="#423F42" font-family="Consolas" font-size="1.2" text-anchor="middle" x="69.51666666666667" y="25.183333333333334">PWM4</text>
    <rect fill="#4e4c4c" height="0.2" width="2.6" x="50.81666666666666" y="23.08333333333333"/>
    <g transform="translate(54.231026020611566,22.38333333333333)">
        <rect fill="#800000" height="1.6" rx="0.3" ry="0.3" transform="skewX(-15)" width="3.4" x="0" y="0"/>
    </g>
    <text dominant-baseline="central" fill="white" font-family="Consolas" font-size="1.2" text-anchor="middle" x="55.71666666666667" y="23.18333333333333">PA05</text>
    <g transform="translate(57.83102602061157,22.38333333333333)">
        <rect fill="#99188d" height="1.6" rx="0.3" ry="0.3" transform="skewX(-15)" width="2.8" x="0" y="0"/>
    </g>
    <text dominant-baseline="central" fill="white" font-family="Consolas" font-size="1.2" text-anchor="middle" x="59.016666666666666" y="23.18333333333333">D7</text>
    <g transform="translate(60.83102602061157,22.38333333333333)">
        <rect fill="#afa35e" height="1.6" rx="0.3" ry="0.3" transform="skewX(-15)" width="3.4" x="0" y="0"/>
    </g>
    <text dominant-baseline="central" fill="#423F42" font-family="Consolas" font-size="1.2" text-anchor="middle" x="62.31666666666667" y="23.18333333333333">PWM4</text>
    <rect fill="#4e4c4c" height="0.2" width="2.6" x="50.81666666666666" y="21.08333333333333"/>
    <g transform="translate(54.231026020611566,20.38333333333333)">
        <rect fill="#800000" height="1.6" rx="0.3" ry="0.3" transform="skewX(-15)" width="3.4" x="0" y="0"/>
    </g>
    <text dominant-baseline="central" fill="white" font-family="Consolas" font-size="1.2" text-anchor="middle" x="55.71666666666667" y="21.18333333333333">PA12</text>
    <g transform="translate(57.83102602061157,20.38333333333333)">
        <rect fill="#99188d" height="1.6" rx="0.3" ry="0.3" transform="skewX(-15)" width="2.8" x="0" y="0"/>
    </g>
    <text dominant-baseline="central" fill="white" font-family="Consolas" font-size="1.2" text-anchor="middle" x="59.016666666666666" y="21.18333333333333">D8</text>
    <g transform="translate(60.83102602061157,20.38333333333333)">
        <rect fill="#afa35e" height="1.6" rx="0.3" ry="0.3" transform="skewX(-15)" width="3.4" x="0" y="0"/>
    </g>
    <text dominant-baseline="central" fill="#423F42" font-family="Consolas" font-size="1.2" text-anchor="middle" x="62.31666666666667" y="21.18333333333333">PWM3</text>
    <rect fill="#4e4c4c" height="0.2" width="2.6" x="50.81666666666666" y="19.08333333333333"/>
    <g transform="translate(54.231026020611566,18.38333333333333)">
        <rect fill="#800000" height="1.6" rx="0.3" ry="0.3" transform="skewX(-15)" width="3.4" x="0" y="0"/>
    </g>
    <text dominant-baseline="central" fill="white" font-family="Consolas" font-size="1.2" text-anchor="middle" x="55.71666666666667" y="19.18333333333333">PA18</text>
    <g transform="translate(57.83102602061157,18.38333333333333)">
        <rect fill="#99188d" height="1.6" rx="0.3" ry="0.3" transform="skewX(-15)" width="2.8" x="0" y="0"/>
    </g>
    <text dominant-baseline="central" fill="white" font-family="Consolas" font-size="1.2" text-anchor="middle" x="59.016666666666666" y="19.18333333333333">D9</text>
    <g transform="translate(60.83102602061157,18.38333333333333)">
        <rect fill="#dcd4ee" height="1.6" rx="0.3" ry="0.3" transform="skewX(-15)" width="3.4" x="0" y="0"/>
    </g>
    <text dominant-baseline="central" fill="#423F42" font-family="Consolas" font-size="1.2" text-anchor="middle" x="62.31666666666667" y="19.18333333333333">RX0</text>
    <g transform="translate(64.43102602061157,18.38333333333333)">
        <rect fill="#f95" height="1.6" rx="0.3" ry="0.3" transform="skewX(-15)" width="3.4" x="0" y="0"/>
    </g>
    <text dominant-baseline="central" fill="#423F42" font-family="Consolas" font-size="1.2" text-anchor="middle" x="65.91666666666667" y="19.18333333333333">SCL1</text>
    <g transform="translate(68.03102602061156,18.38333333333333)">
        <rect fill="#e9ba33" height="1.6" rx="0.3" ry="0.3" transform="skewX(-15)" width="3.4" x="0" y="0"/>
    </g>
    <text dominant-baseline="central" fill="#423F42" font-family="Consolas" font-size="1.2" text-anchor="middle" x="69.51666666666667" y="19.18333333333333">SCK0</text>
    <g transform="translate(71.63102602061156,18.38333333333333)">
        <rect fill="#e9ba33" height="1.6" rx="0.3" ry="0.3" transform="skewX(-15)" width="3.4" x="0" y="0"/>
    </g>
    <text dominant-baseline="central" fill="#423F42" font-family="Consolas" font-size="1.2" text-anchor="middle" x="73.11666666666666" y="19.18333333333333">SCK1</text>
    <rect fill="#4e4c4c" height="0.2" width="2.6" x="50.81666666666666" y="17.08333333333333"/>
    <g transform="translate(54.231026020611566,16.38333333333333)">
        <rect fill="#800000" height="1.6" rx="0.3" ry="0.3" transform="skewX(-15)" width="3.4" x="0" y="0"/>
    </g>
    <text dominant-baseline="central" fill="white" font-family="Consolas" font-size="1.2" text-anchor="middle" x="55.71666666666667" y="17.18333333333333">PA23</text>
    <g transform="translate(57.83102602061157,16.38333333333333)">
        <rect fill="#99188d" height="1.6" rx="0.3" ry="0.3" transform="skewX(-15)" width="2.8" x="0" y="0"/>
    </g>
    <text dominant-baseline="central" fill="white" font-family="Consolas" font-size="1.2" text-anchor="middle" x="59.016666666666666" y="17.18333333333333">D10</text>
    <g transform="translate(60.83102602061157,16.38333333333333)">
        <rect fill="#dcd4ee" height="1.6" rx="0.3" ry="0.3" transform="skewX(-15)" width="3.4" x="0" y="0"/>
    </g>
    <text dominant-baseline="central" fill="#423F42" font-family="Consolas" font-size="1.2" text-anchor="middle" x="62.31666666666667" y="17.18333333333333">TX0</text>
    <g transform="translate(64.43102602061157,16.38333333333333)">
        <rect fill="#f95" height="1.6" rx="0.3" ry="0.3" transform="skewX(-15)" width="3.4" x="0" y="0"/>
    </g>
    <text dominant-baseline="central" fill="#423F42" font-family="Consolas" font-size="1.2" text-anchor="middle" x="65.91666666666667" y="17.18333333333333">SDA1</text>
    <g transform="translate(68.03102602061156,16.38333333333333)">
        <rect fill="#e9ba33" height="1.6" rx="0.3" ry="0.3" transform="skewX(-15)" width="3.4" x="0" y="0"/>
    </g>
    <text dominant-baseline="central" fill="#423F42" font-family="Consolas" font-size="1.2" text-anchor="middle" x="69.51666666666667" y="17.18333333333333">MOSI0</text>
    <g transform="translate(71.63102602061156,16.38333333333333)">
        <rect fill="#e9ba33" height="1.6" rx="0.3" ry="0.3" transform="skewX(-15)" width="3.4" x="0" y="0"/>
    </g>
    <text dominant-baseline="central" fill="#423F42" font-family="Consolas" font-size="1.2" text-anchor="middle" x="73.11666666666666" y="17.18333333333333">MOSI1</text>
    <g transform="translate(75.23102602061157,16.38333333333333)">
        <rect fill="#afa35e" height="1.6" rx="0.3" ry="0.3" transform="skewX(-15)" width="3.4" x="0" y="0"/>
    </g>
    <text dominant-baseline="central" fill="#423F42" font-family="Consolas" font-size="1.2" text-anchor="middle" x="76.71666666666667" y="17.18333333333333">PWM0</text>
</svg>
