<?xml version="1.0" encoding="utf-8" ?>
<svg xmlns="http://www.w3.org/2000/svg" xmlns:ev="http://www.w3.org/2001/xml-events" xmlns:xlink="http://www.w3.org/1999/xlink" baseProfile="full" height="500" version="1.1" viewBox="0,0,1024,500" width="1024">
    <defs/>
    <rect fill="white" height="500.0" stroke="black" stroke-width="1.2000000000000002" width="1024.0" x="0" y="0"/>
    <linearGradient gradientUnits="userSpaceOnUse" id="id1" x1="630.7999999999998" x2="391.9999999999999" y1="53.19999999999999" y2="340.0">
        <stop offset="0%" stop-color="#47a8cd"/>
        <stop offset="100%" stop-color="#008fb5"/>
    </linearGradient>
    <rect fill="url(#id1) none" height="286.79999999999995" rx="0" ry="0" stroke="#b5a739" stroke-width="1.2000000000000002" width="238.79999999999998" x="391.9999999999999" y="53.19999999999999"/>
    <rect fill="#e5b472" height="14.399999999999999" id="custom-20x24-22.front.left.pin1.trace" rx="0" ry="0" width="8.399999999999999" x="391.3999999999999" y="147.4"/>
    <circle cx="391.3999999999999" cy="154.6" fill="#fff" id="custom-20x24-22.front.left.pin1.cast" r="4.199999999999999"/>
    <rect fill="#e5b472" height="14.399999999999999" id="custom-20x24-22.front.left.pin2.trace" rx="0" ry="0" width="8.399999999999999" x="391.3999999999999" y="171.4"/>
    <circle cx="391.3999999999999" cy="178.6" fill="#fff" id="custom-20x24-22.front.left.pin2.cast" r="4.199999999999999"/>
    <rect fill="#e5b472" height="14.399999999999999" id="custom-20x24-22.front.left.pin3.trace" rx="0" ry="0" width="8.399999999999999" x="391.3999999999999" y="195.39999999999998"/>
    <circle cx="391.3999999999999" cy="202.6" fill="#fff" id="custom-20x24-22.front.left.pin3.cast" r="4.199999999999999"/>
    <rect fill="#e5b472" height="14.399999999999999" id="custom-20x24-22.front.left.pin4.trace" rx="0" ry="0" width="8.399999999999999" x="391.3999999999999" y="219.39999999999998"/>
    <circle cx="391.3999999999999" cy="226.6" fill="#fff" id="custom-20x24-22.front.left.pin4.cast" r="4.199999999999999"/>
    <rect fill="#e5b472" height="14.399999999999999" id="custom-20x24-22.front.left.pin5.trace" rx="0" ry="0" width="8.399999999999999" x="391.3999999999999" y="243.39999999999998"/>
    <circle cx="391.3999999999999" cy="250.6" fill="#fff" id="custom-20x24-22.front.left.pin5.cast" r="4.199999999999999"/>
    <rect fill="#e5b472" height="14.399999999999999" id="custom-20x24-22.front.left.pin6.trace" rx="0" ry="0" width="8.399999999999999" x="391.3999999999999" y="267.4"/>
    <circle cx="391.3999999999999" cy="274.6" fill="#fff" id="custom-20x24-22.front.left.pin6.cast" r="4.199999999999999"/>
    <rect fill="#e5b472" height="14.399999999999999" id="custom-20x24-22.front.left.pin7.trace" rx="0" ry="0" width="8.399999999999999" x="391.3999999999999" y="291.4"/>
    <circle cx="391.3999999999999" cy="298.6" fill="#fff" id="custom-20x24-22.front.left.pin7.cast" r="4.199999999999999"/>
    <rect fill="#e5b472" height="14.399999999999999" id="custom-20x24-22.front.right.pin1.trace" rx="0" ry="0" width="8.399999999999999" x="622.9999999999999" y="147.4"/>
    <circle cx="631.3999999999999" cy="154.6" fill="#fff" id="custom-20x24-22.front.right.pin1.cast" r="4.199999999999999"/>
    <rect fill="#e5b472" height="14.399999999999999" id="custom-20x24-22.front.right.pin2.trace" rx="0" ry="0" width="8.399999999999999" x="622.9999999999999" y="171.4"/>
    <circle cx="631.3999999999999" cy="178.6" fill="#fff" id="custom-20x24-22.front.right.pin2.cast" r="4.199999999999999"/>
    <rect fill="#e5b472" height="14.399999999999999" id="custom-20x24-22.front.right.pin3.trace" rx="0" ry="0" width="8.399999999999999" x="622.9999999999999" y="195.39999999999998"/>
    <circle cx="631.3999999999999" cy="202.6" fill="#fff" id="custom-20x24-22.front.right.pin3.cast" r="4.199999999999999"/>
    <rect fill="#e5b472" height="14.399999999999999" id="custom-20x24-22.front.right.pin4.trace" rx="0" ry="0" width="8.399999999999999" x="622.9999999999999" y="219.39999999999998"/>
    <circle cx="631.3999999999999" cy="226.6" fill="#fff" id="custom-20x24-22.front.right.pin4.cast" r="4.199999999999999"/>
    <rect fill="#e5b472" height="14.399999999999999" id="custom-20x24-22.front.right.pin5.trace" rx="0" ry="0" width="8.399999999999999" x="622.9999999999999" y="243.39999999999998"/>
    <circle cx="631.3999999999999" cy="250.6" fill="#fff" id="custom-20x24-22.front.right.pin5.cast" r="4.199999999999999"/>
    <rect fill="#e5b472" height="14.399999999999999" id="custom-20x24-22.front.right.pin6.trace" rx="0" ry="0" width="8.399999999999999" x="622.9999999999999" y="267.4"/>
    <circle cx="631.3999999999999" cy="274.6" fill="#fff" id="custom-20x24-22.front.right.pin6.cast" r="4.199999999999999"/>
    <rect fill="#e5b472" height="14.399999999999999" id="custom-20x24-22.front.right.pin7.trace" rx="0" ry="0" width="8.399999999999999" x="622.9999999999999" y="291.4"/>
    <circle cx="631.3999999999999" cy="298.6" fill="#fff" id="custom-20x24-22.front.right.pin7.cast" r="4.199999999999999"/>
    <rect fill="#e5b472" height="8.399999999999999" id="r_pins_horz.pin1.trace" rx="0" ry="0" width="14.399999999999999" x="420.19999999999993" y="332.2"/>
    <circle cx="427.3999999999999" cy="340.6" fill="#fff" id="r_pins_horz.pin1.cast" r="4.199999999999999"/>
    <rect fill="#e5b472" height="8.399999999999999" id="r_pins_horz.pin2.trace" rx="0" ry="0" width="14.399999999999999" x="444.19999999999993" y="332.2"/>
    <circle cx="451.3999999999999" cy="340.6" fill="#fff" id="r_pins_horz.pin2.cast" r="4.199999999999999"/>
    <rect fill="#e5b472" height="8.399999999999999" id="r_pins_horz.pin3.trace" rx="0" ry="0" width="14.399999999999999" x="468.19999999999993" y="332.2"/>
    <circle cx="475.3999999999999" cy="340.6" fill="#fff" id="r_pins_horz.pin3.cast" r="4.199999999999999"/>
    <rect fill="#e5b472" height="8.399999999999999" id="r_pins_horz.pin4.trace" rx="0" ry="0" width="14.399999999999999" x="492.19999999999993" y="332.2"/>
    <circle cx="499.3999999999999" cy="340.6" fill="#fff" id="r_pins_horz.pin4.cast" r="4.199999999999999"/>
    <rect fill="#e5b472" height="8.399999999999999" id="r_pins_horz.pin5.trace" rx="0" ry="0" width="14.399999999999999" x="516.1999999999999" y="332.2"/>
    <circle cx="523.3999999999999" cy="340.6" fill="#fff" id="r_pins_horz.pin5.cast" r="4.199999999999999"/>
    <rect fill="#e5b472" height="8.399999999999999" id="r_pins_horz.pin6.trace" rx="0" ry="0" width="14.399999999999999" x="540.1999999999999" y="332.2"/>
    <circle cx="547.3999999999999" cy="340.6" fill="#fff" id="r_pins_horz.pin6.cast" r="4.199999999999999"/>
    <rect fill="#e5b472" height="8.399999999999999" id="r_pins_horz.pin7.trace" rx="0" ry="0" width="14.399999999999999" x="564.1999999999999" y="332.2"/>
    <circle cx="571.3999999999999" cy="340.6" fill="#fff" id="r_pins_horz.pin7.cast" r="4.199999999999999"/>
    <rect fill="#e5b472" height="8.399999999999999" id="r_pins_horz.pin8.trace" rx="0" ry="0" width="14.399999999999999" x="588.1999999999999" y="332.2"/>
    <circle cx="595.3999999999999" cy="340.6" fill="#fff" id="r_pins_horz.pin8.cast" r="4.199999999999999"/>
    <rect fill="#4e4c4c" height="24.0" rx="0" ry="0" width="2.4000000000000004" x="426.19999999999993" y="343.0"/>
    <rect fill="#4e4c4c" height="2.4000000000000004" rx="0" ry="0" width="2.4000000000000004" x="423.79999999999995" y="364.6"/>
    <rect height="0.0" id="custom-20x24-22.front.down.label1.anchor" rx="0" ry="0" width="0.0" x="821.1999999999998" y="418.4"/>
    <rect fill="#4e4c4c" height="48.0" rx="0" ry="0" width="2.4000000000000004" x="450.19999999999993" y="343.0"/>
    <rect fill="#4e4c4c" height="2.4000000000000004" rx="0" ry="0" width="26.400000000000002" x="423.79999999999995" y="388.6"/>
    <rect height="0.0" id="custom-20x24-22.front.down.label2.anchor" rx="0" ry="0" width="0.0" x="821.1999999999998" y="442.4"/>
    <rect fill="#4e4c4c" height="72.0" rx="0" ry="0" width="2.4000000000000004" x="474.19999999999993" y="343.0"/>
    <rect fill="#4e4c4c" height="2.4000000000000004" rx="0" ry="0" width="50.400000000000006" x="423.79999999999995" y="412.6"/>
    <rect height="0.0" id="custom-20x24-22.front.down.label3.anchor" rx="0" ry="0" width="0.0" x="821.1999999999998" y="466.4"/>
    <rect fill="#4e4c4c" height="96.0" rx="0" ry="0" width="2.4000000000000004" x="498.19999999999993" y="343.0"/>
    <rect fill="#4e4c4c" height="2.4000000000000004" rx="0" ry="0" width="74.4" x="423.79999999999995" y="436.6"/>
    <rect height="0.0" id="custom-20x24-22.front.down.label4.anchor" rx="0" ry="0" width="0.0" x="821.1999999999998" y="490.4"/>
    <rect fill="#4e4c4c" height="96.0" rx="0" ry="0" width="2.4000000000000004" x="522.1999999999999" y="343.0"/>
    <rect fill="#4e4c4c" height="2.4000000000000004" rx="0" ry="0" width="74.4" x="523.3999999999999" y="436.6"/>
    <rect height="0.0" id="custom-20x24-22.front.down.label5.anchor" rx="0" ry="0" width="0.0" x="983.1999999999998" y="490.4"/>
    <rect fill="#4e4c4c" height="72.0" rx="0" ry="0" width="2.4000000000000004" x="546.1999999999999" y="343.0"/>
    <rect fill="#4e4c4c" height="2.4000000000000004" rx="0" ry="0" width="50.400000000000006" x="547.3999999999999" y="412.6"/>
    <rect height="0.0" id="custom-20x24-22.front.down.label6.anchor" rx="0" ry="0" width="0.0" x="983.1999999999998" y="466.4"/>
    <rect fill="#4e4c4c" height="48.0" rx="0" ry="0" width="2.4000000000000004" x="570.1999999999999" y="343.0"/>
    <rect fill="#4e4c4c" height="2.4000000000000004" rx="0" ry="0" width="26.400000000000002" x="571.3999999999999" y="388.6"/>
    <rect height="0.0" id="custom-20x24-22.front.down.label7.anchor" rx="0" ry="0" width="0.0" x="983.1999999999998" y="442.4"/>
    <rect fill="#4e4c4c" height="24.0" rx="0" ry="0" width="2.4000000000000004" x="594.1999999999999" y="343.0"/>
    <rect fill="#4e4c4c" height="2.4000000000000004" rx="0" ry="0" width="2.4000000000000004" x="595.3999999999999" y="364.6"/>
    <rect height="0.0" id="custom-20x24-22.front.down.label8.anchor" rx="0" ry="0" width="0.0" x="983.1999999999998" y="418.4"/>
    <linearGradient gradientUnits="userSpaceOnUse" id="id2" x1="617.0" x2="405.79999999999995" y1="136.0" y2="325.6">
        <stop offset="0%" stop-color="whitesmoke"/>
        <stop offset="100%" stop-color="#999"/>
    </linearGradient>
    <rect fill="url(#id2) none" height="189.60000000000002" rx="6.0" ry="6.0" width="211.20000000000002" x="405.79999999999995" y="136.0"/>
    <rect fill="#58839b" height="66.49180327868854" rx="0" ry="0" width="7.5" x="407.8999999999999" y="62.82950819672131"/>
    <rect fill="#58839b" height="6.39344262295082" rx="0" ry="0" width="69.0" x="407.8999999999999" y="62.82950819672131"/>
    <rect fill="#58839b" height="66.49180327868854" rx="0" ry="0" width="7.5" x="440.8999999999999" y="62.82950819672131"/>
    <rect fill="#58839b" height="38.36065573770492" rx="0" ry="0" width="7.5" x="469.3999999999999" y="62.82950819672131"/>
    <rect fill="#58839b" height="6.39344262295082" rx="0" ry="0" width="45.0" x="469.3999999999999" y="94.79672131147541"/>
    <rect fill="#58839b" height="38.36065573770492" rx="0" ry="0" width="7.5" x="506.8999999999999" y="62.82950819672131"/>
    <rect fill="#58839b" height="6.39344262295082" rx="0" ry="0" width="40.5" x="506.8999999999999" y="62.82950819672131"/>
    <rect fill="#58839b" height="38.36065573770492" rx="0" ry="0" width="7.5" x="539.8999999999999" y="62.82950819672131"/>
    <rect fill="#58839b" height="6.39344262295082" rx="0" ry="0" width="45.0" x="539.8999999999999" y="94.79672131147541"/>
    <rect fill="#58839b" height="38.36065573770492" rx="0" ry="0" width="7.5" x="577.3999999999999" y="62.82950819672131"/>
    <rect fill="#58839b" height="6.39344262295082" rx="0" ry="0" width="37.5" x="577.3999999999999" y="62.82950819672131"/>
    <rect fill="#58839b" height="56.26229508196722" rx="0" ry="0" width="7.5" x="607.3999999999999" y="62.82950819672131"/>
    <rect fill="#4e4c4c" height="2.4000000000000004" width="31.200000000000003" x="354.19999999999993" y="153.4"/>
    <g transform="translate(327.97231224733866,145.0)">
        <rect fill="#4e4c4c" height="19.200000000000003" rx="3.5999999999999996" ry="3.5999999999999996" transform="skewX(-15)" width="21.6" x="0" y="0"/>
    </g>
    <text dominant-baseline="central" fill="white" font-family="Consolas" font-size="14.399999999999999" text-anchor="middle" x="336.19999999999993" y="154.6">1</text>
    <g transform="translate(284.7723122473387,145.0)">
        <rect fill="#cd3c24" height="19.200000000000003" rx="3.5999999999999996" ry="3.5999999999999996" transform="skewX(-15)" width="40.8" x="0" y="0"/>
    </g>
    <text dominant-baseline="central" fill="white" font-family="Consolas" font-size="14.399999999999999" text-anchor="middle" x="302.5999999999999" y="154.6">3V3</text>
    <rect fill="#4e4c4c" height="2.4000000000000004" width="31.200000000000003" x="354.19999999999993" y="177.4"/>
    <g transform="translate(327.97231224733866,169.0)">
        <rect fill="#4e4c4c" height="19.200000000000003" rx="3.5999999999999996" ry="3.5999999999999996" transform="skewX(-15)" width="21.6" x="0" y="0"/>
    </g>
    <text dominant-baseline="central" fill="white" font-family="Consolas" font-size="14.399999999999999" text-anchor="middle" x="336.19999999999993" y="178.6">2</text>
    <g transform="translate(284.7723122473387,169.0)">
        <rect fill="#800000" height="19.200000000000003" rx="3.5999999999999996" ry="3.5999999999999996" transform="skewX(-15)" width="40.8" x="0" y="0"/>
    </g>
    <text dominant-baseline="central" fill="white" font-family="Consolas" font-size="14.399999999999999" text-anchor="middle" x="302.5999999999999" y="178.6">P26</text>
    <g transform="translate(241.5723122473387,169.0)">
        <rect fill="#aeafc1" height="19.200000000000003" rx="3.5999999999999996" ry="3.5999999999999996" transform="skewX(-15)" width="40.8" x="0" y="0"/>
    </g>
    <text dominant-baseline="central" fill="#423F42" font-family="Consolas" font-size="14.399999999999999" text-anchor="middle" x="259.3999999999999" y="178.6">IRDA</text>
    <g transform="translate(198.3723122473387,169.0)">
        <rect fill="#afa35e" height="19.200000000000003" rx="3.5999999999999996" ry="3.5999999999999996" transform="skewX(-15)" width="40.8" x="0" y="0"/>
    </g>
    <text dominant-baseline="central" fill="#423F42" font-family="Consolas" font-size="14.399999999999999" text-anchor="middle" x="216.19999999999993" y="178.6">PWM5</text>
    <rect fill="#4e4c4c" height="2.4000000000000004" width="31.200000000000003" x="354.19999999999993" y="201.39999999999998"/>
    <g transform="translate(327.97231224733866,193.0)">
        <rect fill="#4e4c4c" height="19.200000000000003" rx="3.5999999999999996" ry="3.5999999999999996" transform="skewX(-15)" width="21.6" x="0" y="0"/>
    </g>
    <text dominant-baseline="central" fill="white" font-family="Consolas" font-size="14.399999999999999" text-anchor="middle" x="336.19999999999993" y="202.6">3</text>
    <g transform="translate(284.7723122473387,193.0)">
        <rect fill="#800000" height="19.200000000000003" rx="3.5999999999999996" ry="3.5999999999999996" transform="skewX(-15)" width="40.8" x="0" y="0"/>
    </g>
    <text dominant-baseline="central" fill="white" font-family="Consolas" font-size="14.399999999999999" text-anchor="middle" x="302.5999999999999" y="202.6">P14</text>
    <rect fill="#4e4c4c" height="2.4000000000000004" width="31.200000000000003" x="354.19999999999993" y="225.39999999999998"/>
    <g transform="translate(327.97231224733866,217.0)">
        <rect fill="#4e4c4c" height="19.200000000000003" rx="3.5999999999999996" ry="3.5999999999999996" transform="skewX(-15)" width="21.6" x="0" y="0"/>
    </g>
    <text dominant-baseline="central" fill="white" font-family="Consolas" font-size="14.399999999999999" text-anchor="middle" x="336.19999999999993" y="226.6">4</text>
    <g transform="translate(284.7723122473387,217.0)">
        <rect fill="#800000" height="19.200000000000003" rx="3.5999999999999996" ry="3.5999999999999996" transform="skewX(-15)" width="40.8" x="0" y="0"/>
    </g>
    <text dominant-baseline="central" fill="white" font-family="Consolas" font-size="14.399999999999999" text-anchor="middle" x="302.5999999999999" y="226.6">P16</text>
    <rect fill="#4e4c4c" height="2.4000000000000004" width="31.200000000000003" x="354.19999999999993" y="249.39999999999998"/>
    <g transform="translate(327.97231224733866,241.0)">
        <rect fill="#4e4c4c" height="19.200000000000003" rx="3.5999999999999996" ry="3.5999999999999996" transform="skewX(-15)" width="21.6" x="0" y="0"/>
    </g>
    <text dominant-baseline="central" fill="white" font-family="Consolas" font-size="14.399999999999999" text-anchor="middle" x="336.19999999999993" y="250.6">5</text>
    <g transform="translate(284.7723122473387,241.0)">
        <rect fill="#800000" height="19.200000000000003" rx="3.5999999999999996" ry="3.5999999999999996" transform="skewX(-15)" width="40.8" x="0" y="0"/>
    </g>
    <text dominant-baseline="central" fill="white" font-family="Consolas" font-size="14.399999999999999" text-anchor="middle" x="302.5999999999999" y="250.6">P24</text>
    <g transform="translate(241.5723122473387,241.0)">
        <rect fill="#afa35e" height="19.200000000000003" rx="3.5999999999999996" ry="3.5999999999999996" transform="skewX(-15)" width="40.8" x="0" y="0"/>
    </g>
    <text dominant-baseline="central" fill="#423F42" font-family="Consolas" font-size="14.399999999999999" text-anchor="middle" x="259.3999999999999" y="250.6">PWM4</text>
    <rect fill="#4e4c4c" height="2.4000000000000004" width="31.200000000000003" x="354.19999999999993" y="273.4"/>
    <g transform="translate(327.97231224733866,265.0)">
        <rect fill="#4e4c4c" height="19.200000000000003" rx="3.5999999999999996" ry="3.5999999999999996" transform="skewX(-15)" width="21.6" x="0" y="0"/>
    </g>
    <text dominant-baseline="central" fill="white" font-family="Consolas" font-size="14.399999999999999" text-anchor="middle" x="336.19999999999993" y="274.6">6</text>
    <g transform="translate(284.7723122473387,265.0)">
        <rect fill="#000" height="19.200000000000003" rx="3.5999999999999996" ry="3.5999999999999996" transform="skewX(-15)" width="40.8" x="0" y="0"/>
    </g>
    <text dominant-baseline="central" fill="white" font-family="Consolas" font-size="14.399999999999999" text-anchor="middle" x="302.5999999999999" y="274.6">GND</text>
    <rect fill="#4e4c4c" height="2.4000000000000004" width="31.200000000000003" x="354.19999999999993" y="297.4"/>
    <g transform="translate(327.97231224733866,289.0)">
        <rect fill="#4e4c4c" height="19.200000000000003" rx="3.5999999999999996" ry="3.5999999999999996" transform="skewX(-15)" width="21.6" x="0" y="0"/>
    </g>
    <text dominant-baseline="central" fill="white" font-family="Consolas" font-size="14.399999999999999" text-anchor="middle" x="336.19999999999993" y="298.6">7</text>
    <g transform="translate(284.7723122473387,289.0)">
        <rect fill="#800000" height="19.200000000000003" rx="3.5999999999999996" ry="3.5999999999999996" transform="skewX(-15)" width="40.8" x="0" y="0"/>
    </g>
    <text dominant-baseline="central" fill="white" font-family="Consolas" font-size="14.399999999999999" text-anchor="middle" x="302.5999999999999" y="298.6">P22</text>
    <rect fill="#4e4c4c" height="2.4000000000000004" width="31.200000000000003" x="637.3999999999999" y="297.4"/>
    <g transform="translate(678.3723122473388,289.0)">
        <rect fill="#4e4c4c" height="19.200000000000003" rx="3.5999999999999996" ry="3.5999999999999996" transform="skewX(-15)" width="21.6" x="0" y="0"/>
    </g>
    <text dominant-baseline="central" fill="white" font-family="Consolas" font-size="14.399999999999999" text-anchor="middle" x="686.5999999999999" y="298.6">8</text>
    <g transform="translate(702.3723122473388,289.0)">
        <rect fill="#800000" height="19.200000000000003" rx="3.5999999999999996" ry="3.5999999999999996" transform="skewX(-15)" width="40.8" x="0" y="0"/>
    </g>
    <text dominant-baseline="central" fill="white" font-family="Consolas" font-size="14.399999999999999" text-anchor="middle" x="720.2" y="298.6">P0</text>
    <g transform="translate(745.5723122473388,289.0)">
        <rect fill="#dcd4ee" height="19.200000000000003" rx="3.5999999999999996" ry="3.5999999999999996" transform="skewX(-15)" width="40.8" x="0" y="0"/>
    </g>
    <text dominant-baseline="central" fill="#423F42" font-family="Consolas" font-size="14.399999999999999" text-anchor="middle" x="763.4" y="298.6">TX2</text>
    <g transform="translate(788.7723122473386,289.0)">
        <rect fill="#f95" height="19.200000000000003" rx="3.5999999999999996" ry="3.5999999999999996" transform="skewX(-15)" width="40.8" x="0" y="0"/>
    </g>
    <text dominant-baseline="central" fill="#423F42" font-family="Consolas" font-size="14.399999999999999" text-anchor="middle" x="806.5999999999999" y="298.6">SCL2</text>
    <rect fill="#4e4c4c" height="2.4000000000000004" width="31.200000000000003" x="637.3999999999999" y="273.4"/>
    <g transform="translate(678.3723122473388,265.0)">
        <rect fill="#4e4c4c" height="19.200000000000003" rx="3.5999999999999996" ry="3.5999999999999996" transform="skewX(-15)" width="21.6" x="0" y="0"/>
    </g>
    <text dominant-baseline="central" fill="white" font-family="Consolas" font-size="14.399999999999999" text-anchor="middle" x="686.5999999999999" y="274.6">9</text>
    <g transform="translate(702.3723122473388,265.0)">
        <rect fill="#800000" height="19.200000000000003" rx="3.5999999999999996" ry="3.5999999999999996" transform="skewX(-15)" width="40.8" x="0" y="0"/>
    </g>
    <text dominant-baseline="central" fill="white" font-family="Consolas" font-size="14.399999999999999" text-anchor="middle" x="720.2" y="274.6">P23</text>
    <g transform="translate(745.5723122473388,265.0)">
        <rect fill="#8ad039" height="19.200000000000003" rx="3.5999999999999996" ry="3.5999999999999996" transform="skewX(-15)" width="40.8" x="0" y="0"/>
    </g>
    <text dominant-baseline="central" fill="#423F42" font-family="Consolas" font-size="14.399999999999999" text-anchor="middle" x="763.4" y="274.6">ADC3</text>
    <rect fill="#4e4c4c" height="2.4000000000000004" width="31.200000000000003" x="637.3999999999999" y="249.39999999999998"/>
    <g transform="translate(678.3723122473388,241.0)">
        <rect fill="#4e4c4c" height="19.200000000000003" rx="3.5999999999999996" ry="3.5999999999999996" transform="skewX(-15)" width="21.6" x="0" y="0"/>
    </g>
    <text dominant-baseline="central" fill="white" font-family="Consolas" font-size="14.399999999999999" text-anchor="middle" x="686.5999999999999" y="250.6">10</text>
    <g transform="translate(702.3723122473388,241.0)">
        <rect fill="#ed602e" height="19.200000000000003" rx="3.5999999999999996" ry="3.5999999999999996" transform="skewX(-15)" width="40.8" x="0" y="0"/>
    </g>
    <text dominant-baseline="central" fill="#423F42" font-family="Consolas" font-size="14.399999999999999" text-anchor="middle" x="720.2" y="250.6">?</text>
    <rect fill="#4e4c4c" height="2.4000000000000004" width="31.200000000000003" x="637.3999999999999" y="225.39999999999998"/>
    <g transform="translate(678.3723122473388,217.0)">
        <rect fill="#4e4c4c" height="19.200000000000003" rx="3.5999999999999996" ry="3.5999999999999996" transform="skewX(-15)" width="21.6" x="0" y="0"/>
    </g>
    <text dominant-baseline="central" fill="white" font-family="Consolas" font-size="14.399999999999999" text-anchor="middle" x="686.5999999999999" y="226.6">11</text>
    <g transform="translate(702.3723122473388,217.0)">
        <rect fill="#000" height="19.200000000000003" rx="3.5999999999999996" ry="3.5999999999999996" transform="skewX(-15)" width="40.8" x="0" y="0"/>
    </g>
    <text dominant-baseline="central" fill="white" font-family="Consolas" font-size="14.399999999999999" text-anchor="middle" x="720.2" y="226.6">GND</text>
    <rect fill="#4e4c4c" height="2.4000000000000004" width="31.200000000000003" x="637.3999999999999" y="201.39999999999998"/>
    <g transform="translate(678.3723122473388,193.0)">
        <rect fill="#4e4c4c" height="19.200000000000003" rx="3.5999999999999996" ry="3.5999999999999996" transform="skewX(-15)" width="21.6" x="0" y="0"/>
    </g>
    <text dominant-baseline="central" fill="white" font-family="Consolas" font-size="14.399999999999999" text-anchor="middle" x="686.5999999999999" y="202.6">12</text>
    <g transform="translate(702.3723122473388,193.0)">
        <rect fill="#800000" height="19.200000000000003" rx="3.5999999999999996" ry="3.5999999999999996" transform="skewX(-15)" width="40.8" x="0" y="0"/>
    </g>
    <text dominant-baseline="central" fill="white" font-family="Consolas" font-size="14.399999999999999" text-anchor="middle" x="720.2" y="202.6">P8</text>
    <g transform="translate(745.5723122473388,193.0)">
        <rect fill="#afa35e" height="19.200000000000003" rx="3.5999999999999996" ry="3.5999999999999996" transform="skewX(-15)" width="40.8" x="0" y="0"/>
    </g>
    <text dominant-baseline="central" fill="#423F42" font-family="Consolas" font-size="14.399999999999999" text-anchor="middle" x="763.4" y="202.6">PWM2</text>
    <rect fill="#4e4c4c" height="2.4000000000000004" width="31.200000000000003" x="637.3999999999999" y="177.4"/>
    <g transform="translate(678.3723122473388,169.0)">
        <rect fill="#4e4c4c" height="19.200000000000003" rx="3.5999999999999996" ry="3.5999999999999996" transform="skewX(-15)" width="21.6" x="0" y="0"/>
    </g>
    <text dominant-baseline="central" fill="white" font-family="Consolas" font-size="14.399999999999999" text-anchor="middle" x="686.5999999999999" y="178.6">13</text>
    <g transform="translate(702.3723122473388,169.0)">
        <rect fill="#800000" height="19.200000000000003" rx="3.5999999999999996" ry="3.5999999999999996" transform="skewX(-15)" width="40.8" x="0" y="0"/>
    </g>
    <text dominant-baseline="central" fill="white" font-family="Consolas" font-size="14.399999999999999" text-anchor="middle" x="720.2" y="178.6">P9</text>
    <g transform="translate(745.5723122473388,169.0)">
        <rect fill="#afa35e" height="19.200000000000003" rx="3.5999999999999996" ry="3.5999999999999996" transform="skewX(-15)" width="40.8" x="0" y="0"/>
    </g>
    <text dominant-baseline="central" fill="#423F42" font-family="Consolas" font-size="14.399999999999999" text-anchor="middle" x="763.4" y="178.6">PWM3</text>
    <rect fill="#4e4c4c" height="2.4000000000000004" width="31.200000000000003" x="637.3999999999999" y="153.4"/>
    <g transform="translate(678.3723122473388,145.0)">
        <rect fill="#4e4c4c" height="19.200000000000003" rx="3.5999999999999996" ry="3.5999999999999996" transform="skewX(-15)" width="21.6" x="0" y="0"/>
    </g>
    <text dominant-baseline="central" fill="white" font-family="Consolas" font-size="14.399999999999999" text-anchor="middle" x="686.5999999999999" y="154.6">14</text>
    <g transform="translate(702.3723122473388,145.0)">
        <rect fill="#000" height="19.200000000000003" rx="3.5999999999999996" ry="3.5999999999999996" transform="skewX(-15)" width="40.8" x="0" y="0"/>
    </g>
    <text dominant-baseline="central" fill="white" font-family="Consolas" font-size="14.399999999999999" text-anchor="middle" x="720.2" y="154.6">GND</text>
    <rect fill="#4e4c4c" height="2.4000000000000004" width="31.200000000000003" x="392.5999999999999" y="364.6"/>
    <g transform="translate(366.3723122473387,356.2)">
        <rect fill="#4e4c4c" height="19.200000000000003" rx="3.5999999999999996" ry="3.5999999999999996" transform="skewX(-15)" width="21.6" x="0" y="0"/>
    </g>
    <text dominant-baseline="central" fill="white" font-family="Consolas" font-size="14.399999999999999" text-anchor="middle" x="374.5999999999999" y="365.8">15</text>
    <g transform="translate(323.1723122473387,356.2)">
        <rect fill="#800000" height="19.200000000000003" rx="3.5999999999999996" ry="3.5999999999999996" transform="skewX(-15)" width="40.8" x="0" y="0"/>
    </g>
    <text dominant-baseline="central" fill="white" font-family="Consolas" font-size="14.399999999999999" text-anchor="middle" x="340.99999999999994" y="365.8">P21</text>
    <rect fill="#4e4c4c" height="2.4000000000000004" width="31.200000000000003" x="392.5999999999999" y="388.6"/>
    <g transform="translate(366.3723122473387,380.2)">
        <rect fill="#4e4c4c" height="19.200000000000003" rx="3.5999999999999996" ry="3.5999999999999996" transform="skewX(-15)" width="21.6" x="0" y="0"/>
    </g>
    <text dominant-baseline="central" fill="white" font-family="Consolas" font-size="14.399999999999999" text-anchor="middle" x="374.5999999999999" y="389.8">16</text>
    <g transform="translate(323.1723122473387,380.2)">
        <rect fill="#800000" height="19.200000000000003" rx="3.5999999999999996" ry="3.5999999999999996" transform="skewX(-15)" width="40.8" x="0" y="0"/>
    </g>
    <text dominant-baseline="central" fill="white" font-family="Consolas" font-size="14.399999999999999" text-anchor="middle" x="340.99999999999994" y="389.8">P6</text>
    <g transform="translate(279.97231224733866,380.2)">
        <rect fill="#afa35e" height="19.200000000000003" rx="3.5999999999999996" ry="3.5999999999999996" transform="skewX(-15)" width="40.8" x="0" y="0"/>
    </g>
    <text dominant-baseline="central" fill="#423F42" font-family="Consolas" font-size="14.399999999999999" text-anchor="middle" x="297.7999999999999" y="389.8">PWM0</text>
    <rect fill="#4e4c4c" height="2.4000000000000004" width="31.200000000000003" x="392.5999999999999" y="412.6"/>
    <g transform="translate(366.3723122473387,404.20000000000005)">
        <rect fill="#4e4c4c" height="19.200000000000003" rx="3.5999999999999996" ry="3.5999999999999996" transform="skewX(-15)" width="21.6" x="0" y="0"/>
    </g>
    <text dominant-baseline="central" fill="white" font-family="Consolas" font-size="14.399999999999999" text-anchor="middle" x="374.5999999999999" y="413.8">17</text>
    <g transform="translate(323.1723122473387,404.20000000000005)">
        <rect fill="#800000" height="19.200000000000003" rx="3.5999999999999996" ry="3.5999999999999996" transform="skewX(-15)" width="40.8" x="0" y="0"/>
    </g>
    <text dominant-baseline="central" fill="white" font-family="Consolas" font-size="14.399999999999999" text-anchor="middle" x="340.99999999999994" y="413.8">P7</text>
    <g transform="translate(279.97231224733866,404.20000000000005)">
        <rect fill="#afa35e" height="19.200000000000003" rx="3.5999999999999996" ry="3.5999999999999996" transform="skewX(-15)" width="40.8" x="0" y="0"/>
    </g>
    <text dominant-baseline="central" fill="#423F42" font-family="Consolas" font-size="14.399999999999999" text-anchor="middle" x="297.7999999999999" y="413.8">PWM1</text>
    <rect fill="#4e4c4c" height="2.4000000000000004" width="31.200000000000003" x="392.5999999999999" y="436.6"/>
    <g transform="translate(366.3723122473387,428.20000000000005)">
        <rect fill="#4e4c4c" height="19.200000000000003" rx="3.5999999999999996" ry="3.5999999999999996" transform="skewX(-15)" width="21.6" x="0" y="0"/>
    </g>
    <text dominant-baseline="central" fill="white" font-family="Consolas" font-size="14.399999999999999" text-anchor="middle" x="374.5999999999999" y="437.8">18</text>
    <g transform="translate(323.1723122473387,428.20000000000005)">
        <rect fill="#800000" height="19.200000000000003" rx="3.5999999999999996" ry="3.5999999999999996" transform="skewX(-15)" width="40.8" x="0" y="0"/>
    </g>
    <text dominant-baseline="central" fill="white" font-family="Consolas" font-size="14.399999999999999" text-anchor="middle" x="340.99999999999994" y="437.8">P10</text>
    <g transform="translate(279.97231224733866,428.20000000000005)">
        <rect fill="#dcd4ee" height="19.200000000000003" rx="3.5999999999999996" ry="3.5999999999999996" transform="skewX(-15)" width="40.8" x="0" y="0"/>
    </g>
    <text dominant-baseline="central" fill="#423F42" font-family="Consolas" font-size="14.399999999999999" text-anchor="middle" x="297.7999999999999" y="437.8">RX1</text>
    <rect fill="#4e4c4c" height="2.4000000000000004" width="31.200000000000003" x="597.8" y="436.6"/>
    <g transform="translate(638.7723122473387,428.20000000000005)">
        <rect fill="#4e4c4c" height="19.200000000000003" rx="3.5999999999999996" ry="3.5999999999999996" transform="skewX(-15)" width="21.6" x="0" y="0"/>
    </g>
    <text dominant-baseline="central" fill="white" font-family="Consolas" font-size="14.399999999999999" text-anchor="middle" x="646.9999999999999" y="437.8">19</text>
    <g transform="translate(662.7723122473387,428.20000000000005)">
        <rect fill="#000" height="19.200000000000003" rx="3.5999999999999996" ry="3.5999999999999996" transform="skewX(-15)" width="40.8" x="0" y="0"/>
    </g>
    <text dominant-baseline="central" fill="white" font-family="Consolas" font-size="14.399999999999999" text-anchor="middle" x="680.5999999999999" y="437.8">GND</text>
    <rect fill="#4e4c4c" height="2.4000000000000004" width="31.200000000000003" x="597.8" y="412.6"/>
    <g transform="translate(638.7723122473387,404.20000000000005)">
        <rect fill="#4e4c4c" height="19.200000000000003" rx="3.5999999999999996" ry="3.5999999999999996" transform="skewX(-15)" width="21.6" x="0" y="0"/>
    </g>
    <text dominant-baseline="central" fill="white" font-family="Consolas" font-size="14.399999999999999" text-anchor="middle" x="646.9999999999999" y="413.8">20</text>
    <g transform="translate(662.7723122473387,404.20000000000005)">
        <rect fill="#800000" height="19.200000000000003" rx="3.5999999999999996" ry="3.5999999999999996" transform="skewX(-15)" width="40.8" x="0" y="0"/>
    </g>
    <text dominant-baseline="central" fill="white" font-family="Consolas" font-size="14.399999999999999" text-anchor="middle" x="680.5999999999999" y="413.8">P11</text>
    <g transform="translate(705.9723122473388,404.20000000000005)">
        <rect fill="#dcd4ee" height="19.200000000000003" rx="3.5999999999999996" ry="3.5999999999999996" transform="skewX(-15)" width="40.8" x="0" y="0"/>
    </g>
    <text dominant-baseline="central" fill="#423F42" font-family="Consolas" font-size="14.399999999999999" text-anchor="middle" x="723.8000000000001" y="413.8">TX1</text>
    <rect fill="#4e4c4c" height="2.4000000000000004" width="31.200000000000003" x="597.8" y="388.6"/>
    <g transform="translate(638.7723122473387,380.2)">
        <rect fill="#4e4c4c" height="19.200000000000003" rx="3.5999999999999996" ry="3.5999999999999996" transform="skewX(-15)" width="21.6" x="0" y="0"/>
    </g>
    <text dominant-baseline="central" fill="white" font-family="Consolas" font-size="14.399999999999999" text-anchor="middle" x="646.9999999999999" y="389.8">21</text>
    <g transform="translate(662.7723122473387,380.2)">
        <rect fill="#ed602e" height="19.200000000000003" rx="3.5999999999999996" ry="3.5999999999999996" transform="skewX(-15)" width="40.8" x="0" y="0"/>
    </g>
    <text dominant-baseline="central" fill="#423F42" font-family="Consolas" font-size="14.399999999999999" text-anchor="middle" x="680.5999999999999" y="389.8">?</text>
    <rect fill="#4e4c4c" height="2.4000000000000004" width="31.200000000000003" x="597.8" y="364.6"/>
    <g transform="translate(638.7723122473387,356.2)">
        <rect fill="#4e4c4c" height="19.200000000000003" rx="3.5999999999999996" ry="3.5999999999999996" transform="skewX(-15)" width="21.6" x="0" y="0"/>
    </g>
    <text dominant-baseline="central" fill="white" font-family="Consolas" font-size="14.399999999999999" text-anchor="middle" x="646.9999999999999" y="365.8">22</text>
    <g transform="translate(662.7723122473387,356.2)">
        <rect fill="#800000" height="19.200000000000003" rx="3.5999999999999996" ry="3.5999999999999996" transform="skewX(-15)" width="40.8" x="0" y="0"/>
    </g>
    <text dominant-baseline="central" fill="white" font-family="Consolas" font-size="14.399999999999999" text-anchor="middle" x="680.5999999999999" y="365.8">P1</text>
    <g transform="translate(705.9723122473388,356.2)">
        <rect fill="#dcd4ee" height="19.200000000000003" rx="3.5999999999999996" ry="3.5999999999999996" transform="skewX(-15)" width="40.8" x="0" y="0"/>
    </g>
    <text dominant-baseline="central" fill="#423F42" font-family="Consolas" font-size="14.399999999999999" text-anchor="middle" x="723.8000000000001" y="365.8">RX2</text>
    <g transform="translate(749.1723122473387,356.2)">
        <rect fill="#f95" height="19.200000000000003" rx="3.5999999999999996" ry="3.5999999999999996" transform="skewX(-15)" width="40.8" x="0" y="0"/>
    </g>
    <text dominant-baseline="central" fill="#423F42" font-family="Consolas" font-size="14.399999999999999" text-anchor="middle" x="767.0" y="365.8">SDA2</text>
</svg>
