<?xml version="1.0" encoding="utf-8" ?>
<svg xmlns="http://www.w3.org/2000/svg" xmlns:ev="http://www.w3.org/2001/xml-events" xmlns:xlink="http://www.w3.org/1999/xlink" baseProfile="full" height="500" version="1.1" viewBox="0,0,1024,500" width="1024">
    <defs/>
    <rect fill="white" height="500.0" stroke="black" stroke-width="1.2000000000000002" width="1024.0" x="0" y="0"/>
    <linearGradient gradientUnits="userSpaceOnUse" id="id1" x1="626.5999999999999" x2="435.79999999999995" y1="65.19999999999997" y2="351.99999999999994">
        <stop offset="0%" stop-color="#47a8cd"/>
        <stop offset="100%" stop-color="#008fb5"/>
    </linearGradient>
    <rect fill="url(#id1) none" height="286.79999999999995" rx="0" ry="0" stroke="#b5a739" stroke-width="1.2000000000000002" width="190.8" x="435.79999999999995" y="65.19999999999997"/>
    <linearGradient gradientUnits="userSpaceOnUse" id="id2" x1="612.8000000000001" x2="449.6" y1="148.0" y2="337.6">
        <stop offset="0%" stop-color="whitesmoke"/>
        <stop offset="100%" stop-color="#999"/>
    </linearGradient>
    <rect fill="url(#id2) none" height="189.60000000000002" rx="6.0" ry="6.0" width="163.2" x="449.6" y="148.0"/>
    <rect fill="#e5b472" height="14.399999999999999" id="esp12e-22.front.left.pin1.trace" rx="0" ry="0" width="8.399999999999999" x="435.2" y="159.39999999999998"/>
    <circle cx="435.2" cy="166.59999999999997" fill="#fff" id="esp12e-22.front.left.pin1.cast" r="4.199999999999999"/>
    <rect fill="#e5b472" height="14.399999999999999" id="esp12e-22.front.left.pin2.trace" rx="0" ry="0" width="8.399999999999999" x="435.2" y="183.39999999999998"/>
    <circle cx="435.2" cy="190.59999999999997" fill="#fff" id="esp12e-22.front.left.pin2.cast" r="4.199999999999999"/>
    <rect fill="#e5b472" height="14.399999999999999" id="esp12e-22.front.left.pin3.trace" rx="0" ry="0" width="8.399999999999999" x="435.2" y="207.39999999999998"/>
    <circle cx="435.2" cy="214.6" fill="#fff" id="esp12e-22.front.left.pin3.cast" r="4.199999999999999"/>
    <rect fill="#e5b472" height="14.399999999999999" id="esp12e-22.front.left.pin4.trace" rx="0" ry="0" width="8.399999999999999" x="435.2" y="231.39999999999998"/>
    <circle cx="435.2" cy="238.6" fill="#fff" id="esp12e-22.front.left.pin4.cast" r="4.199999999999999"/>
    <rect fill="#e5b472" height="14.399999999999999" id="esp12e-22.front.left.pin5.trace" rx="0" ry="0" width="8.399999999999999" x="435.2" y="255.39999999999998"/>
    <circle cx="435.2" cy="262.6" fill="#fff" id="esp12e-22.front.left.pin5.cast" r="4.199999999999999"/>
    <rect fill="#e5b472" height="14.399999999999999" id="esp12e-22.front.left.pin6.trace" rx="0" ry="0" width="8.399999999999999" x="435.2" y="279.4"/>
    <circle cx="435.2" cy="286.6" fill="#fff" id="esp12e-22.front.left.pin6.cast" r="4.199999999999999"/>
    <rect fill="#e5b472" height="14.399999999999999" id="esp12e-22.front.left.pin7.trace" rx="0" ry="0" width="8.399999999999999" x="435.2" y="303.4"/>
    <circle cx="435.2" cy="310.6" fill="#fff" id="esp12e-22.front.left.pin7.cast" r="4.199999999999999"/>
    <rect fill="#e5b472" height="14.399999999999999" id="esp12e-22.front.left.pin8.trace" rx="0" ry="0" width="8.399999999999999" x="435.2" y="327.4"/>
    <circle cx="435.2" cy="334.6" fill="#fff" id="esp12e-22.front.left.pin8.cast" r="4.199999999999999"/>
    <rect fill="#e5b472" height="14.399999999999999" id="esp12e-22.front.right.pin1.trace" rx="0" ry="0" width="8.399999999999999" x="618.8" y="159.39999999999998"/>
    <circle cx="627.2" cy="166.59999999999997" fill="#fff" id="esp12e-22.front.right.pin1.cast" r="4.199999999999999"/>
    <rect fill="#e5b472" height="14.399999999999999" id="esp12e-22.front.right.pin2.trace" rx="0" ry="0" width="8.399999999999999" x="618.8" y="183.39999999999998"/>
    <circle cx="627.2" cy="190.59999999999997" fill="#fff" id="esp12e-22.front.right.pin2.cast" r="4.199999999999999"/>
    <rect fill="#e5b472" height="14.399999999999999" id="esp12e-22.front.right.pin3.trace" rx="0" ry="0" width="8.399999999999999" x="618.8" y="207.39999999999998"/>
    <circle cx="627.2" cy="214.6" fill="#fff" id="esp12e-22.front.right.pin3.cast" r="4.199999999999999"/>
    <rect fill="#e5b472" height="14.399999999999999" id="esp12e-22.front.right.pin4.trace" rx="0" ry="0" width="8.399999999999999" x="618.8" y="231.39999999999998"/>
    <circle cx="627.2" cy="238.6" fill="#fff" id="esp12e-22.front.right.pin4.cast" r="4.199999999999999"/>
    <rect fill="#e5b472" height="14.399999999999999" id="esp12e-22.front.right.pin5.trace" rx="0" ry="0" width="8.399999999999999" x="618.8" y="255.39999999999998"/>
    <circle cx="627.2" cy="262.6" fill="#fff" id="esp12e-22.front.right.pin5.cast" r="4.199999999999999"/>
    <rect fill="#e5b472" height="14.399999999999999" id="esp12e-22.front.right.pin6.trace" rx="0" ry="0" width="8.399999999999999" x="618.8" y="279.4"/>
    <circle cx="627.2" cy="286.6" fill="#fff" id="esp12e-22.front.right.pin6.cast" r="4.199999999999999"/>
    <rect fill="#e5b472" height="14.399999999999999" id="esp12e-22.front.right.pin7.trace" rx="0" ry="0" width="8.399999999999999" x="618.8" y="303.4"/>
    <circle cx="627.2" cy="310.6" fill="#fff" id="esp12e-22.front.right.pin7.cast" r="4.199999999999999"/>
    <rect fill="#e5b472" height="14.399999999999999" id="esp12e-22.front.right.pin8.trace" rx="0" ry="0" width="8.399999999999999" x="618.8" y="327.4"/>
    <circle cx="627.2" cy="334.6" fill="#fff" id="esp12e-22.front.right.pin8.cast" r="4.199999999999999"/>
    <rect fill="#e5b472" height="8.399999999999999" id="r_pins_horz.pin1.trace" rx="0" ry="0" width="14.399999999999999" x="464.0" y="344.19999999999993"/>
    <circle cx="471.2" cy="352.6" fill="#fff" id="r_pins_horz.pin1.cast" r="4.199999999999999"/>
    <rect fill="#e5b472" height="8.399999999999999" id="r_pins_horz.pin2.trace" rx="0" ry="0" width="14.399999999999999" x="488.0" y="344.19999999999993"/>
    <circle cx="495.2" cy="352.6" fill="#fff" id="r_pins_horz.pin2.cast" r="4.199999999999999"/>
    <rect fill="#e5b472" height="8.399999999999999" id="r_pins_horz.pin3.trace" rx="0" ry="0" width="14.399999999999999" x="512.0" y="344.19999999999993"/>
    <circle cx="519.2" cy="352.6" fill="#fff" id="r_pins_horz.pin3.cast" r="4.199999999999999"/>
    <rect fill="#e5b472" height="8.399999999999999" id="r_pins_horz.pin4.trace" rx="0" ry="0" width="14.399999999999999" x="536.0" y="344.19999999999993"/>
    <circle cx="543.2" cy="352.6" fill="#fff" id="r_pins_horz.pin4.cast" r="4.199999999999999"/>
    <rect fill="#e5b472" height="8.399999999999999" id="r_pins_horz.pin5.trace" rx="0" ry="0" width="14.399999999999999" x="560.0" y="344.19999999999993"/>
    <circle cx="567.2" cy="352.6" fill="#fff" id="r_pins_horz.pin5.cast" r="4.199999999999999"/>
    <rect fill="#e5b472" height="8.399999999999999" id="r_pins_horz.pin6.trace" rx="0" ry="0" width="14.399999999999999" x="584.0" y="344.19999999999993"/>
    <circle cx="591.2" cy="352.6" fill="#fff" id="r_pins_horz.pin6.cast" r="4.199999999999999"/>
    <rect fill="#4e4c4c" height="24.0" rx="0" ry="0" width="2.4000000000000004" x="470.0" y="354.99999999999994"/>
    <rect fill="#4e4c4c" height="2.4000000000000004" rx="0" ry="0" width="2.4000000000000004" x="467.6" y="376.6"/>
    <rect height="0.0" id="esp12e-22.front.down.label1.anchor" rx="0" ry="0" width="0.0" x="908.8" y="442.4"/>
    <rect fill="#4e4c4c" height="48.0" rx="0" ry="0" width="2.4000000000000004" x="494.0" y="354.99999999999994"/>
    <rect fill="#4e4c4c" height="2.4000000000000004" rx="0" ry="0" width="26.400000000000002" x="467.6" y="400.6"/>
    <rect height="0.0" id="esp12e-22.front.down.label2.anchor" rx="0" ry="0" width="0.0" x="908.8" y="466.4"/>
    <rect fill="#4e4c4c" height="72.0" rx="0" ry="0" width="2.4000000000000004" x="518.0" y="354.99999999999994"/>
    <rect fill="#4e4c4c" height="2.4000000000000004" rx="0" ry="0" width="50.400000000000006" x="467.6" y="424.6"/>
    <rect height="0.0" id="esp12e-22.front.down.label3.anchor" rx="0" ry="0" width="0.0" x="908.8" y="490.4"/>
    <rect fill="#4e4c4c" height="72.0" rx="0" ry="0" width="2.4000000000000004" x="542.0" y="354.99999999999994"/>
    <rect fill="#4e4c4c" height="2.4000000000000004" rx="0" ry="0" width="50.400000000000006" x="543.2" y="424.6"/>
    <rect height="0.0" id="esp12e-22.front.down.label4.anchor" rx="0" ry="0" width="0.0" x="1022.8" y="490.4"/>
    <rect fill="#4e4c4c" height="48.0" rx="0" ry="0" width="2.4000000000000004" x="566.0" y="354.99999999999994"/>
    <rect fill="#4e4c4c" height="2.4000000000000004" rx="0" ry="0" width="26.400000000000002" x="567.2" y="400.6"/>
    <rect height="0.0" id="esp12e-22.front.down.label5.anchor" rx="0" ry="0" width="0.0" x="1022.8" y="466.4"/>
    <rect fill="#4e4c4c" height="24.0" rx="0" ry="0" width="2.4000000000000004" x="590.0" y="354.99999999999994"/>
    <rect fill="#4e4c4c" height="2.4000000000000004" rx="0" ry="0" width="2.4000000000000004" x="591.2" y="376.6"/>
    <rect height="0.0" id="esp12e-22.front.down.label6.anchor" rx="0" ry="0" width="0.0" x="1022.8" y="442.4"/>
    <rect fill="#fff" height="1.7999999999999998" rx="0" ry="0" width="180.0" x="441.2" y="139.0"/>
    <text fill="#fff" font-family="Consolas" font-size="12.0" x="519.2" y="130.59999999999997">WB3S</text>
    <rect fill="#58839b" height="62.400000000000006" rx="0" ry="0" width="6.0" x="448.4" y="74.19999999999997"/>
    <rect fill="#58839b" height="6.0" rx="0" ry="0" width="55.199999999999996" x="448.4" y="74.19999999999997"/>
    <rect fill="#58839b" height="62.400000000000006" rx="0" ry="0" width="6.0" x="474.79999999999995" y="74.19999999999997"/>
    <rect fill="#58839b" height="36.0" rx="0" ry="0" width="6.0" x="497.6" y="74.19999999999997"/>
    <rect fill="#58839b" height="6.0" rx="0" ry="0" width="36.0" x="497.6" y="104.19999999999996"/>
    <rect fill="#58839b" height="36.0" rx="0" ry="0" width="6.0" x="527.6" y="74.19999999999997"/>
    <rect fill="#58839b" height="6.0" rx="0" ry="0" width="32.400000000000006" x="527.6" y="74.19999999999997"/>
    <rect fill="#58839b" height="36.0" rx="0" ry="0" width="6.0" x="554.0" y="74.19999999999997"/>
    <rect fill="#58839b" height="6.0" rx="0" ry="0" width="36.0" x="554.0" y="104.19999999999996"/>
    <rect fill="#58839b" height="36.0" rx="0" ry="0" width="6.0" x="584.0" y="74.19999999999997"/>
    <rect fill="#58839b" height="6.0" rx="0" ry="0" width="30.0" x="584.0" y="74.19999999999997"/>
    <rect fill="#58839b" height="52.800000000000004" rx="0" ry="0" width="6.0" x="608.0" y="74.19999999999997"/>
    <rect fill="#4e4c4c" height="2.4000000000000004" width="31.200000000000003" x="398.0" y="165.39999999999998"/>
    <g transform="translate(371.77231224733873,156.99999999999997)">
        <rect fill="#4e4c4c" height="19.200000000000003" rx="3.5999999999999996" ry="3.5999999999999996" transform="skewX(-15)" width="21.6" x="0" y="0"/>
    </g>
    <text dominant-baseline="central" fill="white" font-family="Consolas" font-size="14.399999999999999" text-anchor="middle" x="380.0" y="166.59999999999997">1</text>
    <g transform="translate(328.57231224733874,156.99999999999997)">
        <rect fill="#ed602e" height="19.200000000000003" rx="3.5999999999999996" ry="3.5999999999999996" transform="skewX(-15)" width="40.8" x="0" y="0"/>
    </g>
    <text dominant-baseline="central" fill="#423F42" font-family="Consolas" font-size="14.399999999999999" text-anchor="middle" x="346.4" y="166.59999999999997">CEN</text>
    <rect fill="#4e4c4c" height="2.4000000000000004" width="31.200000000000003" x="398.0" y="189.39999999999998"/>
    <g transform="translate(371.77231224733873,180.99999999999997)">
        <rect fill="#4e4c4c" height="19.200000000000003" rx="3.5999999999999996" ry="3.5999999999999996" transform="skewX(-15)" width="21.6" x="0" y="0"/>
    </g>
    <text dominant-baseline="central" fill="white" font-family="Consolas" font-size="14.399999999999999" text-anchor="middle" x="380.0" y="190.59999999999997">2</text>
    <g transform="translate(328.57231224733874,180.99999999999997)">
        <rect fill="#800000" height="19.200000000000003" rx="3.5999999999999996" ry="3.5999999999999996" transform="skewX(-15)" width="40.8" x="0" y="0"/>
    </g>
    <text dominant-baseline="central" fill="white" font-family="Consolas" font-size="14.399999999999999" text-anchor="middle" x="346.4" y="190.59999999999997">P23</text>
    <g transform="translate(285.37231224733875,180.99999999999997)">
        <rect fill="#8ad039" height="19.200000000000003" rx="3.5999999999999996" ry="3.5999999999999996" transform="skewX(-15)" width="40.8" x="0" y="0"/>
    </g>
    <text dominant-baseline="central" fill="#423F42" font-family="Consolas" font-size="14.399999999999999" text-anchor="middle" x="303.2" y="190.59999999999997">ADC3</text>
    <g transform="translate(242.17231224733877,180.99999999999997)">
        <rect fill="#ffe680" height="19.200000000000003" rx="3.5999999999999996" ry="3.5999999999999996" transform="skewX(-15)" width="40.8" x="0" y="0"/>
    </g>
    <text dominant-baseline="central" fill="#423F42" font-family="Consolas" font-size="14.399999999999999" text-anchor="middle" x="260.0" y="190.59999999999997">TDO</text>
    <g transform="translate(198.97231224733878,180.99999999999997)">
        <rect fill="#f68a1e" height="19.200000000000003" rx="3.5999999999999996" ry="3.5999999999999996" transform="skewX(-15)" width="40.8" x="0" y="0"/>
    </g>
    <text dominant-baseline="central" fill="#423F42" font-family="Consolas" font-size="14.399999999999999" text-anchor="middle" x="216.8" y="190.59999999999997">FSO</text>
    <rect fill="#4e4c4c" height="2.4000000000000004" width="31.200000000000003" x="398.0" y="213.39999999999998"/>
    <g transform="translate(371.77231224733873,205.0)">
        <rect fill="#4e4c4c" height="19.200000000000003" rx="3.5999999999999996" ry="3.5999999999999996" transform="skewX(-15)" width="21.6" x="0" y="0"/>
    </g>
    <text dominant-baseline="central" fill="white" font-family="Consolas" font-size="14.399999999999999" text-anchor="middle" x="380.0" y="214.6">3</text>
    <rect fill="#4e4c4c" height="2.4000000000000004" width="31.200000000000003" x="398.0" y="237.39999999999998"/>
    <g transform="translate(371.77231224733873,229.0)">
        <rect fill="#4e4c4c" height="19.200000000000003" rx="3.5999999999999996" ry="3.5999999999999996" transform="skewX(-15)" width="21.6" x="0" y="0"/>
    </g>
    <text dominant-baseline="central" fill="white" font-family="Consolas" font-size="14.399999999999999" text-anchor="middle" x="380.0" y="238.6">4</text>
    <g transform="translate(328.57231224733874,229.0)">
        <rect fill="#800000" height="19.200000000000003" rx="3.5999999999999996" ry="3.5999999999999996" transform="skewX(-15)" width="40.8" x="0" y="0"/>
    </g>
    <text dominant-baseline="central" fill="white" font-family="Consolas" font-size="14.399999999999999" text-anchor="middle" x="346.4" y="238.6">P14</text>
    <rect fill="#4e4c4c" height="2.4000000000000004" width="31.200000000000003" x="398.0" y="261.4"/>
    <g transform="translate(371.77231224733873,253.0)">
        <rect fill="#4e4c4c" height="19.200000000000003" rx="3.5999999999999996" ry="3.5999999999999996" transform="skewX(-15)" width="21.6" x="0" y="0"/>
    </g>
    <text dominant-baseline="central" fill="white" font-family="Consolas" font-size="14.399999999999999" text-anchor="middle" x="380.0" y="262.6">5</text>
    <g transform="translate(328.57231224733874,253.0)">
        <rect fill="#800000" height="19.200000000000003" rx="3.5999999999999996" ry="3.5999999999999996" transform="skewX(-15)" width="40.8" x="0" y="0"/>
    </g>
    <text dominant-baseline="central" fill="white" font-family="Consolas" font-size="14.399999999999999" text-anchor="middle" x="346.4" y="262.6">P26</text>
    <g transform="translate(285.37231224733875,253.0)">
        <rect fill="#aeafc1" height="19.200000000000003" rx="3.5999999999999996" ry="3.5999999999999996" transform="skewX(-15)" width="40.8" x="0" y="0"/>
    </g>
    <text dominant-baseline="central" fill="#423F42" font-family="Consolas" font-size="14.399999999999999" text-anchor="middle" x="303.2" y="262.6">IRDA</text>
    <g transform="translate(242.17231224733877,253.0)">
        <rect fill="#afa35e" height="19.200000000000003" rx="3.5999999999999996" ry="3.5999999999999996" transform="skewX(-15)" width="40.8" x="0" y="0"/>
    </g>
    <text dominant-baseline="central" fill="#423F42" font-family="Consolas" font-size="14.399999999999999" text-anchor="middle" x="260.0" y="262.6">PWM5</text>
    <rect fill="#4e4c4c" height="2.4000000000000004" width="31.200000000000003" x="398.0" y="285.4"/>
    <g transform="translate(371.77231224733873,277.0)">
        <rect fill="#4e4c4c" height="19.200000000000003" rx="3.5999999999999996" ry="3.5999999999999996" transform="skewX(-15)" width="21.6" x="0" y="0"/>
    </g>
    <text dominant-baseline="central" fill="white" font-family="Consolas" font-size="14.399999999999999" text-anchor="middle" x="380.0" y="286.6">6</text>
    <g transform="translate(328.57231224733874,277.0)">
        <rect fill="#800000" height="19.200000000000003" rx="3.5999999999999996" ry="3.5999999999999996" transform="skewX(-15)" width="40.8" x="0" y="0"/>
    </g>
    <text dominant-baseline="central" fill="white" font-family="Consolas" font-size="14.399999999999999" text-anchor="middle" x="346.4" y="286.6">P24</text>
    <g transform="translate(285.37231224733875,277.0)">
        <rect fill="#afa35e" height="19.200000000000003" rx="3.5999999999999996" ry="3.5999999999999996" transform="skewX(-15)" width="40.8" x="0" y="0"/>
    </g>
    <text dominant-baseline="central" fill="#423F42" font-family="Consolas" font-size="14.399999999999999" text-anchor="middle" x="303.2" y="286.6">PWM4</text>
    <rect fill="#4e4c4c" height="2.4000000000000004" width="31.200000000000003" x="398.0" y="309.4"/>
    <g transform="translate(371.77231224733873,301.0)">
        <rect fill="#4e4c4c" height="19.200000000000003" rx="3.5999999999999996" ry="3.5999999999999996" transform="skewX(-15)" width="21.6" x="0" y="0"/>
    </g>
    <text dominant-baseline="central" fill="white" font-family="Consolas" font-size="14.399999999999999" text-anchor="middle" x="380.0" y="310.6">7</text>
    <g transform="translate(328.57231224733874,301.0)">
        <rect fill="#800000" height="19.200000000000003" rx="3.5999999999999996" ry="3.5999999999999996" transform="skewX(-15)" width="40.8" x="0" y="0"/>
    </g>
    <text dominant-baseline="central" fill="white" font-family="Consolas" font-size="14.399999999999999" text-anchor="middle" x="346.4" y="310.6">P6</text>
    <g transform="translate(285.37231224733875,301.0)">
        <rect fill="#afa35e" height="19.200000000000003" rx="3.5999999999999996" ry="3.5999999999999996" transform="skewX(-15)" width="40.8" x="0" y="0"/>
    </g>
    <text dominant-baseline="central" fill="#423F42" font-family="Consolas" font-size="14.399999999999999" text-anchor="middle" x="303.2" y="310.6">PWM0</text>
    <rect fill="#4e4c4c" height="2.4000000000000004" width="31.200000000000003" x="398.0" y="333.4"/>
    <g transform="translate(371.77231224733873,325.0)">
        <rect fill="#4e4c4c" height="19.200000000000003" rx="3.5999999999999996" ry="3.5999999999999996" transform="skewX(-15)" width="21.6" x="0" y="0"/>
    </g>
    <text dominant-baseline="central" fill="white" font-family="Consolas" font-size="14.399999999999999" text-anchor="middle" x="380.0" y="334.6">8</text>
    <g transform="translate(328.57231224733874,325.0)">
        <rect fill="#cd3c24" height="19.200000000000003" rx="3.5999999999999996" ry="3.5999999999999996" transform="skewX(-15)" width="40.8" x="0" y="0"/>
    </g>
    <text dominant-baseline="central" fill="white" font-family="Consolas" font-size="14.399999999999999" text-anchor="middle" x="346.4" y="334.6">3V3</text>
    <rect fill="#4e4c4c" height="2.4000000000000004" width="31.200000000000003" x="633.2" y="333.4"/>
    <g transform="translate(674.1723122473388,325.0)">
        <rect fill="#4e4c4c" height="19.200000000000003" rx="3.5999999999999996" ry="3.5999999999999996" transform="skewX(-15)" width="21.6" x="0" y="0"/>
    </g>
    <text dominant-baseline="central" fill="white" font-family="Consolas" font-size="14.399999999999999" text-anchor="middle" x="682.4" y="334.6">9</text>
    <g transform="translate(698.1723122473388,325.0)">
        <rect fill="#000" height="19.200000000000003" rx="3.5999999999999996" ry="3.5999999999999996" transform="skewX(-15)" width="40.8" x="0" y="0"/>
    </g>
    <text dominant-baseline="central" fill="white" font-family="Consolas" font-size="14.399999999999999" text-anchor="middle" x="716.0" y="334.6">GND</text>
    <rect fill="#4e4c4c" height="2.4000000000000004" width="31.200000000000003" x="633.2" y="309.4"/>
    <g transform="translate(674.1723122473388,301.0)">
        <rect fill="#4e4c4c" height="19.200000000000003" rx="3.5999999999999996" ry="3.5999999999999996" transform="skewX(-15)" width="21.6" x="0" y="0"/>
    </g>
    <text dominant-baseline="central" fill="white" font-family="Consolas" font-size="14.399999999999999" text-anchor="middle" x="682.4" y="310.6">10</text>
    <g transform="translate(698.1723122473388,301.0)">
        <rect fill="#800000" height="19.200000000000003" rx="3.5999999999999996" ry="3.5999999999999996" transform="skewX(-15)" width="40.8" x="0" y="0"/>
    </g>
    <text dominant-baseline="central" fill="white" font-family="Consolas" font-size="14.399999999999999" text-anchor="middle" x="716.0" y="310.6">P7</text>
    <g transform="translate(741.3723122473389,301.0)">
        <rect fill="#afa35e" height="19.200000000000003" rx="3.5999999999999996" ry="3.5999999999999996" transform="skewX(-15)" width="40.8" x="0" y="0"/>
    </g>
    <text dominant-baseline="central" fill="#423F42" font-family="Consolas" font-size="14.399999999999999" text-anchor="middle" x="759.2" y="310.6">PWM1</text>
    <rect fill="#4e4c4c" height="2.4000000000000004" width="31.200000000000003" x="633.2" y="285.4"/>
    <g transform="translate(674.1723122473388,277.0)">
        <rect fill="#4e4c4c" height="19.200000000000003" rx="3.5999999999999996" ry="3.5999999999999996" transform="skewX(-15)" width="21.6" x="0" y="0"/>
    </g>
    <text dominant-baseline="central" fill="white" font-family="Consolas" font-size="14.399999999999999" text-anchor="middle" x="682.4" y="286.6">11</text>
    <g transform="translate(698.1723122473388,277.0)">
        <rect fill="#800000" height="19.200000000000003" rx="3.5999999999999996" ry="3.5999999999999996" transform="skewX(-15)" width="40.8" x="0" y="0"/>
    </g>
    <text dominant-baseline="central" fill="white" font-family="Consolas" font-size="14.399999999999999" text-anchor="middle" x="716.0" y="286.6">P0</text>
    <g transform="translate(741.3723122473389,277.0)">
        <rect fill="#dcd4ee" height="19.200000000000003" rx="3.5999999999999996" ry="3.5999999999999996" transform="skewX(-15)" width="40.8" x="0" y="0"/>
    </g>
    <text dominant-baseline="central" fill="#423F42" font-family="Consolas" font-size="14.399999999999999" text-anchor="middle" x="759.2" y="286.6">TX2</text>
    <g transform="translate(784.5723122473387,277.0)">
        <rect fill="#f95" height="19.200000000000003" rx="3.5999999999999996" ry="3.5999999999999996" transform="skewX(-15)" width="40.8" x="0" y="0"/>
    </g>
    <text dominant-baseline="central" fill="#423F42" font-family="Consolas" font-size="14.399999999999999" text-anchor="middle" x="802.3999999999999" y="286.6">SCL2</text>
    <rect fill="#4e4c4c" height="2.4000000000000004" width="31.200000000000003" x="633.2" y="261.4"/>
    <g transform="translate(674.1723122473388,253.0)">
        <rect fill="#4e4c4c" height="19.200000000000003" rx="3.5999999999999996" ry="3.5999999999999996" transform="skewX(-15)" width="21.6" x="0" y="0"/>
    </g>
    <text dominant-baseline="central" fill="white" font-family="Consolas" font-size="14.399999999999999" text-anchor="middle" x="682.4" y="262.6">12</text>
    <g transform="translate(698.1723122473388,253.0)">
        <rect fill="#800000" height="19.200000000000003" rx="3.5999999999999996" ry="3.5999999999999996" transform="skewX(-15)" width="40.8" x="0" y="0"/>
    </g>
    <text dominant-baseline="central" fill="white" font-family="Consolas" font-size="14.399999999999999" text-anchor="middle" x="716.0" y="262.6">P1</text>
    <g transform="translate(741.3723122473389,253.0)">
        <rect fill="#dcd4ee" height="19.200000000000003" rx="3.5999999999999996" ry="3.5999999999999996" transform="skewX(-15)" width="40.8" x="0" y="0"/>
    </g>
    <text dominant-baseline="central" fill="#423F42" font-family="Consolas" font-size="14.399999999999999" text-anchor="middle" x="759.2" y="262.6">RX2</text>
    <g transform="translate(784.5723122473387,253.0)">
        <rect fill="#f95" height="19.200000000000003" rx="3.5999999999999996" ry="3.5999999999999996" transform="skewX(-15)" width="40.8" x="0" y="0"/>
    </g>
    <text dominant-baseline="central" fill="#423F42" font-family="Consolas" font-size="14.399999999999999" text-anchor="middle" x="802.3999999999999" y="262.6">SDA2</text>
    <rect fill="#4e4c4c" height="2.4000000000000004" width="31.200000000000003" x="633.2" y="237.39999999999998"/>
    <g transform="translate(674.1723122473388,229.0)">
        <rect fill="#4e4c4c" height="19.200000000000003" rx="3.5999999999999996" ry="3.5999999999999996" transform="skewX(-15)" width="21.6" x="0" y="0"/>
    </g>
    <text dominant-baseline="central" fill="white" font-family="Consolas" font-size="14.399999999999999" text-anchor="middle" x="682.4" y="238.6">13</text>
    <g transform="translate(698.1723122473388,229.0)">
        <rect fill="#800000" height="19.200000000000003" rx="3.5999999999999996" ry="3.5999999999999996" transform="skewX(-15)" width="40.8" x="0" y="0"/>
    </g>
    <text dominant-baseline="central" fill="white" font-family="Consolas" font-size="14.399999999999999" text-anchor="middle" x="716.0" y="238.6">P9</text>
    <g transform="translate(741.3723122473389,229.0)">
        <rect fill="#afa35e" height="19.200000000000003" rx="3.5999999999999996" ry="3.5999999999999996" transform="skewX(-15)" width="40.8" x="0" y="0"/>
    </g>
    <text dominant-baseline="central" fill="#423F42" font-family="Consolas" font-size="14.399999999999999" text-anchor="middle" x="759.2" y="238.6">PWM3</text>
    <rect fill="#4e4c4c" height="2.4000000000000004" width="31.200000000000003" x="633.2" y="213.39999999999998"/>
    <g transform="translate(674.1723122473388,205.0)">
        <rect fill="#4e4c4c" height="19.200000000000003" rx="3.5999999999999996" ry="3.5999999999999996" transform="skewX(-15)" width="21.6" x="0" y="0"/>
    </g>
    <text dominant-baseline="central" fill="white" font-family="Consolas" font-size="14.399999999999999" text-anchor="middle" x="682.4" y="214.6">14</text>
    <g transform="translate(698.1723122473388,205.0)">
        <rect fill="#800000" height="19.200000000000003" rx="3.5999999999999996" ry="3.5999999999999996" transform="skewX(-15)" width="40.8" x="0" y="0"/>
    </g>
    <text dominant-baseline="central" fill="white" font-family="Consolas" font-size="14.399999999999999" text-anchor="middle" x="716.0" y="214.6">P8</text>
    <g transform="translate(741.3723122473389,205.0)">
        <rect fill="#afa35e" height="19.200000000000003" rx="3.5999999999999996" ry="3.5999999999999996" transform="skewX(-15)" width="40.8" x="0" y="0"/>
    </g>
    <text dominant-baseline="central" fill="#423F42" font-family="Consolas" font-size="14.399999999999999" text-anchor="middle" x="759.2" y="214.6">PWM2</text>
    <rect fill="#4e4c4c" height="2.4000000000000004" width="31.200000000000003" x="633.2" y="189.39999999999998"/>
    <g transform="translate(674.1723122473388,180.99999999999997)">
        <rect fill="#4e4c4c" height="19.200000000000003" rx="3.5999999999999996" ry="3.5999999999999996" transform="skewX(-15)" width="21.6" x="0" y="0"/>
    </g>
    <text dominant-baseline="central" fill="white" font-family="Consolas" font-size="14.399999999999999" text-anchor="middle" x="682.4" y="190.59999999999997">15</text>
    <g transform="translate(698.1723122473388,180.99999999999997)">
        <rect fill="#800000" height="19.200000000000003" rx="3.5999999999999996" ry="3.5999999999999996" transform="skewX(-15)" width="40.8" x="0" y="0"/>
    </g>
    <text dominant-baseline="central" fill="white" font-family="Consolas" font-size="14.399999999999999" text-anchor="middle" x="716.0" y="190.59999999999997">P10</text>
    <g transform="translate(741.3723122473389,180.99999999999997)">
        <rect fill="#dcd4ee" height="19.200000000000003" rx="3.5999999999999996" ry="3.5999999999999996" transform="skewX(-15)" width="40.8" x="0" y="0"/>
    </g>
    <text dominant-baseline="central" fill="#423F42" font-family="Consolas" font-size="14.399999999999999" text-anchor="middle" x="759.2" y="190.59999999999997">RX1</text>
    <rect fill="#4e4c4c" height="2.4000000000000004" width="31.200000000000003" x="633.2" y="165.39999999999998"/>
    <g transform="translate(674.1723122473388,156.99999999999997)">
        <rect fill="#4e4c4c" height="19.200000000000003" rx="3.5999999999999996" ry="3.5999999999999996" transform="skewX(-15)" width="21.6" x="0" y="0"/>
    </g>
    <text dominant-baseline="central" fill="white" font-family="Consolas" font-size="14.399999999999999" text-anchor="middle" x="682.4" y="166.59999999999997">16</text>
    <g transform="translate(698.1723122473388,156.99999999999997)">
        <rect fill="#800000" height="19.200000000000003" rx="3.5999999999999996" ry="3.5999999999999996" transform="skewX(-15)" width="40.8" x="0" y="0"/>
    </g>
    <text dominant-baseline="central" fill="white" font-family="Consolas" font-size="14.399999999999999" text-anchor="middle" x="716.0" y="166.59999999999997">P11</text>
    <g transform="translate(741.3723122473389,156.99999999999997)">
        <rect fill="#dcd4ee" height="19.200000000000003" rx="3.5999999999999996" ry="3.5999999999999996" transform="skewX(-15)" width="40.8" x="0" y="0"/>
    </g>
    <text dominant-baseline="central" fill="#423F42" font-family="Consolas" font-size="14.399999999999999" text-anchor="middle" x="759.2" y="166.59999999999997">TX1</text>
    <rect fill="#4e4c4c" height="2.4000000000000004" width="31.200000000000003" x="436.4" y="376.6"/>
    <g transform="translate(410.1723122473388,368.2)">
        <rect fill="#4e4c4c" height="19.200000000000003" rx="3.5999999999999996" ry="3.5999999999999996" transform="skewX(-15)" width="21.6" x="0" y="0"/>
    </g>
    <text dominant-baseline="central" fill="white" font-family="Consolas" font-size="14.399999999999999" text-anchor="middle" x="418.4" y="377.8">17</text>
    <g transform="translate(366.9723122473388,368.2)">
        <rect fill="#800000" height="19.200000000000003" rx="3.5999999999999996" ry="3.5999999999999996" transform="skewX(-15)" width="40.8" x="0" y="0"/>
    </g>
    <text dominant-baseline="central" fill="white" font-family="Consolas" font-size="14.399999999999999" text-anchor="middle" x="384.80000000000007" y="377.8">P23</text>
    <g transform="translate(323.77231224733873,368.2)">
        <rect fill="#8ad039" height="19.200000000000003" rx="3.5999999999999996" ry="3.5999999999999996" transform="skewX(-15)" width="40.8" x="0" y="0"/>
    </g>
    <text dominant-baseline="central" fill="#423F42" font-family="Consolas" font-size="14.399999999999999" text-anchor="middle" x="341.59999999999997" y="377.8">ADC3</text>
    <g transform="translate(280.57231224733874,368.2)">
        <rect fill="#ffe680" height="19.200000000000003" rx="3.5999999999999996" ry="3.5999999999999996" transform="skewX(-15)" width="40.8" x="0" y="0"/>
    </g>
    <text dominant-baseline="central" fill="#423F42" font-family="Consolas" font-size="14.399999999999999" text-anchor="middle" x="298.4" y="377.8">TDO</text>
    <g transform="translate(237.37231224733875,368.2)">
        <rect fill="#f68a1e" height="19.200000000000003" rx="3.5999999999999996" ry="3.5999999999999996" transform="skewX(-15)" width="40.8" x="0" y="0"/>
    </g>
    <text dominant-baseline="central" fill="#423F42" font-family="Consolas" font-size="14.399999999999999" text-anchor="middle" x="255.2" y="377.8">FSO</text>
    <rect fill="#4e4c4c" height="2.4000000000000004" width="31.200000000000003" x="436.4" y="400.6"/>
    <g transform="translate(410.1723122473388,392.20000000000005)">
        <rect fill="#4e4c4c" height="19.200000000000003" rx="3.5999999999999996" ry="3.5999999999999996" transform="skewX(-15)" width="21.6" x="0" y="0"/>
    </g>
    <text dominant-baseline="central" fill="white" font-family="Consolas" font-size="14.399999999999999" text-anchor="middle" x="418.4" y="401.8">18</text>
    <g transform="translate(366.9723122473388,392.20000000000005)">
        <rect fill="#800000" height="19.200000000000003" rx="3.5999999999999996" ry="3.5999999999999996" transform="skewX(-15)" width="40.8" x="0" y="0"/>
    </g>
    <text dominant-baseline="central" fill="white" font-family="Consolas" font-size="14.399999999999999" text-anchor="middle" x="384.80000000000007" y="401.8">P22</text>
    <g transform="translate(323.77231224733873,392.20000000000005)">
        <rect fill="#ffe680" height="19.200000000000003" rx="3.5999999999999996" ry="3.5999999999999996" transform="skewX(-15)" width="40.8" x="0" y="0"/>
    </g>
    <text dominant-baseline="central" fill="#423F42" font-family="Consolas" font-size="14.399999999999999" text-anchor="middle" x="341.59999999999997" y="401.8">TDI</text>
    <g transform="translate(280.57231224733874,392.20000000000005)">
        <rect fill="#f68a1e" height="19.200000000000003" rx="3.5999999999999996" ry="3.5999999999999996" transform="skewX(-15)" width="40.8" x="0" y="0"/>
    </g>
    <text dominant-baseline="central" fill="#423F42" font-family="Consolas" font-size="14.399999999999999" text-anchor="middle" x="298.4" y="401.8">FSI</text>
    <rect fill="#4e4c4c" height="2.4000000000000004" width="31.200000000000003" x="436.4" y="424.6"/>
    <g transform="translate(410.1723122473388,416.20000000000005)">
        <rect fill="#4e4c4c" height="19.200000000000003" rx="3.5999999999999996" ry="3.5999999999999996" transform="skewX(-15)" width="21.6" x="0" y="0"/>
    </g>
    <text dominant-baseline="central" fill="white" font-family="Consolas" font-size="14.399999999999999" text-anchor="middle" x="418.4" y="425.8">19</text>
    <g transform="translate(366.9723122473388,416.20000000000005)">
        <rect fill="#800000" height="19.200000000000003" rx="3.5999999999999996" ry="3.5999999999999996" transform="skewX(-15)" width="40.8" x="0" y="0"/>
    </g>
    <text dominant-baseline="central" fill="white" font-family="Consolas" font-size="14.399999999999999" text-anchor="middle" x="384.80000000000007" y="425.8">P21</text>
    <g transform="translate(323.77231224733873,416.20000000000005)">
        <rect fill="#f95" height="19.200000000000003" rx="3.5999999999999996" ry="3.5999999999999996" transform="skewX(-15)" width="40.8" x="0" y="0"/>
    </g>
    <text dominant-baseline="central" fill="#423F42" font-family="Consolas" font-size="14.399999999999999" text-anchor="middle" x="341.59999999999997" y="425.8">SDA1</text>
    <g transform="translate(280.57231224733874,416.20000000000005)">
        <rect fill="#ffe680" height="19.200000000000003" rx="3.5999999999999996" ry="3.5999999999999996" transform="skewX(-15)" width="40.8" x="0" y="0"/>
    </g>
    <text dominant-baseline="central" fill="#423F42" font-family="Consolas" font-size="14.399999999999999" text-anchor="middle" x="298.4" y="425.8">TMS</text>
    <g transform="translate(237.37231224733875,416.20000000000005)">
        <rect fill="#f68a1e" height="19.200000000000003" rx="3.5999999999999996" ry="3.5999999999999996" transform="skewX(-15)" width="40.8" x="0" y="0"/>
    </g>
    <text dominant-baseline="middle" fill="#423F42" font-family="Consolas" font-size="14.399999999999999" text-anchor="middle" x="255.2" y="413.6500000000001">___</text>
    <text dominant-baseline="central" fill="#423F42" font-family="Consolas" font-size="14.399999999999999" text-anchor="middle" x="255.2" y="427.07500000000005">FCS</text>
    <rect fill="#4e4c4c" height="2.4000000000000004" width="31.200000000000003" x="593.6" y="424.6"/>
    <g transform="translate(634.5723122473388,416.20000000000005)">
        <rect fill="#4e4c4c" height="19.200000000000003" rx="3.5999999999999996" ry="3.5999999999999996" transform="skewX(-15)" width="21.6" x="0" y="0"/>
    </g>
    <text dominant-baseline="central" fill="white" font-family="Consolas" font-size="14.399999999999999" text-anchor="middle" x="642.8" y="425.8">20</text>
    <g transform="translate(658.5723122473388,416.20000000000005)">
        <rect fill="#800000" height="19.200000000000003" rx="3.5999999999999996" ry="3.5999999999999996" transform="skewX(-15)" width="40.8" x="0" y="0"/>
    </g>
    <text dominant-baseline="central" fill="white" font-family="Consolas" font-size="14.399999999999999" text-anchor="middle" x="676.4" y="425.8">P20</text>
    <g transform="translate(701.7723122473388,416.20000000000005)">
        <rect fill="#f95" height="19.200000000000003" rx="3.5999999999999996" ry="3.5999999999999996" transform="skewX(-15)" width="40.8" x="0" y="0"/>
    </g>
    <text dominant-baseline="central" fill="#423F42" font-family="Consolas" font-size="14.399999999999999" text-anchor="middle" x="719.6000000000001" y="425.8">SCL1</text>
    <g transform="translate(744.9723122473388,416.20000000000005)">
        <rect fill="#ffe680" height="19.200000000000003" rx="3.5999999999999996" ry="3.5999999999999996" transform="skewX(-15)" width="40.8" x="0" y="0"/>
    </g>
    <text dominant-baseline="central" fill="#423F42" font-family="Consolas" font-size="14.399999999999999" text-anchor="middle" x="762.8000000000001" y="425.8">TCK</text>
    <g transform="translate(788.1723122473388,416.20000000000005)">
        <rect fill="#f68a1e" height="19.200000000000003" rx="3.5999999999999996" ry="3.5999999999999996" transform="skewX(-15)" width="40.8" x="0" y="0"/>
    </g>
    <text dominant-baseline="central" fill="#423F42" font-family="Consolas" font-size="14.399999999999999" text-anchor="middle" x="806.0" y="425.8">FSCK</text>
    <rect fill="#4e4c4c" height="2.4000000000000004" width="31.200000000000003" x="593.6" y="400.6"/>
    <g transform="translate(634.5723122473388,392.20000000000005)">
        <rect fill="#4e4c4c" height="19.200000000000003" rx="3.5999999999999996" ry="3.5999999999999996" transform="skewX(-15)" width="21.6" x="0" y="0"/>
    </g>
    <text dominant-baseline="central" fill="white" font-family="Consolas" font-size="14.399999999999999" text-anchor="middle" x="642.8" y="401.8">21</text>
    <rect fill="#4e4c4c" height="2.4000000000000004" width="31.200000000000003" x="593.6" y="376.6"/>
    <g transform="translate(634.5723122473388,368.2)">
        <rect fill="#4e4c4c" height="19.200000000000003" rx="3.5999999999999996" ry="3.5999999999999996" transform="skewX(-15)" width="21.6" x="0" y="0"/>
    </g>
    <text dominant-baseline="central" fill="white" font-family="Consolas" font-size="14.399999999999999" text-anchor="middle" x="642.8" y="377.8">22</text>
</svg>
