<?xml version="1.0" encoding="utf-8" ?>
<svg xmlns="http://www.w3.org/2000/svg" xmlns:ev="http://www.w3.org/2001/xml-events" xmlns:xlink="http://www.w3.org/1999/xlink" baseProfile="full" height="500" version="1.1" viewBox="0,0,1024,500" width="1024">
    <defs/>
    <rect fill="white" height="500.0" stroke="black" stroke-width="1.2000000000000002" width="1024.0" x="0" y="0"/>
    <linearGradient gradientUnits="userSpaceOnUse" id="id1" x1="563.5999999999999" x2="372.7999999999999" y1="106.6" y2="393.4">
        <stop offset="0%" stop-color="#4d4d4d"/>
        <stop offset="100%" stop-color="#0f0f0f"/>
    </linearGradient>
    <rect fill="url(#id1) none" height="286.79999999999995" rx="0" ry="0" stroke="#b5a739" stroke-width="1.2000000000000002" width="190.8" x="372.7999999999999" y="106.6"/>
    <linearGradient gradientUnits="userSpaceOnUse" id="id2" x1="549.8" x2="386.5999999999999" y1="189.39999999999998" y2="390.99999999999994">
        <stop offset="0%" stop-color="whitesmoke"/>
        <stop offset="100%" stop-color="#999"/>
    </linearGradient>
    <rect fill="url(#id2) none" height="201.60000000000002" rx="6.0" ry="6.0" width="163.2" x="386.5999999999999" y="189.39999999999998"/>
    <rect fill="#e5b472" height="14.399999999999999" id="esp12s.front.left.pin1.trace" rx="0" ry="0" width="8.399999999999999" x="372.19999999999993" y="200.8"/>
    <circle cx="372.19999999999993" cy="208.0" fill="#fff" id="esp12s.front.left.pin1.cast" r="4.199999999999999"/>
    <rect fill="#e5b472" height="14.399999999999999" id="esp12s.front.left.pin2.trace" rx="0" ry="0" width="8.399999999999999" x="372.19999999999993" y="224.8"/>
    <circle cx="372.19999999999993" cy="232.0" fill="#fff" id="esp12s.front.left.pin2.cast" r="4.199999999999999"/>
    <rect fill="#e5b472" height="14.399999999999999" id="esp12s.front.left.pin3.trace" rx="0" ry="0" width="8.399999999999999" x="372.19999999999993" y="248.8"/>
    <circle cx="372.19999999999993" cy="256.0" fill="#fff" id="esp12s.front.left.pin3.cast" r="4.199999999999999"/>
    <rect fill="#e5b472" height="14.399999999999999" id="esp12s.front.left.pin4.trace" rx="0" ry="0" width="8.399999999999999" x="372.19999999999993" y="272.8"/>
    <circle cx="372.19999999999993" cy="280.0" fill="#fff" id="esp12s.front.left.pin4.cast" r="4.199999999999999"/>
    <rect fill="#e5b472" height="14.399999999999999" id="esp12s.front.left.pin5.trace" rx="0" ry="0" width="8.399999999999999" x="372.19999999999993" y="296.8"/>
    <circle cx="372.19999999999993" cy="304.0" fill="#fff" id="esp12s.front.left.pin5.cast" r="4.199999999999999"/>
    <rect fill="#e5b472" height="14.399999999999999" id="esp12s.front.left.pin6.trace" rx="0" ry="0" width="8.399999999999999" x="372.19999999999993" y="320.79999999999995"/>
    <circle cx="372.19999999999993" cy="328.0" fill="#fff" id="esp12s.front.left.pin6.cast" r="4.199999999999999"/>
    <rect fill="#e5b472" height="14.399999999999999" id="esp12s.front.left.pin7.trace" rx="0" ry="0" width="8.399999999999999" x="372.19999999999993" y="344.79999999999995"/>
    <circle cx="372.19999999999993" cy="352.0" fill="#fff" id="esp12s.front.left.pin7.cast" r="4.199999999999999"/>
    <rect fill="#e5b472" height="14.399999999999999" id="esp12s.front.left.pin8.trace" rx="0" ry="0" width="8.399999999999999" x="372.19999999999993" y="368.79999999999995"/>
    <circle cx="372.19999999999993" cy="376.0" fill="#fff" id="esp12s.front.left.pin8.cast" r="4.199999999999999"/>
    <rect fill="#e5b472" height="14.399999999999999" id="esp12s.front.right.pin1.trace" rx="0" ry="0" width="8.399999999999999" x="555.8" y="200.8"/>
    <circle cx="564.1999999999999" cy="208.0" fill="#fff" id="esp12s.front.right.pin1.cast" r="4.199999999999999"/>
    <rect fill="#e5b472" height="14.399999999999999" id="esp12s.front.right.pin2.trace" rx="0" ry="0" width="8.399999999999999" x="555.8" y="224.8"/>
    <circle cx="564.1999999999999" cy="232.0" fill="#fff" id="esp12s.front.right.pin2.cast" r="4.199999999999999"/>
    <rect fill="#e5b472" height="14.399999999999999" id="esp12s.front.right.pin3.trace" rx="0" ry="0" width="8.399999999999999" x="555.8" y="248.8"/>
    <circle cx="564.1999999999999" cy="256.0" fill="#fff" id="esp12s.front.right.pin3.cast" r="4.199999999999999"/>
    <rect fill="#e5b472" height="14.399999999999999" id="esp12s.front.right.pin4.trace" rx="0" ry="0" width="8.399999999999999" x="555.8" y="272.8"/>
    <circle cx="564.1999999999999" cy="280.0" fill="#fff" id="esp12s.front.right.pin4.cast" r="4.199999999999999"/>
    <rect fill="#e5b472" height="14.399999999999999" id="esp12s.front.right.pin5.trace" rx="0" ry="0" width="8.399999999999999" x="555.8" y="296.8"/>
    <circle cx="564.1999999999999" cy="304.0" fill="#fff" id="esp12s.front.right.pin5.cast" r="4.199999999999999"/>
    <rect fill="#e5b472" height="14.399999999999999" id="esp12s.front.right.pin6.trace" rx="0" ry="0" width="8.399999999999999" x="555.8" y="320.79999999999995"/>
    <circle cx="564.1999999999999" cy="328.0" fill="#fff" id="esp12s.front.right.pin6.cast" r="4.199999999999999"/>
    <rect fill="#e5b472" height="14.399999999999999" id="esp12s.front.right.pin7.trace" rx="0" ry="0" width="8.399999999999999" x="555.8" y="344.79999999999995"/>
    <circle cx="564.1999999999999" cy="352.0" fill="#fff" id="esp12s.front.right.pin7.cast" r="4.199999999999999"/>
    <rect fill="#e5b472" height="14.399999999999999" id="esp12s.front.right.pin8.trace" rx="0" ry="0" width="8.399999999999999" x="555.8" y="368.79999999999995"/>
    <circle cx="564.1999999999999" cy="376.0" fill="#fff" id="esp12s.front.right.pin8.cast" r="4.199999999999999"/>
    <rect fill="#fff" height="1.7999999999999998" rx="0" ry="0" width="180.0" x="378.19999999999993" y="180.39999999999998"/>
    <text fill="#fff" font-family="Consolas" font-size="12.0" x="456.19999999999993" y="172.0">WR3N</text>
    <rect fill="#505050" height="62.400000000000006" rx="0" ry="0" width="6.0" x="385.3999999999999" y="115.6"/>
    <rect fill="#505050" height="6.0" rx="0" ry="0" width="55.199999999999996" x="385.3999999999999" y="115.6"/>
    <rect fill="#505050" height="62.400000000000006" rx="0" ry="0" width="6.0" x="411.79999999999984" y="115.6"/>
    <rect fill="#505050" height="36.0" rx="0" ry="0" width="6.0" x="434.5999999999999" y="115.6"/>
    <rect fill="#505050" height="6.0" rx="0" ry="0" width="36.0" x="434.5999999999999" y="145.6"/>
    <rect fill="#505050" height="36.0" rx="0" ry="0" width="6.0" x="464.5999999999999" y="115.6"/>
    <rect fill="#505050" height="6.0" rx="0" ry="0" width="32.400000000000006" x="464.5999999999999" y="115.6"/>
    <rect fill="#505050" height="36.0" rx="0" ry="0" width="6.0" x="490.9999999999999" y="115.6"/>
    <rect fill="#505050" height="6.0" rx="0" ry="0" width="36.0" x="490.9999999999999" y="145.6"/>
    <rect fill="#505050" height="36.0" rx="0" ry="0" width="6.0" x="520.9999999999999" y="115.6"/>
    <rect fill="#505050" height="6.0" rx="0" ry="0" width="30.0" x="520.9999999999999" y="115.6"/>
    <rect fill="#505050" height="52.800000000000004" rx="0" ry="0" width="6.0" x="544.9999999999999" y="115.6"/>
    <rect fill="#4e4c4c" height="2.4000000000000004" width="31.200000000000003" x="334.9999999999999" y="206.79999999999995"/>
    <g transform="translate(308.7723122473387,198.39999999999998)">
        <rect fill="#4e4c4c" height="19.200000000000003" rx="3.5999999999999996" ry="3.5999999999999996" transform="skewX(-15)" width="21.6" x="0" y="0"/>
    </g>
    <text dominant-baseline="central" fill="white" font-family="Consolas" font-size="14.399999999999999" text-anchor="middle" x="316.9999999999999" y="208.0">1</text>
    <rect fill="#4e4c4c" height="2.4000000000000004" width="31.200000000000003" x="334.9999999999999" y="230.79999999999995"/>
    <g transform="translate(308.7723122473387,222.39999999999998)">
        <rect fill="#4e4c4c" height="19.200000000000003" rx="3.5999999999999996" ry="3.5999999999999996" transform="skewX(-15)" width="21.6" x="0" y="0"/>
    </g>
    <text dominant-baseline="central" fill="white" font-family="Consolas" font-size="14.399999999999999" text-anchor="middle" x="316.9999999999999" y="232.0">2</text>
    <g transform="translate(265.57231224733863,222.39999999999998)">
        <rect fill="#8ad039" height="19.200000000000003" rx="3.5999999999999996" ry="3.5999999999999996" transform="skewX(-15)" width="40.8" x="0" y="0"/>
    </g>
    <text dominant-baseline="central" fill="#423F42" font-family="Consolas" font-size="14.399999999999999" text-anchor="middle" x="283.39999999999986" y="232.0">ADC2</text>
    <rect fill="#4e4c4c" height="2.4000000000000004" width="31.200000000000003" x="334.9999999999999" y="254.79999999999995"/>
    <g transform="translate(308.7723122473387,246.39999999999998)">
        <rect fill="#4e4c4c" height="19.200000000000003" rx="3.5999999999999996" ry="3.5999999999999996" transform="skewX(-15)" width="21.6" x="0" y="0"/>
    </g>
    <text dominant-baseline="central" fill="white" font-family="Consolas" font-size="14.399999999999999" text-anchor="middle" x="316.9999999999999" y="256.0">3</text>
    <g transform="translate(265.57231224733863,246.39999999999998)">
        <rect fill="#ed602e" height="19.200000000000003" rx="3.5999999999999996" ry="3.5999999999999996" transform="skewX(-15)" width="40.8" x="0" y="0"/>
    </g>
    <text dominant-baseline="central" fill="#423F42" font-family="Consolas" font-size="14.399999999999999" text-anchor="middle" x="283.39999999999986" y="256.0">CEN</text>
    <rect fill="#4e4c4c" height="2.4000000000000004" width="31.200000000000003" x="334.9999999999999" y="278.79999999999995"/>
    <g transform="translate(308.7723122473387,270.4)">
        <rect fill="#4e4c4c" height="19.200000000000003" rx="3.5999999999999996" ry="3.5999999999999996" transform="skewX(-15)" width="21.6" x="0" y="0"/>
    </g>
    <text dominant-baseline="central" fill="white" font-family="Consolas" font-size="14.399999999999999" text-anchor="middle" x="316.9999999999999" y="280.0">4</text>
    <g transform="translate(265.57231224733863,270.4)">
        <rect fill="#800000" height="19.200000000000003" rx="3.5999999999999996" ry="3.5999999999999996" transform="skewX(-15)" width="40.8" x="0" y="0"/>
    </g>
    <text dominant-baseline="central" fill="white" font-family="Consolas" font-size="14.399999999999999" text-anchor="middle" x="283.39999999999986" y="280.0">PA29</text>
    <g transform="translate(222.37231224733867,270.4)">
        <rect fill="#dcd4ee" height="19.200000000000003" rx="3.5999999999999996" ry="3.5999999999999996" transform="skewX(-15)" width="40.8" x="0" y="0"/>
    </g>
    <text dominant-baseline="central" fill="#423F42" font-family="Consolas" font-size="14.399999999999999" text-anchor="middle" x="240.1999999999999" y="280.0">RX2</text>
    <g transform="translate(179.1723122473387,270.4)">
        <rect fill="#f95" height="19.200000000000003" rx="3.5999999999999996" ry="3.5999999999999996" transform="skewX(-15)" width="40.8" x="0" y="0"/>
    </g>
    <text dominant-baseline="central" fill="#423F42" font-family="Consolas" font-size="14.399999999999999" text-anchor="middle" x="196.99999999999994" y="280.0">SCL0</text>
    <g transform="translate(135.9723122473387,270.4)">
        <rect fill="#afa35e" height="19.200000000000003" rx="3.5999999999999996" ry="3.5999999999999996" transform="skewX(-15)" width="40.8" x="0" y="0"/>
    </g>
    <text dominant-baseline="central" fill="#423F42" font-family="Consolas" font-size="14.399999999999999" text-anchor="middle" x="153.7999999999999" y="280.0">PWM4</text>
    <rect fill="#4e4c4c" height="2.4000000000000004" width="31.200000000000003" x="334.9999999999999" y="302.79999999999995"/>
    <g transform="translate(308.7723122473387,294.4)">
        <rect fill="#4e4c4c" height="19.200000000000003" rx="3.5999999999999996" ry="3.5999999999999996" transform="skewX(-15)" width="21.6" x="0" y="0"/>
    </g>
    <text dominant-baseline="central" fill="white" font-family="Consolas" font-size="14.399999999999999" text-anchor="middle" x="316.9999999999999" y="304.0">5</text>
    <g transform="translate(265.57231224733863,294.4)">
        <rect fill="#800000" height="19.200000000000003" rx="3.5999999999999996" ry="3.5999999999999996" transform="skewX(-15)" width="40.8" x="0" y="0"/>
    </g>
    <text dominant-baseline="central" fill="white" font-family="Consolas" font-size="14.399999999999999" text-anchor="middle" x="283.39999999999986" y="304.0">PA14</text>
    <g transform="translate(222.37231224733867,294.4)">
        <rect fill="#afa35e" height="19.200000000000003" rx="3.5999999999999996" ry="3.5999999999999996" transform="skewX(-15)" width="40.8" x="0" y="0"/>
    </g>
    <text dominant-baseline="central" fill="#423F42" font-family="Consolas" font-size="14.399999999999999" text-anchor="middle" x="240.1999999999999" y="304.0">PWM0</text>
    <g transform="translate(179.1723122473387,294.4)">
        <rect fill="#ffe680" height="19.200000000000003" rx="3.5999999999999996" ry="3.5999999999999996" transform="skewX(-15)" width="40.8" x="0" y="0"/>
    </g>
    <text dominant-baseline="central" fill="#423F42" font-family="Consolas" font-size="14.399999999999999" text-anchor="middle" x="196.99999999999994" y="304.0">SWCLK</text>
    <rect fill="#4e4c4c" height="2.4000000000000004" width="31.200000000000003" x="334.9999999999999" y="326.79999999999995"/>
    <g transform="translate(308.7723122473387,318.4)">
        <rect fill="#4e4c4c" height="19.200000000000003" rx="3.5999999999999996" ry="3.5999999999999996" transform="skewX(-15)" width="21.6" x="0" y="0"/>
    </g>
    <text dominant-baseline="central" fill="white" font-family="Consolas" font-size="14.399999999999999" text-anchor="middle" x="316.9999999999999" y="328.0">6</text>
    <g transform="translate(265.57231224733863,318.4)">
        <rect fill="#800000" height="19.200000000000003" rx="3.5999999999999996" ry="3.5999999999999996" transform="skewX(-15)" width="40.8" x="0" y="0"/>
    </g>
    <text dominant-baseline="central" fill="white" font-family="Consolas" font-size="14.399999999999999" text-anchor="middle" x="283.39999999999986" y="328.0">PA15</text>
    <g transform="translate(222.37231224733867,318.4)">
        <rect fill="#afa35e" height="19.200000000000003" rx="3.5999999999999996" ry="3.5999999999999996" transform="skewX(-15)" width="40.8" x="0" y="0"/>
    </g>
    <text dominant-baseline="central" fill="#423F42" font-family="Consolas" font-size="14.399999999999999" text-anchor="middle" x="240.1999999999999" y="328.0">PWM1</text>
    <g transform="translate(179.1723122473387,318.4)">
        <rect fill="#ffe680" height="19.200000000000003" rx="3.5999999999999996" ry="3.5999999999999996" transform="skewX(-15)" width="40.8" x="0" y="0"/>
    </g>
    <text dominant-baseline="central" fill="#423F42" font-family="Consolas" font-size="14.399999999999999" text-anchor="middle" x="196.99999999999994" y="328.0">SWDIO</text>
    <rect fill="#4e4c4c" height="2.4000000000000004" width="31.200000000000003" x="334.9999999999999" y="350.79999999999995"/>
    <g transform="translate(308.7723122473387,342.4)">
        <rect fill="#4e4c4c" height="19.200000000000003" rx="3.5999999999999996" ry="3.5999999999999996" transform="skewX(-15)" width="21.6" x="0" y="0"/>
    </g>
    <text dominant-baseline="central" fill="white" font-family="Consolas" font-size="14.399999999999999" text-anchor="middle" x="316.9999999999999" y="352.0">7</text>
    <g transform="translate(265.57231224733863,342.4)">
        <rect fill="#800000" height="19.200000000000003" rx="3.5999999999999996" ry="3.5999999999999996" transform="skewX(-15)" width="40.8" x="0" y="0"/>
    </g>
    <text dominant-baseline="central" fill="white" font-family="Consolas" font-size="14.399999999999999" text-anchor="middle" x="283.39999999999986" y="352.0">PA00</text>
    <g transform="translate(222.37231224733867,342.4)">
        <rect fill="#afa35e" height="19.200000000000003" rx="3.5999999999999996" ry="3.5999999999999996" transform="skewX(-15)" width="40.8" x="0" y="0"/>
    </g>
    <text dominant-baseline="central" fill="#423F42" font-family="Consolas" font-size="14.399999999999999" text-anchor="middle" x="240.1999999999999" y="352.0">PWM2</text>
    <rect fill="#4e4c4c" height="2.4000000000000004" width="31.200000000000003" x="334.9999999999999" y="374.79999999999995"/>
    <g transform="translate(308.7723122473387,366.4)">
        <rect fill="#4e4c4c" height="19.200000000000003" rx="3.5999999999999996" ry="3.5999999999999996" transform="skewX(-15)" width="21.6" x="0" y="0"/>
    </g>
    <text dominant-baseline="central" fill="white" font-family="Consolas" font-size="14.399999999999999" text-anchor="middle" x="316.9999999999999" y="376.0">8</text>
    <g transform="translate(265.57231224733863,366.4)">
        <rect fill="#cd3c24" height="19.200000000000003" rx="3.5999999999999996" ry="3.5999999999999996" transform="skewX(-15)" width="40.8" x="0" y="0"/>
    </g>
    <text dominant-baseline="central" fill="white" font-family="Consolas" font-size="14.399999999999999" text-anchor="middle" x="283.39999999999986" y="376.0">3V3</text>
    <rect fill="#4e4c4c" height="2.4000000000000004" width="31.200000000000003" x="570.1999999999999" y="374.79999999999995"/>
    <g transform="translate(611.1723122473387,366.4)">
        <rect fill="#4e4c4c" height="19.200000000000003" rx="3.5999999999999996" ry="3.5999999999999996" transform="skewX(-15)" width="21.6" x="0" y="0"/>
    </g>
    <text dominant-baseline="central" fill="white" font-family="Consolas" font-size="14.399999999999999" text-anchor="middle" x="619.3999999999999" y="376.0">9</text>
    <g transform="translate(635.1723122473387,366.4)">
        <rect fill="#000" height="19.200000000000003" rx="3.5999999999999996" ry="3.5999999999999996" transform="skewX(-15)" width="40.8" x="0" y="0"/>
    </g>
    <text dominant-baseline="central" fill="white" font-family="Consolas" font-size="14.399999999999999" text-anchor="middle" x="653.0" y="376.0">GND</text>
    <rect fill="#4e4c4c" height="2.4000000000000004" width="31.200000000000003" x="570.1999999999999" y="350.79999999999995"/>
    <g transform="translate(611.1723122473387,342.4)">
        <rect fill="#4e4c4c" height="19.200000000000003" rx="3.5999999999999996" ry="3.5999999999999996" transform="skewX(-15)" width="21.6" x="0" y="0"/>
    </g>
    <text dominant-baseline="central" fill="white" font-family="Consolas" font-size="14.399999999999999" text-anchor="middle" x="619.3999999999999" y="352.0">10</text>
    <rect fill="#4e4c4c" height="2.4000000000000004" width="31.200000000000003" x="570.1999999999999" y="326.79999999999995"/>
    <g transform="translate(611.1723122473387,318.4)">
        <rect fill="#4e4c4c" height="19.200000000000003" rx="3.5999999999999996" ry="3.5999999999999996" transform="skewX(-15)" width="21.6" x="0" y="0"/>
    </g>
    <text dominant-baseline="central" fill="white" font-family="Consolas" font-size="14.399999999999999" text-anchor="middle" x="619.3999999999999" y="328.0">11</text>
    <g transform="translate(635.1723122473387,318.4)">
        <rect fill="#800000" height="19.200000000000003" rx="3.5999999999999996" ry="3.5999999999999996" transform="skewX(-15)" width="40.8" x="0" y="0"/>
    </g>
    <text dominant-baseline="central" fill="white" font-family="Consolas" font-size="14.399999999999999" text-anchor="middle" x="653.0" y="328.0">PA30</text>
    <g transform="translate(678.3723122473388,318.4)">
        <rect fill="#dcd4ee" height="19.200000000000003" rx="3.5999999999999996" ry="3.5999999999999996" transform="skewX(-15)" width="40.8" x="0" y="0"/>
    </g>
    <text dominant-baseline="central" fill="#423F42" font-family="Consolas" font-size="14.399999999999999" text-anchor="middle" x="696.2" y="328.0">TX2</text>
    <g transform="translate(721.5723122473388,318.4)">
        <rect fill="#f95" height="19.200000000000003" rx="3.5999999999999996" ry="3.5999999999999996" transform="skewX(-15)" width="40.8" x="0" y="0"/>
    </g>
    <text dominant-baseline="central" fill="#423F42" font-family="Consolas" font-size="14.399999999999999" text-anchor="middle" x="739.4" y="328.0">SDA0</text>
    <g transform="translate(764.7723122473387,318.4)">
        <rect fill="#afa35e" height="19.200000000000003" rx="3.5999999999999996" ry="3.5999999999999996" transform="skewX(-15)" width="40.8" x="0" y="0"/>
    </g>
    <text dominant-baseline="central" fill="#423F42" font-family="Consolas" font-size="14.399999999999999" text-anchor="middle" x="782.6" y="328.0">PWM4</text>
    <rect fill="#4e4c4c" height="2.4000000000000004" width="31.200000000000003" x="570.1999999999999" y="302.79999999999995"/>
    <g transform="translate(611.1723122473387,294.4)">
        <rect fill="#4e4c4c" height="19.200000000000003" rx="3.5999999999999996" ry="3.5999999999999996" transform="skewX(-15)" width="21.6" x="0" y="0"/>
    </g>
    <text dominant-baseline="central" fill="white" font-family="Consolas" font-size="14.399999999999999" text-anchor="middle" x="619.3999999999999" y="304.0">12</text>
    <rect fill="#4e4c4c" height="2.4000000000000004" width="31.200000000000003" x="570.1999999999999" y="278.79999999999995"/>
    <g transform="translate(611.1723122473387,270.4)">
        <rect fill="#4e4c4c" height="19.200000000000003" rx="3.5999999999999996" ry="3.5999999999999996" transform="skewX(-15)" width="21.6" x="0" y="0"/>
    </g>
    <text dominant-baseline="central" fill="white" font-family="Consolas" font-size="14.399999999999999" text-anchor="middle" x="619.3999999999999" y="280.0">13</text>
    <g transform="translate(635.1723122473387,270.4)">
        <rect fill="#800000" height="19.200000000000003" rx="3.5999999999999996" ry="3.5999999999999996" transform="skewX(-15)" width="40.8" x="0" y="0"/>
    </g>
    <text dominant-baseline="central" fill="white" font-family="Consolas" font-size="14.399999999999999" text-anchor="middle" x="653.0" y="280.0">PA05</text>
    <g transform="translate(678.3723122473388,270.4)">
        <rect fill="#afa35e" height="19.200000000000003" rx="3.5999999999999996" ry="3.5999999999999996" transform="skewX(-15)" width="40.8" x="0" y="0"/>
    </g>
    <text dominant-baseline="central" fill="#423F42" font-family="Consolas" font-size="14.399999999999999" text-anchor="middle" x="696.2" y="280.0">PWM4</text>
    <rect fill="#4e4c4c" height="2.4000000000000004" width="31.200000000000003" x="570.1999999999999" y="254.79999999999995"/>
    <g transform="translate(611.1723122473387,246.39999999999998)">
        <rect fill="#4e4c4c" height="19.200000000000003" rx="3.5999999999999996" ry="3.5999999999999996" transform="skewX(-15)" width="21.6" x="0" y="0"/>
    </g>
    <text dominant-baseline="central" fill="white" font-family="Consolas" font-size="14.399999999999999" text-anchor="middle" x="619.3999999999999" y="256.0">14</text>
    <g transform="translate(635.1723122473387,246.39999999999998)">
        <rect fill="#800000" height="19.200000000000003" rx="3.5999999999999996" ry="3.5999999999999996" transform="skewX(-15)" width="40.8" x="0" y="0"/>
    </g>
    <text dominant-baseline="central" fill="white" font-family="Consolas" font-size="14.399999999999999" text-anchor="middle" x="653.0" y="256.0">PA12</text>
    <g transform="translate(678.3723122473388,246.39999999999998)">
        <rect fill="#afa35e" height="19.200000000000003" rx="3.5999999999999996" ry="3.5999999999999996" transform="skewX(-15)" width="40.8" x="0" y="0"/>
    </g>
    <text dominant-baseline="central" fill="#423F42" font-family="Consolas" font-size="14.399999999999999" text-anchor="middle" x="696.2" y="256.0">PWM3</text>
    <rect fill="#4e4c4c" height="2.4000000000000004" width="31.200000000000003" x="570.1999999999999" y="230.79999999999995"/>
    <g transform="translate(611.1723122473387,222.39999999999998)">
        <rect fill="#4e4c4c" height="19.200000000000003" rx="3.5999999999999996" ry="3.5999999999999996" transform="skewX(-15)" width="21.6" x="0" y="0"/>
    </g>
    <text dominant-baseline="central" fill="white" font-family="Consolas" font-size="14.399999999999999" text-anchor="middle" x="619.3999999999999" y="232.0">15</text>
    <g transform="translate(635.1723122473387,222.39999999999998)">
        <rect fill="#800000" height="19.200000000000003" rx="3.5999999999999996" ry="3.5999999999999996" transform="skewX(-15)" width="40.8" x="0" y="0"/>
    </g>
    <text dominant-baseline="central" fill="white" font-family="Consolas" font-size="14.399999999999999" text-anchor="middle" x="653.0" y="232.0">PA18</text>
    <g transform="translate(678.3723122473388,222.39999999999998)">
        <rect fill="#dcd4ee" height="19.200000000000003" rx="3.5999999999999996" ry="3.5999999999999996" transform="skewX(-15)" width="40.8" x="0" y="0"/>
    </g>
    <text dominant-baseline="central" fill="#423F42" font-family="Consolas" font-size="14.399999999999999" text-anchor="middle" x="696.2" y="232.0">RX0</text>
    <g transform="translate(721.5723122473388,222.39999999999998)">
        <rect fill="#f95" height="19.200000000000003" rx="3.5999999999999996" ry="3.5999999999999996" transform="skewX(-15)" width="40.8" x="0" y="0"/>
    </g>
    <text dominant-baseline="central" fill="#423F42" font-family="Consolas" font-size="14.399999999999999" text-anchor="middle" x="739.4" y="232.0">SCL1</text>
    <g transform="translate(764.7723122473387,222.39999999999998)">
        <rect fill="#e9ba33" height="19.200000000000003" rx="3.5999999999999996" ry="3.5999999999999996" transform="skewX(-15)" width="40.8" x="0" y="0"/>
    </g>
    <text dominant-baseline="central" fill="#423F42" font-family="Consolas" font-size="14.399999999999999" text-anchor="middle" x="782.6" y="232.0">SCK0</text>
    <g transform="translate(807.9723122473388,222.39999999999998)">
        <rect fill="#e9ba33" height="19.200000000000003" rx="3.5999999999999996" ry="3.5999999999999996" transform="skewX(-15)" width="40.8" x="0" y="0"/>
    </g>
    <text dominant-baseline="central" fill="#423F42" font-family="Consolas" font-size="14.399999999999999" text-anchor="middle" x="825.8" y="232.0">SCK1</text>
    <rect fill="#4e4c4c" height="2.4000000000000004" width="31.200000000000003" x="570.1999999999999" y="206.79999999999995"/>
    <g transform="translate(611.1723122473387,198.39999999999998)">
        <rect fill="#4e4c4c" height="19.200000000000003" rx="3.5999999999999996" ry="3.5999999999999996" transform="skewX(-15)" width="21.6" x="0" y="0"/>
    </g>
    <text dominant-baseline="central" fill="white" font-family="Consolas" font-size="14.399999999999999" text-anchor="middle" x="619.3999999999999" y="208.0">16</text>
    <g transform="translate(635.1723122473387,198.39999999999998)">
        <rect fill="#800000" height="19.200000000000003" rx="3.5999999999999996" ry="3.5999999999999996" transform="skewX(-15)" width="40.8" x="0" y="0"/>
    </g>
    <text dominant-baseline="central" fill="white" font-family="Consolas" font-size="14.399999999999999" text-anchor="middle" x="653.0" y="208.0">PA23</text>
    <g transform="translate(678.3723122473388,198.39999999999998)">
        <rect fill="#dcd4ee" height="19.200000000000003" rx="3.5999999999999996" ry="3.5999999999999996" transform="skewX(-15)" width="40.8" x="0" y="0"/>
    </g>
    <text dominant-baseline="central" fill="#423F42" font-family="Consolas" font-size="14.399999999999999" text-anchor="middle" x="696.2" y="208.0">TX0</text>
    <g transform="translate(721.5723122473388,198.39999999999998)">
        <rect fill="#f95" height="19.200000000000003" rx="3.5999999999999996" ry="3.5999999999999996" transform="skewX(-15)" width="40.8" x="0" y="0"/>
    </g>
    <text dominant-baseline="central" fill="#423F42" font-family="Consolas" font-size="14.399999999999999" text-anchor="middle" x="739.4" y="208.0">SDA1</text>
    <g transform="translate(764.7723122473387,198.39999999999998)">
        <rect fill="#e9ba33" height="19.200000000000003" rx="3.5999999999999996" ry="3.5999999999999996" transform="skewX(-15)" width="40.8" x="0" y="0"/>
    </g>
    <text dominant-baseline="central" fill="#423F42" font-family="Consolas" font-size="14.399999999999999" text-anchor="middle" x="782.6" y="208.0">MOSI0</text>
    <g transform="translate(807.9723122473388,198.39999999999998)">
        <rect fill="#e9ba33" height="19.200000000000003" rx="3.5999999999999996" ry="3.5999999999999996" transform="skewX(-15)" width="40.8" x="0" y="0"/>
    </g>
    <text dominant-baseline="central" fill="#423F42" font-family="Consolas" font-size="14.399999999999999" text-anchor="middle" x="825.8" y="208.0">MOSI1</text>
    <g transform="translate(851.1723122473388,198.39999999999998)">
        <rect fill="#afa35e" height="19.200000000000003" rx="3.5999999999999996" ry="3.5999999999999996" transform="skewX(-15)" width="40.8" x="0" y="0"/>
    </g>
    <text dominant-baseline="central" fill="#423F42" font-family="Consolas" font-size="14.399999999999999" text-anchor="middle" x="869.0" y="208.0">PWM0</text>
</svg>
