<?xml version="1.0" encoding="utf-8" ?>
<svg xmlns="http://www.w3.org/2000/svg" xmlns:ev="http://www.w3.org/2001/xml-events" xmlns:xlink="http://www.w3.org/1999/xlink" baseProfile="full" height="500" version="1.1" viewBox="0,0,93.0909090909091,45.45454545454545" width="1024">
    <defs/>
    <rect fill="white" height="45.45454545454545" stroke="black" stroke-width="0.1" width="93.0909090909091" x="0" y="0"/>
    <linearGradient gradientUnits="objectBoundingBox" id="id1" x1="1.0" x2="0.0" y1="0.0" y2="1.0">
        <stop offset="0%" stop-color="#47a8cd"/>
        <stop offset="100%" stop-color="#008fb5"/>
    </linearGradient>
    <rect fill="url(#id1) none" height="19.9" stroke="#b5a739" stroke-width="0.1" width="15.9" x="15.27272727272727" y="8.327272727272726"/>
    <rect fill="#fff" height="0.15" width="15.0" x="15.722727272727269" y="13.777272727272726"/>
    <text fill="#fff" font-family="Consolas" font-size="1.0" x="22.22272727272727" y="13.277272727272726">CBU</text>
    <rect fill="#e5b472" height="1.2" id="tuya3.front.left.pin1.trace" width="0.7" x="15.222727272727269" y="14.027272727272726"/>
    <circle cx="15.222727272727269" cy="14.627272727272725" fill="#fff" id="tuya3.front.left.pin1.cast" r="0.35"/>
    <rect fill="#e5b472" height="1.2" id="tuya3.front.left.pin2.trace" width="0.7" x="15.222727272727269" y="16.027272727272724"/>
    <circle cx="15.222727272727269" cy="16.627272727272725" fill="#fff" id="tuya3.front.left.pin2.cast" r="0.35"/>
    <rect fill="#e5b472" height="1.2" id="tuya3.front.left.pin3.trace" width="0.7" x="15.222727272727269" y="18.027272727272724"/>
    <circle cx="15.222727272727269" cy="18.627272727272725" fill="#fff" id="tuya3.front.left.pin3.cast" r="0.35"/>
    <rect fill="#e5b472" height="1.2" id="tuya3.front.left.pin4.trace" width="0.7" x="15.222727272727269" y="20.027272727272724"/>
    <circle cx="15.222727272727269" cy="20.627272727272725" fill="#fff" id="tuya3.front.left.pin4.cast" r="0.35"/>
    <rect fill="#e5b472" height="1.2" id="tuya3.front.left.pin5.trace" width="0.7" x="15.222727272727269" y="22.027272727272724"/>
    <circle cx="15.222727272727269" cy="22.627272727272725" fill="#fff" id="tuya3.front.left.pin5.cast" r="0.35"/>
    <rect fill="#e5b472" height="1.2" id="tuya3.front.left.pin6.trace" width="0.7" x="15.222727272727269" y="24.027272727272724"/>
    <circle cx="15.222727272727269" cy="24.627272727272725" fill="#fff" id="tuya3.front.left.pin6.cast" r="0.35"/>
    <rect fill="#e5b472" height="1.2" id="tuya3.front.left.pin7.trace" width="0.7" x="15.222727272727269" y="26.027272727272724"/>
    <circle cx="15.222727272727269" cy="26.627272727272725" fill="#fff" id="tuya3.front.left.pin7.cast" r="0.35"/>
    <rect fill="#e5b472" height="0.7" id="pins_horz7_2mm_0.7mm.pin1.trace" width="1.2" x="16.47272727272727" y="27.577272727272728"/>
    <circle cx="17.07272727272727" cy="28.277272727272724" fill="#fff" id="pins_horz7_2mm_0.7mm.pin1.cast" r="0.35"/>
    <rect fill="#e5b472" height="0.7" id="pins_horz7_2mm_0.7mm.pin2.trace" width="1.2" x="18.47272727272727" y="27.577272727272728"/>
    <circle cx="19.07272727272727" cy="28.277272727272724" fill="#fff" id="pins_horz7_2mm_0.7mm.pin2.cast" r="0.35"/>
    <rect fill="#e5b472" height="0.7" id="pins_horz7_2mm_0.7mm.pin3.trace" width="1.2" x="20.47272727272727" y="27.577272727272728"/>
    <circle cx="21.07272727272727" cy="28.277272727272724" fill="#fff" id="pins_horz7_2mm_0.7mm.pin3.cast" r="0.35"/>
    <rect fill="#e5b472" height="0.7" id="pins_horz7_2mm_0.7mm.pin4.trace" width="1.2" x="22.47272727272727" y="27.577272727272728"/>
    <circle cx="23.07272727272727" cy="28.277272727272724" fill="#fff" id="pins_horz7_2mm_0.7mm.pin4.cast" r="0.35"/>
    <rect fill="#e5b472" height="0.7" id="pins_horz7_2mm_0.7mm.pin5.trace" width="1.2" x="24.47272727272727" y="27.577272727272728"/>
    <circle cx="25.07272727272727" cy="28.277272727272724" fill="#fff" id="pins_horz7_2mm_0.7mm.pin5.cast" r="0.35"/>
    <rect fill="#e5b472" height="0.7" id="pins_horz7_2mm_0.7mm.pin6.trace" width="1.2" x="26.47272727272727" y="27.577272727272728"/>
    <circle cx="27.07272727272727" cy="28.277272727272724" fill="#fff" id="pins_horz7_2mm_0.7mm.pin6.cast" r="0.35"/>
    <rect fill="#e5b472" height="0.7" id="pins_horz7_2mm_0.7mm.pin7.trace" width="1.2" x="28.47272727272727" y="27.577272727272728"/>
    <circle cx="29.07272727272727" cy="28.277272727272724" fill="#fff" id="pins_horz7_2mm_0.7mm.pin7.cast" r="0.35"/>
    <rect fill="#e5b472" height="1.2" id="tuya3.front.right.pin1.trace" width="0.7" x="30.52272727272727" y="14.027272727272726"/>
    <circle cx="31.22272727272727" cy="14.627272727272725" fill="#fff" id="tuya3.front.right.pin1.cast" r="0.35"/>
    <rect fill="#e5b472" height="1.2" id="tuya3.front.right.pin2.trace" width="0.7" x="30.52272727272727" y="16.027272727272724"/>
    <circle cx="31.22272727272727" cy="16.627272727272725" fill="#fff" id="tuya3.front.right.pin2.cast" r="0.35"/>
    <rect fill="#e5b472" height="1.2" id="tuya3.front.right.pin3.trace" width="0.7" x="30.52272727272727" y="18.027272727272724"/>
    <circle cx="31.22272727272727" cy="18.627272727272725" fill="#fff" id="tuya3.front.right.pin3.cast" r="0.35"/>
    <rect fill="#e5b472" height="1.2" id="tuya3.front.right.pin4.trace" width="0.7" x="30.52272727272727" y="20.027272727272724"/>
    <circle cx="31.22272727272727" cy="20.627272727272725" fill="#fff" id="tuya3.front.right.pin4.cast" r="0.35"/>
    <rect fill="#e5b472" height="1.2" id="tuya3.front.right.pin5.trace" width="0.7" x="30.52272727272727" y="22.027272727272724"/>
    <circle cx="31.22272727272727" cy="22.627272727272725" fill="#fff" id="tuya3.front.right.pin5.cast" r="0.35"/>
    <rect fill="#e5b472" height="1.2" id="tuya3.front.right.pin6.trace" width="0.7" x="30.52272727272727" y="24.027272727272724"/>
    <circle cx="31.22272727272727" cy="24.627272727272725" fill="#fff" id="tuya3.front.right.pin6.cast" r="0.35"/>
    <rect fill="#e5b472" height="1.2" id="tuya3.front.right.pin7.trace" width="0.7" x="30.52272727272727" y="26.027272727272724"/>
    <circle cx="31.22272727272727" cy="26.627272727272725" fill="#fff" id="tuya3.front.right.pin7.cast" r="0.35"/>
    <rect fill="#4e4c4c" height="2.0" width="0.2" x="16.97272727272727" y="28.477272727272727"/>
    <rect fill="#4e4c4c" height="0.2" width="0.2" x="16.77272727272727" y="30.277272727272724"/>
    <rect height="0.0" id="tuya3.front.down.label1.anchor" width="0.0" x="17.27272727272727" y="30.377272727272725"/>
    <rect fill="#4e4c4c" height="4.0" width="0.2" x="18.97272727272727" y="28.477272727272727"/>
    <rect fill="#4e4c4c" height="0.2" width="2.2" x="16.77272727272727" y="32.277272727272724"/>
    <rect height="0.0" id="tuya3.front.down.label2.anchor" width="0.0" x="17.27272727272727" y="32.377272727272725"/>
    <rect fill="#4e4c4c" height="6.0" width="0.2" x="20.97272727272727" y="28.477272727272727"/>
    <rect fill="#4e4c4c" height="0.2" width="4.2" x="16.77272727272727" y="34.277272727272724"/>
    <rect height="0.0" id="tuya3.front.down.label3.anchor" width="0.0" x="17.27272727272727" y="34.377272727272725"/>
    <rect fill="#4e4c4c" height="8.0" width="0.2" x="22.97272727272727" y="28.477272727272727"/>
    <rect fill="#4e4c4c" height="0.2" width="6.2" x="16.77272727272727" y="36.277272727272724"/>
    <rect height="0.0" id="tuya3.front.down.label4.anchor" width="0.0" x="17.27272727272727" y="36.377272727272725"/>
    <rect fill="#4e4c4c" height="8.0" width="0.2" x="24.97272727272727" y="28.477272727272727"/>
    <rect fill="#4e4c4c" height="0.2" width="4.2" x="25.07272727272727" y="36.277272727272724"/>
    <rect height="0.0" id="tuya3.front.down.label5.anchor" width="0.0" x="28.77272727272727" y="36.377272727272725"/>
    <rect fill="#4e4c4c" height="6.0" width="0.2" x="26.97272727272727" y="28.477272727272727"/>
    <rect fill="#4e4c4c" height="0.2" width="2.2" x="27.07272727272727" y="34.277272727272724"/>
    <rect height="0.0" id="tuya3.front.down.label6.anchor" width="0.0" x="28.772727272727266" y="34.377272727272725"/>
    <rect fill="#4e4c4c" height="4.0" width="0.2" x="28.97272727272727" y="28.477272727272727"/>
    <rect fill="#4e4c4c" height="0.2" width="0.2" x="29.07272727272727" y="32.277272727272724"/>
    <rect height="0.0" id="tuya3.front.down.label7.anchor" width="0.0" x="28.772727272727266" y="32.377272727272725"/>
    <linearGradient gradientUnits="objectBoundingBox" id="id2" x1="1.0" x2="0.0" y1="0.0" y2="1.0">
        <stop offset="0%" stop-color="whitesmoke"/>
        <stop offset="100%" stop-color="#999"/>
    </linearGradient>
    <rect fill="url(#id2) none" height="5.0" rx="0.5" ry="0.5" width="5.0" x="25.02272727272727" y="14.077272727272724"/>
    <linearGradient gradientUnits="objectBoundingBox" id="id3" x1="1.0" x2="0.0" y1="0.0" y2="1.0">
        <stop offset="0%" stop-color="whitesmoke"/>
        <stop offset="100%" stop-color="#999"/>
    </linearGradient>
    <rect fill="url(#id3) none" height="8.0" rx="0.5" ry="0.5" width="13.6" x="16.42272727272727" y="18.777272727272724"/>
    <rect fill="#58839b" height="5.2" width="0.5" x="16.32272727272727" y="9.077272727272726"/>
    <rect fill="#58839b" height="0.5" width="4.6" x="16.32272727272727" y="9.077272727272726"/>
    <rect fill="#58839b" height="5.2" width="0.5" x="18.52272727272727" y="9.077272727272726"/>
    <rect fill="#58839b" height="3.0" width="0.5" x="20.42272727272727" y="9.077272727272726"/>
    <rect fill="#58839b" height="0.5" width="3.0" x="20.42272727272727" y="11.577272727272724"/>
    <rect fill="#58839b" height="3.0" width="0.5" x="22.92272727272727" y="9.077272727272726"/>
    <rect fill="#58839b" height="0.5" width="2.7" x="22.92272727272727" y="9.077272727272726"/>
    <rect fill="#58839b" height="3.0" width="0.5" x="25.122727272727268" y="9.077272727272726"/>
    <rect fill="#58839b" height="0.5" width="3.0" x="25.122727272727268" y="11.577272727272724"/>
    <rect fill="#58839b" height="3.0" width="0.5" x="27.622727272727268" y="9.077272727272726"/>
    <rect fill="#58839b" height="0.5" width="2.5" x="27.622727272727268" y="9.077272727272726"/>
    <rect fill="#58839b" height="4.4" width="0.5" x="29.622727272727268" y="9.077272727272726"/>
    <rect fill="#4e4c4c" height="0.2" width="2.6" x="12.12272727272727" y="14.527272727272726"/>
    <g transform="translate(8.337086626672168,13.827272727272724)">
        <rect fill="#800000" height="1.6" rx="0.3" ry="0.3" transform="skewX(-15)" width="3.4" x="0" y="0"/>
    </g>
    <text dominant-baseline="central" fill="white" font-family="Consolas" font-size="1.2" text-anchor="middle" x="9.822727272727269" y="14.627272727272725">P14</text>
    <g transform="translate(5.337086626672168,13.827272727272724)">
        <rect fill="#99188d" height="1.6" rx="0.3" ry="0.3" transform="skewX(-15)" width="2.8" x="0" y="0"/>
    </g>
    <text dominant-baseline="central" fill="white" font-family="Consolas" font-size="1.2" text-anchor="middle" x="6.52272727272727" y="14.627272727272725">D0</text>
    <g transform="translate(1.737086626672168,13.827272727272724)">
        <rect fill="#e9ba33" height="1.6" rx="0.3" ry="0.3" transform="skewX(-15)" width="3.4" x="0" y="0"/>
    </g>
    <text dominant-baseline="central" fill="#423F42" font-family="Consolas" font-size="1.2" text-anchor="middle" x="3.22272727272727" y="14.627272727272725">SCK</text>
    <g transform="translate(-1.8629133733278316,13.827272727272724)">
        <rect fill="#f4de51" height="1.6" rx="0.3" ry="0.3" transform="skewX(-15)" width="3.4" x="0" y="0"/>
    </g>
    <text dominant-baseline="central" fill="#423F42" font-family="Consolas" font-size="1.2" text-anchor="middle" x="-0.37727272727272987" y="14.627272727272725">CLK</text>
    <rect fill="#4e4c4c" height="0.2" width="2.6" x="12.12272727272727" y="16.527272727272724"/>
    <g transform="translate(8.337086626672168,15.827272727272724)">
        <rect fill="#800000" height="1.6" rx="0.3" ry="0.3" transform="skewX(-15)" width="3.4" x="0" y="0"/>
    </g>
    <text dominant-baseline="central" fill="white" font-family="Consolas" font-size="1.2" text-anchor="middle" x="9.822727272727269" y="16.627272727272725">P16</text>
    <g transform="translate(5.337086626672168,15.827272727272724)">
        <rect fill="#99188d" height="1.6" rx="0.3" ry="0.3" transform="skewX(-15)" width="2.8" x="0" y="0"/>
    </g>
    <text dominant-baseline="central" fill="white" font-family="Consolas" font-size="1.2" text-anchor="middle" x="6.52272727272727" y="16.627272727272725">D1</text>
    <g transform="translate(1.737086626672168,15.827272727272724)">
        <rect fill="#e9ba33" height="1.6" rx="0.3" ry="0.3" transform="skewX(-15)" width="3.4" x="0" y="0"/>
    </g>
    <text dominant-baseline="central" fill="#423F42" font-family="Consolas" font-size="1.2" text-anchor="middle" x="3.22272727272727" y="16.627272727272725">MOSI</text>
    <g transform="translate(-1.8629133733278316,15.827272727272724)">
        <rect fill="#f4de51" height="1.6" rx="0.3" ry="0.3" transform="skewX(-15)" width="3.4" x="0" y="0"/>
    </g>
    <text dominant-baseline="central" fill="#423F42" font-family="Consolas" font-size="1.2" text-anchor="middle" x="-0.37727272727272987" y="16.627272727272725">D0</text>
    <rect fill="#4e4c4c" height="0.2" width="2.6" x="12.12272727272727" y="18.527272727272724"/>
    <g transform="translate(8.337086626672168,17.827272727272724)">
        <rect fill="#800000" height="1.6" rx="0.3" ry="0.3" transform="skewX(-15)" width="3.4" x="0" y="0"/>
    </g>
    <text dominant-baseline="central" fill="white" font-family="Consolas" font-size="1.2" text-anchor="middle" x="9.822727272727269" y="18.627272727272725">P20</text>
    <g transform="translate(5.337086626672168,17.827272727272724)">
        <rect fill="#99188d" height="1.6" rx="0.3" ry="0.3" transform="skewX(-15)" width="2.8" x="0" y="0"/>
    </g>
    <text dominant-baseline="central" fill="white" font-family="Consolas" font-size="1.2" text-anchor="middle" x="6.52272727272727" y="18.627272727272725">D2</text>
    <g transform="translate(1.737086626672168,17.827272727272724)">
        <rect fill="#f95" height="1.6" rx="0.3" ry="0.3" transform="skewX(-15)" width="3.4" x="0" y="0"/>
    </g>
    <text dominant-baseline="central" fill="#423F42" font-family="Consolas" font-size="1.2" text-anchor="middle" x="3.22272727272727" y="18.627272727272725">SCL1</text>
    <rect fill="#4e4c4c" height="0.2" width="2.6" x="12.12272727272727" y="20.527272727272724"/>
    <g transform="translate(8.337086626672168,19.827272727272724)">
        <rect fill="#800000" height="1.6" rx="0.3" ry="0.3" transform="skewX(-15)" width="3.4" x="0" y="0"/>
    </g>
    <text dominant-baseline="central" fill="white" font-family="Consolas" font-size="1.2" text-anchor="middle" x="9.822727272727269" y="20.627272727272725">P22</text>
    <g transform="translate(5.337086626672168,19.827272727272724)">
        <rect fill="#99188d" height="1.6" rx="0.3" ry="0.3" transform="skewX(-15)" width="2.8" x="0" y="0"/>
    </g>
    <text dominant-baseline="central" fill="white" font-family="Consolas" font-size="1.2" text-anchor="middle" x="6.52272727272727" y="20.627272727272725">D3</text>
    <rect fill="#4e4c4c" height="0.2" width="2.6" x="12.12272727272727" y="22.527272727272724"/>
    <g transform="translate(8.337086626672168,21.827272727272724)">
        <rect fill="#800000" height="1.6" rx="0.3" ry="0.3" transform="skewX(-15)" width="3.4" x="0" y="0"/>
    </g>
    <text dominant-baseline="central" fill="white" font-family="Consolas" font-size="1.2" text-anchor="middle" x="9.822727272727269" y="22.627272727272725">P23</text>
    <g transform="translate(4.737086626672168,21.827272727272724)">
        <rect fill="#8ad039" height="1.6" rx="0.3" ry="0.3" transform="skewX(-15)" width="3.4" x="0" y="0"/>
    </g>
    <text dominant-baseline="central" fill="#423F42" font-family="Consolas" font-size="1.2" text-anchor="middle" x="6.22272727272727" y="22.627272727272725">ADC3</text>
    <g transform="translate(1.7370866266721667,21.827272727272724)">
        <rect fill="#99188d" height="1.6" rx="0.3" ry="0.3" transform="skewX(-15)" width="2.8" x="0" y="0"/>
    </g>
    <text dominant-baseline="central" fill="white" font-family="Consolas" font-size="1.2" text-anchor="middle" x="2.9227272727272684" y="22.627272727272725">D4</text>
    <g transform="translate(-1.2629133733278333,21.827272727272724)">
        <rect fill="#16a352" height="1.6" rx="0.3" ry="0.3" transform="skewX(-15)" width="2.8" x="0" y="0"/>
    </g>
    <text dominant-baseline="central" fill="white" font-family="Consolas" font-size="1.2" text-anchor="middle" x="-0.0772727272727316" y="22.627272727272725">A0</text>
    <rect fill="#4e4c4c" height="0.2" width="2.6" x="12.12272727272727" y="24.527272727272724"/>
    <g transform="translate(8.337086626672168,23.827272727272724)">
        <rect fill="#800000" height="1.6" rx="0.3" ry="0.3" transform="skewX(-15)" width="3.4" x="0" y="0"/>
    </g>
    <text dominant-baseline="central" fill="white" font-family="Consolas" font-size="1.2" text-anchor="middle" x="9.822727272727269" y="24.627272727272725">P1</text>
    <g transform="translate(5.337086626672168,23.827272727272724)">
        <rect fill="#99188d" height="1.6" rx="0.3" ry="0.3" transform="skewX(-15)" width="2.8" x="0" y="0"/>
    </g>
    <text dominant-baseline="central" fill="white" font-family="Consolas" font-size="1.2" text-anchor="middle" x="6.52272727272727" y="24.627272727272725">D5</text>
    <g transform="translate(1.737086626672168,23.827272727272724)">
        <rect fill="#dcd4ee" height="1.6" rx="0.3" ry="0.3" transform="skewX(-15)" width="3.4" x="0" y="0"/>
    </g>
    <text dominant-baseline="central" fill="#423F42" font-family="Consolas" font-size="1.2" text-anchor="middle" x="3.22272727272727" y="24.627272727272725">RX2</text>
    <g transform="translate(-1.8629133733278316,23.827272727272724)">
        <rect fill="#f95" height="1.6" rx="0.3" ry="0.3" transform="skewX(-15)" width="3.4" x="0" y="0"/>
    </g>
    <text dominant-baseline="central" fill="#423F42" font-family="Consolas" font-size="1.2" text-anchor="middle" x="-0.37727272727272987" y="24.627272727272725">SDA2</text>
    <rect fill="#4e4c4c" height="0.2" width="2.6" x="12.12272727272727" y="26.527272727272724"/>
    <g transform="translate(8.337086626672168,25.827272727272724)">
        <rect fill="#800000" height="1.6" rx="0.3" ry="0.3" transform="skewX(-15)" width="3.4" x="0" y="0"/>
    </g>
    <text dominant-baseline="central" fill="white" font-family="Consolas" font-size="1.2" text-anchor="middle" x="9.822727272727269" y="26.627272727272725">P0</text>
    <g transform="translate(5.337086626672168,25.827272727272724)">
        <rect fill="#99188d" height="1.6" rx="0.3" ry="0.3" transform="skewX(-15)" width="2.8" x="0" y="0"/>
    </g>
    <text dominant-baseline="central" fill="white" font-family="Consolas" font-size="1.2" text-anchor="middle" x="6.52272727272727" y="26.627272727272725">D6</text>
    <g transform="translate(1.737086626672168,25.827272727272724)">
        <rect fill="#dcd4ee" height="1.6" rx="0.3" ry="0.3" transform="skewX(-15)" width="3.4" x="0" y="0"/>
    </g>
    <text dominant-baseline="central" fill="#423F42" font-family="Consolas" font-size="1.2" text-anchor="middle" x="3.22272727272727" y="26.627272727272725">TX2</text>
    <g transform="translate(-1.8629133733278316,25.827272727272724)">
        <rect fill="#f95" height="1.6" rx="0.3" ry="0.3" transform="skewX(-15)" width="3.4" x="0" y="0"/>
    </g>
    <text dominant-baseline="central" fill="#423F42" font-family="Consolas" font-size="1.2" text-anchor="middle" x="-0.37727272727272987" y="26.627272727272725">SCL2</text>
    <rect fill="#4e4c4c" height="0.2" width="2.6" x="14.17272727272727" y="30.277272727272724"/>
    <g transform="translate(10.387086626672167,29.577272727272724)">
        <rect fill="#800000" height="1.6" rx="0.3" ry="0.3" transform="skewX(-15)" width="3.4" x="0" y="0"/>
    </g>
    <text dominant-baseline="central" fill="white" font-family="Consolas" font-size="1.2" text-anchor="middle" x="11.872727272727268" y="30.377272727272725">P8</text>
    <g transform="translate(7.387086626672167,29.577272727272724)">
        <rect fill="#99188d" height="1.6" rx="0.3" ry="0.3" transform="skewX(-15)" width="2.8" x="0" y="0"/>
    </g>
    <text dominant-baseline="central" fill="white" font-family="Consolas" font-size="1.2" text-anchor="middle" x="8.572727272727269" y="30.377272727272725">D7</text>
    <g transform="translate(3.787086626672167,29.577272727272724)">
        <rect fill="#afa35e" height="1.6" rx="0.3" ry="0.3" transform="skewX(-15)" width="3.4" x="0" y="0"/>
    </g>
    <text dominant-baseline="central" fill="#423F42" font-family="Consolas" font-size="1.2" text-anchor="middle" x="5.272727272727269" y="30.377272727272725">PWM2</text>
    <rect fill="#4e4c4c" height="0.2" width="2.6" x="14.17272727272727" y="32.277272727272724"/>
    <g transform="translate(10.387086626672167,31.577272727272724)">
        <rect fill="#800000" height="1.6" rx="0.3" ry="0.3" transform="skewX(-15)" width="3.4" x="0" y="0"/>
    </g>
    <text dominant-baseline="central" fill="white" font-family="Consolas" font-size="1.2" text-anchor="middle" x="11.872727272727268" y="32.377272727272725">P7</text>
    <g transform="translate(7.387086626672167,31.577272727272724)">
        <rect fill="#99188d" height="1.6" rx="0.3" ry="0.3" transform="skewX(-15)" width="2.8" x="0" y="0"/>
    </g>
    <text dominant-baseline="central" fill="white" font-family="Consolas" font-size="1.2" text-anchor="middle" x="8.572727272727269" y="32.377272727272725">D8</text>
    <g transform="translate(3.787086626672167,31.577272727272724)">
        <rect fill="#afa35e" height="1.6" rx="0.3" ry="0.3" transform="skewX(-15)" width="3.4" x="0" y="0"/>
    </g>
    <text dominant-baseline="central" fill="#423F42" font-family="Consolas" font-size="1.2" text-anchor="middle" x="5.272727272727269" y="32.377272727272725">PWM1</text>
    <rect fill="#4e4c4c" height="0.2" width="2.6" x="14.17272727272727" y="34.277272727272724"/>
    <g transform="translate(10.387086626672167,33.57727272727273)">
        <rect fill="#800000" height="1.6" rx="0.3" ry="0.3" transform="skewX(-15)" width="3.4" x="0" y="0"/>
    </g>
    <text dominant-baseline="central" fill="white" font-family="Consolas" font-size="1.2" text-anchor="middle" x="11.872727272727268" y="34.377272727272725">P6</text>
    <g transform="translate(7.387086626672167,33.57727272727273)">
        <rect fill="#99188d" height="1.6" rx="0.3" ry="0.3" transform="skewX(-15)" width="2.8" x="0" y="0"/>
    </g>
    <text dominant-baseline="central" fill="white" font-family="Consolas" font-size="1.2" text-anchor="middle" x="8.572727272727269" y="34.377272727272725">D9</text>
    <g transform="translate(3.787086626672167,33.57727272727273)">
        <rect fill="#afa35e" height="1.6" rx="0.3" ry="0.3" transform="skewX(-15)" width="3.4" x="0" y="0"/>
    </g>
    <text dominant-baseline="central" fill="#423F42" font-family="Consolas" font-size="1.2" text-anchor="middle" x="5.272727272727269" y="34.377272727272725">PWM0</text>
    <rect fill="#4e4c4c" height="0.2" width="2.6" x="14.17272727272727" y="36.277272727272724"/>
    <g transform="translate(10.387086626672167,35.57727272727273)">
        <rect fill="#800000" height="1.6" rx="0.3" ry="0.3" transform="skewX(-15)" width="3.4" x="0" y="0"/>
    </g>
    <text dominant-baseline="central" fill="white" font-family="Consolas" font-size="1.2" text-anchor="middle" x="11.872727272727268" y="36.377272727272725">P26</text>
    <g transform="translate(7.387086626672167,35.57727272727273)">
        <rect fill="#99188d" height="1.6" rx="0.3" ry="0.3" transform="skewX(-15)" width="2.8" x="0" y="0"/>
    </g>
    <text dominant-baseline="central" fill="white" font-family="Consolas" font-size="1.2" text-anchor="middle" x="8.572727272727269" y="36.377272727272725">D10</text>
    <g transform="translate(3.787086626672167,35.57727272727273)">
        <rect fill="#aeafc1" height="1.6" rx="0.3" ry="0.3" transform="skewX(-15)" width="3.4" x="0" y="0"/>
    </g>
    <text dominant-baseline="central" fill="#423F42" font-family="Consolas" font-size="1.2" text-anchor="middle" x="5.272727272727269" y="36.377272727272725">IRDA</text>
    <g transform="translate(0.1870866266721672,35.57727272727273)">
        <rect fill="#afa35e" height="1.6" rx="0.3" ry="0.3" transform="skewX(-15)" width="3.4" x="0" y="0"/>
    </g>
    <text dominant-baseline="central" fill="#423F42" font-family="Consolas" font-size="1.2" text-anchor="middle" x="1.672727272727269" y="36.377272727272725">PWM5</text>
    <rect fill="#4e4c4c" height="0.2" width="2.6" x="29.27272727272727" y="36.277272727272724"/>
    <g transform="translate(32.687086626672176,35.57727272727273)">
        <rect fill="#800000" height="1.6" rx="0.3" ry="0.3" transform="skewX(-15)" width="3.4" x="0" y="0"/>
    </g>
    <text dominant-baseline="central" fill="white" font-family="Consolas" font-size="1.2" text-anchor="middle" x="34.17272727272728" y="36.377272727272725">P24</text>
    <g transform="translate(36.28708662667217,35.57727272727273)">
        <rect fill="#99188d" height="1.6" rx="0.3" ry="0.3" transform="skewX(-15)" width="2.8" x="0" y="0"/>
    </g>
    <text dominant-baseline="central" fill="white" font-family="Consolas" font-size="1.2" text-anchor="middle" x="37.47272727272727" y="36.377272727272725">D11</text>
    <g transform="translate(39.28708662667217,35.57727272727273)">
        <rect fill="#afa35e" height="1.6" rx="0.3" ry="0.3" transform="skewX(-15)" width="3.4" x="0" y="0"/>
    </g>
    <text dominant-baseline="central" fill="#423F42" font-family="Consolas" font-size="1.2" text-anchor="middle" x="40.77272727272727" y="36.377272727272725">PWM4</text>
    <rect fill="#4e4c4c" height="0.2" width="2.6" x="29.272727272727266" y="34.277272727272724"/>
    <g transform="translate(32.68708662667217,33.57727272727273)">
        <rect fill="#000" height="1.6" rx="0.3" ry="0.3" transform="skewX(-15)" width="3.4" x="0" y="0"/>
    </g>
    <text dominant-baseline="central" fill="white" font-family="Consolas" font-size="1.2" text-anchor="middle" x="34.17272727272727" y="34.377272727272725">GND</text>
    <rect fill="#4e4c4c" height="0.2" width="2.6" x="29.272727272727266" y="32.277272727272724"/>
    <g transform="translate(32.68708662667217,31.577272727272724)">
        <rect fill="#cd3c24" height="1.6" rx="0.3" ry="0.3" transform="skewX(-15)" width="3.4" x="0" y="0"/>
    </g>
    <text dominant-baseline="central" fill="white" font-family="Consolas" font-size="1.2" text-anchor="middle" x="34.17272727272727" y="32.377272727272725">3V3</text>
    <rect fill="#4e4c4c" height="0.2" width="2.6" x="31.72272727272727" y="26.527272727272724"/>
    <g transform="translate(35.13708662667217,25.827272727272724)">
        <rect fill="#800000" height="1.6" rx="0.3" ry="0.3" transform="skewX(-15)" width="3.4" x="0" y="0"/>
    </g>
    <text dominant-baseline="central" fill="white" font-family="Consolas" font-size="1.2" text-anchor="middle" x="36.622727272727275" y="26.627272727272725">P11</text>
    <g transform="translate(38.73708662667217,25.827272727272724)">
        <rect fill="#99188d" height="1.6" rx="0.3" ry="0.3" transform="skewX(-15)" width="2.8" x="0" y="0"/>
    </g>
    <text dominant-baseline="central" fill="white" font-family="Consolas" font-size="1.2" text-anchor="middle" x="39.92272727272727" y="26.627272727272725">D12</text>
    <g transform="translate(41.73708662667217,25.827272727272724)">
        <rect fill="#dcd4ee" height="1.6" rx="0.3" ry="0.3" transform="skewX(-15)" width="3.4" x="0" y="0"/>
    </g>
    <text dominant-baseline="central" fill="#423F42" font-family="Consolas" font-size="1.2" text-anchor="middle" x="43.222727272727276" y="26.627272727272725">TX1</text>
    <rect fill="#4e4c4c" height="0.2" width="2.6" x="31.72272727272727" y="24.527272727272724"/>
    <g transform="translate(35.13708662667217,23.827272727272724)">
        <rect fill="#800000" height="1.6" rx="0.3" ry="0.3" transform="skewX(-15)" width="3.4" x="0" y="0"/>
    </g>
    <text dominant-baseline="central" fill="white" font-family="Consolas" font-size="1.2" text-anchor="middle" x="36.622727272727275" y="24.627272727272725">P10</text>
    <g transform="translate(38.73708662667217,23.827272727272724)">
        <rect fill="#99188d" height="1.6" rx="0.3" ry="0.3" transform="skewX(-15)" width="2.8" x="0" y="0"/>
    </g>
    <text dominant-baseline="central" fill="white" font-family="Consolas" font-size="1.2" text-anchor="middle" x="39.92272727272727" y="24.627272727272725">D13</text>
    <g transform="translate(41.73708662667217,23.827272727272724)">
        <rect fill="#dcd4ee" height="1.6" rx="0.3" ry="0.3" transform="skewX(-15)" width="3.4" x="0" y="0"/>
    </g>
    <text dominant-baseline="central" fill="#423F42" font-family="Consolas" font-size="1.2" text-anchor="middle" x="43.222727272727276" y="24.627272727272725">RX1</text>
    <rect fill="#4e4c4c" height="0.2" width="2.6" x="31.72272727272727" y="22.527272727272724"/>
    <g transform="translate(35.13708662667217,21.827272727272724)">
        <rect fill="#800000" height="1.6" rx="0.3" ry="0.3" transform="skewX(-15)" width="3.4" x="0" y="0"/>
    </g>
    <text dominant-baseline="central" fill="white" font-family="Consolas" font-size="1.2" text-anchor="middle" x="36.622727272727275" y="22.627272727272725">P28</text>
    <g transform="translate(38.73708662667217,21.827272727272724)">
        <rect fill="#99188d" height="1.6" rx="0.3" ry="0.3" transform="skewX(-15)" width="2.8" x="0" y="0"/>
    </g>
    <text dominant-baseline="central" fill="white" font-family="Consolas" font-size="1.2" text-anchor="middle" x="39.92272727272727" y="22.627272727272725">D14</text>
    <g transform="translate(41.73708662667217,21.827272727272724)">
        <rect fill="#0f9d58" height="1.6" rx="0.3" ry="0.3" transform="skewX(-15)" width="3.4" x="0" y="0"/>
    </g>
    <text dominant-baseline="central" fill="white" font-family="Consolas" font-size="1.2" text-anchor="middle" x="43.222727272727276" y="22.627272727272725">DN</text>
    <rect fill="#4e4c4c" height="0.2" width="2.6" x="31.72272727272727" y="20.527272727272724"/>
    <g transform="translate(35.13708662667217,19.827272727272724)">
        <rect fill="#ed602e" height="1.6" rx="0.3" ry="0.3" transform="skewX(-15)" width="3.4" x="0" y="0"/>
    </g>
    <text dominant-baseline="central" fill="#423F42" font-family="Consolas" font-size="1.2" text-anchor="middle" x="36.622727272727275" y="20.627272727272725">CEN</text>
    <rect fill="#4e4c4c" height="0.2" width="2.6" x="31.72272727272727" y="18.527272727272724"/>
    <g transform="translate(35.13708662667217,17.827272727272724)">
        <rect fill="#800000" height="1.6" rx="0.3" ry="0.3" transform="skewX(-15)" width="3.4" x="0" y="0"/>
    </g>
    <text dominant-baseline="central" fill="white" font-family="Consolas" font-size="1.2" text-anchor="middle" x="36.622727272727275" y="18.627272727272725">P9</text>
    <g transform="translate(38.73708662667217,17.827272727272724)">
        <rect fill="#99188d" height="1.6" rx="0.3" ry="0.3" transform="skewX(-15)" width="2.8" x="0" y="0"/>
    </g>
    <text dominant-baseline="central" fill="white" font-family="Consolas" font-size="1.2" text-anchor="middle" x="39.92272727272727" y="18.627272727272725">D15</text>
    <g transform="translate(41.73708662667217,17.827272727272724)">
        <rect fill="#afa35e" height="1.6" rx="0.3" ry="0.3" transform="skewX(-15)" width="3.4" x="0" y="0"/>
    </g>
    <text dominant-baseline="central" fill="#423F42" font-family="Consolas" font-size="1.2" text-anchor="middle" x="43.222727272727276" y="18.627272727272725">PWM3</text>
    <rect fill="#4e4c4c" height="0.2" width="2.6" x="31.72272727272727" y="16.527272727272724"/>
    <g transform="translate(35.13708662667217,15.827272727272724)">
        <rect fill="#800000" height="1.6" rx="0.3" ry="0.3" transform="skewX(-15)" width="3.4" x="0" y="0"/>
    </g>
    <text dominant-baseline="central" fill="white" font-family="Consolas" font-size="1.2" text-anchor="middle" x="36.622727272727275" y="16.627272727272725">P17</text>
    <g transform="translate(38.73708662667217,15.827272727272724)">
        <rect fill="#99188d" height="1.6" rx="0.3" ry="0.3" transform="skewX(-15)" width="2.8" x="0" y="0"/>
    </g>
    <text dominant-baseline="central" fill="white" font-family="Consolas" font-size="1.2" text-anchor="middle" x="39.92272727272727" y="16.627272727272725">D16</text>
    <g transform="translate(41.73708662667217,15.827272727272724)">
        <rect fill="#e9ba33" height="1.6" rx="0.3" ry="0.3" transform="skewX(-15)" width="3.4" x="0" y="0"/>
    </g>
    <text dominant-baseline="central" fill="#423F42" font-family="Consolas" font-size="1.2" text-anchor="middle" x="43.222727272727276" y="16.627272727272725">MISO</text>
    <g transform="translate(45.337086626672175,15.827272727272724)">
        <rect fill="#f4de51" height="1.6" rx="0.3" ry="0.3" transform="skewX(-15)" width="3.4" x="0" y="0"/>
    </g>
    <text dominant-baseline="central" fill="#423F42" font-family="Consolas" font-size="1.2" text-anchor="middle" x="46.82272727272728" y="16.627272727272725">D1</text>
    <rect fill="#4e4c4c" height="0.2" width="2.6" x="31.72272727272727" y="14.527272727272726"/>
    <g transform="translate(35.13708662667217,13.827272727272724)">
        <rect fill="#800000" height="1.6" rx="0.3" ry="0.3" transform="skewX(-15)" width="3.4" x="0" y="0"/>
    </g>
    <text dominant-baseline="central" fill="white" font-family="Consolas" font-size="1.2" text-anchor="middle" x="36.622727272727275" y="14.627272727272725">P15</text>
    <g transform="translate(38.73708662667217,13.827272727272724)">
        <rect fill="#99188d" height="1.6" rx="0.3" ry="0.3" transform="skewX(-15)" width="2.8" x="0" y="0"/>
    </g>
    <text dominant-baseline="central" fill="white" font-family="Consolas" font-size="1.2" text-anchor="middle" x="39.92272727272727" y="14.627272727272725">D17</text>
    <g transform="translate(41.73708662667217,13.827272727272724)">
        <rect fill="#e9ba33" height="1.6" rx="0.3" ry="0.3" transform="skewX(-15)" width="3.4" x="0" y="0"/>
    </g>
    <text dominant-baseline="central" fill="#423F42" font-family="Consolas" font-size="1.2" text-anchor="middle" x="43.222727272727276" y="14.627272727272725">CS</text>
    <g transform="translate(45.337086626672175,13.827272727272724)">
        <rect fill="#f4de51" height="1.6" rx="0.3" ry="0.3" transform="skewX(-15)" width="3.4" x="0" y="0"/>
    </g>
    <text dominant-baseline="central" fill="#423F42" font-family="Consolas" font-size="1.2" text-anchor="middle" x="46.82272727272728" y="14.627272727272725">CMD</text>
    <linearGradient gradientUnits="objectBoundingBox" id="id4" x1="1.0" x2="0.0" y1="0.0" y2="1.0">
        <stop offset="0%" stop-color="#47a8cd"/>
        <stop offset="100%" stop-color="#008fb5"/>
    </linearGradient>
    <rect fill="url(#id4) none" height="19.9" stroke="#b5a739" stroke-width="0.1" width="15.9" x="66.29318181818182" y="8.677272727272728"/>
    <rect fill="#e5b472" height="1.2" id="tuya3.back.right.pin1.trace" width="0.7" x="66.24318181818182" y="14.377272727272727"/>
    <circle cx="66.24318181818182" cy="14.977272727272727" fill="#fff" id="tuya3.back.right.pin1.cast" r="0.35"/>
    <rect fill="#e5b472" height="1.2" id="tuya3.back.right.pin2.trace" width="0.7" x="66.24318181818182" y="16.377272727272725"/>
    <circle cx="66.24318181818182" cy="16.977272727272727" fill="#fff" id="tuya3.back.right.pin2.cast" r="0.35"/>
    <rect fill="#e5b472" height="1.2" id="tuya3.back.right.pin3.trace" width="0.7" x="66.24318181818182" y="18.377272727272725"/>
    <circle cx="66.24318181818182" cy="18.977272727272727" fill="#fff" id="tuya3.back.right.pin3.cast" r="0.35"/>
    <rect fill="#e5b472" height="1.2" id="tuya3.back.right.pin4.trace" width="0.7" x="66.24318181818182" y="20.377272727272725"/>
    <circle cx="66.24318181818182" cy="20.977272727272727" fill="#fff" id="tuya3.back.right.pin4.cast" r="0.35"/>
    <rect fill="#e5b472" height="1.2" id="tuya3.back.right.pin5.trace" width="0.7" x="66.24318181818182" y="22.377272727272725"/>
    <circle cx="66.24318181818182" cy="22.977272727272727" fill="#fff" id="tuya3.back.right.pin5.cast" r="0.35"/>
    <rect fill="#e5b472" height="1.2" id="tuya3.back.right.pin6.trace" width="0.7" x="66.24318181818182" y="24.377272727272725"/>
    <circle cx="66.24318181818182" cy="24.977272727272727" fill="#fff" id="tuya3.back.right.pin6.cast" r="0.35"/>
    <rect fill="#e5b472" height="1.2" id="tuya3.back.right.pin7.trace" width="0.7" x="66.24318181818182" y="26.377272727272725"/>
    <circle cx="66.24318181818182" cy="26.977272727272727" fill="#fff" id="tuya3.back.right.pin7.cast" r="0.35"/>
    <rect fill="#e5b472" height="0.7" id="pins_horz7_2mm_0.7mm.pin1.trace" width="1.2" x="67.49318181818182" y="27.92727272727273"/>
    <circle cx="68.09318181818182" cy="28.627272727272725" fill="#fff" id="pins_horz7_2mm_0.7mm.pin1.cast" r="0.35"/>
    <rect fill="#e5b472" height="0.7" id="pins_horz7_2mm_0.7mm.pin2.trace" width="1.2" x="69.49318181818182" y="27.92727272727273"/>
    <circle cx="70.09318181818182" cy="28.627272727272725" fill="#fff" id="pins_horz7_2mm_0.7mm.pin2.cast" r="0.35"/>
    <rect fill="#e5b472" height="0.7" id="pins_horz7_2mm_0.7mm.pin3.trace" width="1.2" x="71.49318181818182" y="27.92727272727273"/>
    <circle cx="72.09318181818182" cy="28.627272727272725" fill="#fff" id="pins_horz7_2mm_0.7mm.pin3.cast" r="0.35"/>
    <rect fill="#e5b472" height="0.7" id="pins_horz7_2mm_0.7mm.pin4.trace" width="1.2" x="73.49318181818182" y="27.92727272727273"/>
    <circle cx="74.09318181818182" cy="28.627272727272725" fill="#fff" id="pins_horz7_2mm_0.7mm.pin4.cast" r="0.35"/>
    <rect fill="#e5b472" height="0.7" id="pins_horz7_2mm_0.7mm.pin5.trace" width="1.2" x="75.49318181818182" y="27.92727272727273"/>
    <circle cx="76.09318181818182" cy="28.627272727272725" fill="#fff" id="pins_horz7_2mm_0.7mm.pin5.cast" r="0.35"/>
    <rect fill="#e5b472" height="0.7" id="pins_horz7_2mm_0.7mm.pin6.trace" width="1.2" x="77.49318181818182" y="27.92727272727273"/>
    <circle cx="78.09318181818182" cy="28.627272727272725" fill="#fff" id="pins_horz7_2mm_0.7mm.pin6.cast" r="0.35"/>
    <rect fill="#e5b472" height="0.7" id="pins_horz7_2mm_0.7mm.pin7.trace" width="1.2" x="79.49318181818182" y="27.92727272727273"/>
    <circle cx="80.09318181818182" cy="28.627272727272725" fill="#fff" id="pins_horz7_2mm_0.7mm.pin7.cast" r="0.35"/>
    <rect fill="#e5b472" height="1.2" id="tuya3.back.left.pin1.trace" width="0.7" x="81.54318181818182" y="14.377272727272727"/>
    <circle cx="82.24318181818182" cy="14.977272727272727" fill="#fff" id="tuya3.back.left.pin1.cast" r="0.35"/>
    <rect fill="#e5b472" height="1.2" id="tuya3.back.left.pin2.trace" width="0.7" x="81.54318181818182" y="16.377272727272725"/>
    <circle cx="82.24318181818182" cy="16.977272727272727" fill="#fff" id="tuya3.back.left.pin2.cast" r="0.35"/>
    <rect fill="#e5b472" height="1.2" id="tuya3.back.left.pin3.trace" width="0.7" x="81.54318181818182" y="18.377272727272725"/>
    <circle cx="82.24318181818182" cy="18.977272727272727" fill="#fff" id="tuya3.back.left.pin3.cast" r="0.35"/>
    <rect fill="#e5b472" height="1.2" id="tuya3.back.left.pin4.trace" width="0.7" x="81.54318181818182" y="20.377272727272725"/>
    <circle cx="82.24318181818182" cy="20.977272727272727" fill="#fff" id="tuya3.back.left.pin4.cast" r="0.35"/>
    <rect fill="#e5b472" height="1.2" id="tuya3.back.left.pin5.trace" width="0.7" x="81.54318181818182" y="22.377272727272725"/>
    <circle cx="82.24318181818182" cy="22.977272727272727" fill="#fff" id="tuya3.back.left.pin5.cast" r="0.35"/>
    <rect fill="#e5b472" height="1.2" id="tuya3.back.left.pin6.trace" width="0.7" x="81.54318181818182" y="24.377272727272725"/>
    <circle cx="82.24318181818182" cy="24.977272727272727" fill="#fff" id="tuya3.back.left.pin6.cast" r="0.35"/>
    <rect fill="#e5b472" height="1.2" id="tuya3.back.left.pin7.trace" width="0.7" x="81.54318181818182" y="26.377272727272725"/>
    <circle cx="82.24318181818182" cy="26.977272727272727" fill="#fff" id="tuya3.back.left.pin7.cast" r="0.35"/>
    <rect fill="#4e4c4c" height="2.0" width="0.2" x="67.99318181818182" y="28.827272727272728"/>
    <rect fill="#4e4c4c" height="0.2" width="0.2" x="67.79318181818182" y="30.627272727272725"/>
    <rect height="0.0" id="tuya3.back.down.label1.anchor" width="0.0" x="68.29318181818182" y="30.727272727272727"/>
    <rect fill="#4e4c4c" height="4.0" width="0.2" x="69.99318181818182" y="28.827272727272728"/>
    <rect fill="#4e4c4c" height="0.2" width="2.2" x="67.79318181818182" y="32.627272727272725"/>
    <rect height="0.0" id="tuya3.back.down.label2.anchor" width="0.0" x="68.29318181818182" y="32.72727272727273"/>
    <rect fill="#4e4c4c" height="6.0" width="0.2" x="71.99318181818182" y="28.827272727272728"/>
    <rect fill="#4e4c4c" height="0.2" width="4.2" x="67.79318181818182" y="34.627272727272725"/>
    <rect height="0.0" id="tuya3.back.down.label3.anchor" width="0.0" x="68.29318181818182" y="34.72727272727273"/>
    <rect fill="#4e4c4c" height="8.0" width="0.2" x="73.99318181818182" y="28.827272727272728"/>
    <rect fill="#4e4c4c" height="0.2" width="6.2" x="67.79318181818182" y="36.627272727272725"/>
    <rect height="0.0" id="tuya3.back.down.label4.anchor" width="0.0" x="68.29318181818182" y="36.72727272727273"/>
    <rect fill="#4e4c4c" height="8.0" width="0.2" x="75.99318181818182" y="28.827272727272728"/>
    <rect fill="#4e4c4c" height="0.2" width="4.2" x="76.09318181818182" y="36.627272727272725"/>
    <rect height="0.0" id="tuya3.back.down.label5.anchor" width="0.0" x="79.79318181818182" y="36.72727272727273"/>
    <rect fill="#4e4c4c" height="6.0" width="0.2" x="77.99318181818182" y="28.827272727272728"/>
    <rect fill="#4e4c4c" height="0.2" width="2.2" x="78.09318181818182" y="34.627272727272725"/>
    <rect height="0.0" id="tuya3.back.down.label6.anchor" width="0.0" x="79.79318181818182" y="34.72727272727273"/>
    <rect fill="#4e4c4c" height="4.0" width="0.2" x="79.99318181818182" y="28.827272727272728"/>
    <rect fill="#4e4c4c" height="0.2" width="0.2" x="80.09318181818182" y="32.627272727272725"/>
    <rect height="0.0" id="tuya3.back.down.label7.anchor" width="0.0" x="79.79318181818182" y="32.72727272727273"/>
    <rect fill="#e5b472" height="2.9" width="2.9" x="72.24318181818182" y="21.627272727272725"/>
    <rect fill="#4e4c4c" height="0.0" width="0.2" x="70.34318181818182" y="23.527272727272727"/>
    <rect fill="#4e4c4c" height="0.2" width="0.2" x="70.14318181818183" y="23.527272727272727"/>
    <rect height="0.0" id="cbu.back.csn.anchor" width="0.0" x="70.64318181818183" y="23.627272727272725"/>
    <circle cx="71.24318181818182" cy="23.627272727272725" fill="#e5b472" r="0.5"/>
    <rect fill="#4e4c4c" height="0.2" width="2.6" x="67.54318181818184" y="23.527272727272724"/>
    <g transform="translate(63.75754117212672,22.827272727272724)">
        <rect fill="#800000" height="1.6" rx="0.3" ry="0.3" transform="skewX(-15)" width="3.4" x="0" y="0"/>
    </g>
    <text dominant-baseline="central" fill="white" font-family="Consolas" font-size="1.2" text-anchor="middle" x="65.24318181818182" y="23.627272727272725">P21</text>
    <g transform="translate(60.75754117212673,22.827272727272724)">
        <rect fill="#99188d" height="1.6" rx="0.3" ry="0.3" transform="skewX(-15)" width="2.8" x="0" y="0"/>
    </g>
    <text dominant-baseline="central" fill="white" font-family="Consolas" font-size="1.2" text-anchor="middle" x="61.94318181818183" y="23.627272727272725">D18</text>
    <g transform="translate(57.15754117212673,22.827272727272724)">
        <rect fill="#f95" height="1.6" rx="0.3" ry="0.3" transform="skewX(-15)" width="3.4" x="0" y="0"/>
    </g>
    <text dominant-baseline="central" fill="#423F42" font-family="Consolas" font-size="1.2" text-anchor="middle" x="58.64318181818183" y="23.627272727272725">SDA1</text>
</svg>
