<?xml version="1.0" encoding="utf-8" ?>
<svg xmlns="http://www.w3.org/2000/svg" xmlns:ev="http://www.w3.org/2001/xml-events" xmlns:xlink="http://www.w3.org/1999/xlink" baseProfile="full" height="500" version="1.1" viewBox="0,0,1024,500" width="1024">
    <defs/>
    <rect fill="white" height="500.0" stroke="black" stroke-width="1.2000000000000002" width="1024.0" x="0" y="0"/>
    <linearGradient gradientUnits="userSpaceOnUse" id="id1" x1="628.52" x2="440.11999999999995" y1="80.73999999999997" y2="323.14">
        <stop offset="0%" stop-color="#f9f9f9"/>
        <stop offset="100%" stop-color="#ededed"/>
    </linearGradient>
    <rect fill="url(#id1) none" height="242.39999999999998" rx="0" ry="0" stroke="#b5a739" stroke-width="1.2000000000000002" width="188.4" x="440.11999999999995" y="80.73999999999997"/>
    <rect fill="#b5a739" height="1.2000000000000002" rx="0" ry="0" width="18.0" x="439.52" y="288.93999999999994"/>
    <rect fill="#b5a739" height="33.599999999999994" rx="0" ry="0" width="1.2000000000000002" x="457.52" y="288.93999999999994"/>
    <rect fill="#fff" height="34.2" rx="0" ry="0" width="19.200000000000003" x="438.31999999999994" y="290.14"/>
    <rect fill="#b5a739" height="1.2000000000000002" rx="0" ry="0" width="19.200000000000003" x="608.72" y="288.93999999999994"/>
    <rect fill="#b5a739" height="33.599999999999994" rx="0" ry="0" width="1.2000000000000002" x="608.72" y="288.93999999999994"/>
    <rect fill="#fff" height="34.2" rx="0" ry="0" width="20.4" x="609.9200000000001" y="290.14"/>
    <linearGradient gradientUnits="userSpaceOnUse" id="id2" x1="615.9200000000001" x2="452.72" y1="147.33999999999997" y2="285.3399999999999">
        <stop offset="0%" stop-color="whitesmoke"/>
        <stop offset="100%" stop-color="#999"/>
    </linearGradient>
    <rect fill="url(#id2) none" height="138.0" rx="6.0" ry="6.0" width="163.2" x="452.72" y="147.33999999999997"/>
    <rect fill="#e5b472" height="10.08" id="tuyau.front.left.pin1.trace" rx="0" ry="0" width="5.879999999999999" x="439.52" y="148.29999999999995"/>
    <circle cx="439.52" cy="153.33999999999997" fill="#fff" id="tuyau.front.left.pin1.cast" r="2.9399999999999995"/>
    <rect fill="#e5b472" height="10.08" id="tuyau.front.left.pin2.trace" rx="0" ry="0" width="5.879999999999999" x="439.52" y="165.09999999999997"/>
    <circle cx="439.52" cy="170.14" fill="#fff" id="tuyau.front.left.pin2.cast" r="2.9399999999999995"/>
    <rect fill="#e5b472" height="10.08" id="tuyau.front.left.pin3.trace" rx="0" ry="0" width="5.879999999999999" x="439.52" y="181.89999999999998"/>
    <circle cx="439.52" cy="186.93999999999994" fill="#fff" id="tuyau.front.left.pin3.cast" r="2.9399999999999995"/>
    <rect fill="#e5b472" height="10.08" id="tuyau.front.left.pin4.trace" rx="0" ry="0" width="5.879999999999999" x="439.52" y="198.69999999999996"/>
    <circle cx="439.52" cy="203.73999999999998" fill="#fff" id="tuyau.front.left.pin4.cast" r="2.9399999999999995"/>
    <rect fill="#e5b472" height="10.08" id="tuyau.front.left.pin5.trace" rx="0" ry="0" width="5.879999999999999" x="439.52" y="215.49999999999994"/>
    <circle cx="439.52" cy="220.53999999999996" fill="#fff" id="tuyau.front.left.pin5.cast" r="2.9399999999999995"/>
    <rect fill="#e5b472" height="10.08" id="tuyau.front.left.pin6.trace" rx="0" ry="0" width="5.879999999999999" x="439.52" y="232.29999999999995"/>
    <circle cx="439.52" cy="237.33999999999995" fill="#fff" id="tuyau.front.left.pin6.cast" r="2.9399999999999995"/>
    <rect fill="#e5b472" height="10.08" id="tuyau.front.left.pin7.trace" rx="0" ry="0" width="5.879999999999999" x="439.52" y="249.09999999999997"/>
    <circle cx="439.52" cy="254.13999999999993" fill="#fff" id="tuyau.front.left.pin7.cast" r="2.9399999999999995"/>
    <rect fill="#e5b472" height="7.5600000000000005" id="r_pins_horz.pin1.trace" rx="0" ry="0" width="12.96" x="463.03999999999996" y="316.18"/>
    <circle cx="469.52" cy="323.74" fill="#fff" id="r_pins_horz.pin1.cast" r="3.7800000000000002"/>
    <rect fill="#e5b472" height="7.5600000000000005" id="r_pins_horz.pin2.trace" rx="0" ry="0" width="12.96" x="484.64" y="316.18"/>
    <circle cx="491.11999999999995" cy="323.74" fill="#fff" id="r_pins_horz.pin2.cast" r="3.7800000000000002"/>
    <rect fill="#e5b472" height="7.5600000000000005" id="r_pins_horz.pin3.trace" rx="0" ry="0" width="12.96" x="506.24" y="316.18"/>
    <circle cx="512.72" cy="323.74" fill="#fff" id="r_pins_horz.pin3.cast" r="3.7800000000000002"/>
    <rect fill="#e5b472" height="7.5600000000000005" id="r_pins_horz.pin4.trace" rx="0" ry="0" width="12.96" x="527.8399999999999" y="316.18"/>
    <circle cx="534.3199999999999" cy="323.74" fill="#fff" id="r_pins_horz.pin4.cast" r="3.7800000000000002"/>
    <rect fill="#e5b472" height="7.5600000000000005" id="r_pins_horz.pin5.trace" rx="0" ry="0" width="12.96" x="549.4399999999999" y="316.18"/>
    <circle cx="555.9200000000001" cy="323.74" fill="#fff" id="r_pins_horz.pin5.cast" r="3.7800000000000002"/>
    <rect fill="#e5b472" height="7.5600000000000005" id="r_pins_horz.pin6.trace" rx="0" ry="0" width="12.96" x="571.04" y="316.18"/>
    <circle cx="577.52" cy="323.74" fill="#fff" id="r_pins_horz.pin6.cast" r="3.7800000000000002"/>
    <rect fill="#e5b472" height="7.5600000000000005" id="r_pins_horz.pin7.trace" rx="0" ry="0" width="12.96" x="592.6400000000001" y="316.18"/>
    <circle cx="599.1199999999999" cy="323.74" fill="#fff" id="r_pins_horz.pin7.cast" r="3.7800000000000002"/>
    <rect fill="#e5b472" height="28.799999999999997" id="r_pins_horz.pin1.pad" rx="0" ry="0" width="12.96" x="463.03999999999996" y="290.14"/>
    <rect fill="#e5b472" height="28.799999999999997" id="r_pins_horz.pin2.pad" rx="0" ry="0" width="12.96" x="484.64" y="290.14"/>
    <rect fill="#e5b472" height="28.799999999999997" id="r_pins_horz.pin3.pad" rx="0" ry="0" width="12.96" x="506.24" y="290.14"/>
    <rect fill="#e5b472" height="28.799999999999997" id="r_pins_horz.pin4.pad" rx="0" ry="0" width="12.96" x="527.8399999999999" y="290.14"/>
    <rect fill="#e5b472" height="28.799999999999997" id="r_pins_horz.pin5.pad" rx="0" ry="0" width="12.96" x="549.4399999999999" y="290.14"/>
    <rect fill="#e5b472" height="28.799999999999997" id="r_pins_horz.pin6.pad" rx="0" ry="0" width="12.96" x="571.04" y="290.14"/>
    <rect fill="#e5b472" height="28.799999999999997" id="r_pins_horz.pin7.pad" rx="0" ry="0" width="12.96" x="592.6400000000001" y="290.14"/>
    <rect fill="#4e4c4c" height="21.6" rx="0" ry="0" width="2.16" x="468.43999999999994" y="325.9"/>
    <rect fill="#4e4c4c" height="2.16" rx="0" ry="0" width="2.16" x="466.28" y="345.34"/>
    <rect height="0.0" id="tuyau.front.down.label1.anchor" rx="0" ry="0" width="0.0" x="911.2" y="426.56"/>
    <rect fill="#4e4c4c" height="43.2" rx="0" ry="0" width="2.16" x="490.03999999999996" y="325.9"/>
    <rect fill="#4e4c4c" height="2.16" rx="0" ry="0" width="23.759999999999998" x="466.28" y="366.94"/>
    <rect height="0.0" id="tuyau.front.down.label2.anchor" rx="0" ry="0" width="0.0" x="911.2" y="448.15999999999997"/>
    <rect fill="#4e4c4c" height="64.80000000000001" rx="0" ry="0" width="2.16" x="511.64" y="325.9"/>
    <rect fill="#4e4c4c" height="2.16" rx="0" ry="0" width="45.36" x="466.28" y="388.53999999999996"/>
    <rect height="0.0" id="tuyau.front.down.label3.anchor" rx="0" ry="0" width="0.0" x="911.2" y="469.75999999999993"/>
    <rect fill="#4e4c4c" height="86.4" rx="0" ry="0" width="2.16" x="533.24" y="325.9"/>
    <rect fill="#4e4c4c" height="2.16" rx="0" ry="0" width="66.96000000000001" x="466.28000000000003" y="410.13999999999993"/>
    <rect height="0.0" id="tuyau.front.down.label4.anchor" rx="0" ry="0" width="0.0" x="911.2" y="491.3599999999999"/>
    <rect fill="#4e4c4c" height="86.4" rx="0" ry="0" width="2.16" x="554.8399999999999" y="325.9"/>
    <rect fill="#4e4c4c" height="2.16" rx="0" ry="0" width="66.96000000000001" x="555.9200000000001" y="410.13999999999993"/>
    <rect height="0.0" id="tuyau.front.down.label5.anchor" rx="0" ry="0" width="0.0" x="1057.0" y="491.3599999999999"/>
    <rect fill="#4e4c4c" height="64.80000000000001" rx="0" ry="0" width="2.16" x="576.4399999999999" y="325.9"/>
    <rect fill="#4e4c4c" height="2.16" rx="0" ry="0" width="45.36" x="577.52" y="388.53999999999996"/>
    <rect height="0.0" id="tuyau.front.down.label6.anchor" rx="0" ry="0" width="0.0" x="1057.0" y="469.75999999999993"/>
    <rect fill="#4e4c4c" height="43.2" rx="0" ry="0" width="2.16" x="598.04" y="325.9"/>
    <rect fill="#4e4c4c" height="2.16" rx="0" ry="0" width="23.759999999999998" x="599.1199999999999" y="366.94"/>
    <rect height="0.0" id="tuyau.front.down.label7.anchor" rx="0" ry="0" width="0.0" x="1057.0" y="448.15999999999997"/>
    <rect fill="#e5b472" height="10.08" id="tuyau.front.right.pin1.trace" rx="0" ry="0" width="5.879999999999999" x="623.24" y="148.29999999999995"/>
    <circle cx="629.1199999999999" cy="153.33999999999997" fill="#fff" id="tuyau.front.right.pin1.cast" r="2.9399999999999995"/>
    <rect fill="#e5b472" height="10.08" id="tuyau.front.right.pin2.trace" rx="0" ry="0" width="5.879999999999999" x="623.24" y="165.09999999999997"/>
    <circle cx="629.1199999999999" cy="170.14" fill="#fff" id="tuyau.front.right.pin2.cast" r="2.9399999999999995"/>
    <rect fill="#e5b472" height="10.08" id="tuyau.front.right.pin3.trace" rx="0" ry="0" width="5.879999999999999" x="623.24" y="181.89999999999998"/>
    <circle cx="629.1199999999999" cy="186.93999999999994" fill="#fff" id="tuyau.front.right.pin3.cast" r="2.9399999999999995"/>
    <rect fill="#e5b472" height="10.08" id="tuyau.front.right.pin4.trace" rx="0" ry="0" width="5.879999999999999" x="623.24" y="198.69999999999996"/>
    <circle cx="629.1199999999999" cy="203.73999999999998" fill="#fff" id="tuyau.front.right.pin4.cast" r="2.9399999999999995"/>
    <rect fill="#e5b472" height="10.08" id="tuyau.front.right.pin5.trace" rx="0" ry="0" width="5.879999999999999" x="623.24" y="215.49999999999994"/>
    <circle cx="629.1199999999999" cy="220.53999999999996" fill="#fff" id="tuyau.front.right.pin5.cast" r="2.9399999999999995"/>
    <rect fill="#e5b472" height="10.08" id="tuyau.front.right.pin6.trace" rx="0" ry="0" width="5.879999999999999" x="623.24" y="232.29999999999995"/>
    <circle cx="629.1199999999999" cy="237.33999999999995" fill="#fff" id="tuyau.front.right.pin6.cast" r="2.9399999999999995"/>
    <rect fill="#e5b472" height="10.08" id="tuyau.front.right.pin7.trace" rx="0" ry="0" width="5.879999999999999" x="623.24" y="249.09999999999997"/>
    <circle cx="629.1199999999999" cy="254.13999999999993" fill="#fff" id="tuyau.front.right.pin7.cast" r="2.9399999999999995"/>
    <text fill="#000" font-family="Consolas" font-size="12.0" x="517.52" y="140.14">T1-U-HL</text>
    <rect fill="#e0e0e0" height="53.193442622950826" rx="0" ry="0" width="5.925000000000001" x="452.55499999999995" y="88.32360655737702"/>
    <rect fill="#e0e0e0" height="5.114754098360656" rx="0" ry="0" width="54.50999999999999" x="452.55499999999995" y="88.32360655737702"/>
    <rect fill="#e0e0e0" height="53.193442622950826" rx="0" ry="0" width="5.925000000000001" x="478.625" y="88.32360655737702"/>
    <rect fill="#e0e0e0" height="30.688524590163937" rx="0" ry="0" width="5.925000000000001" x="501.14" y="88.32360655737702"/>
    <rect fill="#e0e0e0" height="5.114754098360656" rx="0" ry="0" width="35.550000000000004" x="501.14" y="113.8973770491803"/>
    <rect fill="#e0e0e0" height="30.688524590163937" rx="0" ry="0" width="5.925000000000001" x="530.765" y="88.32360655737702"/>
    <rect fill="#e0e0e0" height="5.114754098360656" rx="0" ry="0" width="31.995000000000005" x="530.765" y="88.32360655737702"/>
    <rect fill="#e0e0e0" height="30.688524590163937" rx="0" ry="0" width="5.925000000000001" x="556.835" y="88.32360655737702"/>
    <rect fill="#e0e0e0" height="5.114754098360656" rx="0" ry="0" width="35.550000000000004" x="556.835" y="113.8973770491803"/>
    <rect fill="#e0e0e0" height="30.688524590163937" rx="0" ry="0" width="5.925000000000001" x="586.46" y="88.32360655737702"/>
    <rect fill="#e0e0e0" height="5.114754098360656" rx="0" ry="0" width="29.625" x="586.46" y="88.32360655737702"/>
    <rect fill="#e0e0e0" height="45.00983606557378" rx="0" ry="0" width="5.925000000000001" x="610.16" y="88.32360655737702"/>
    <rect fill="#4e4c4c" height="1.6799999999999997" width="21.84" x="413.47999999999996" y="152.49999999999997"/>
    <g transform="translate(395.1206185731371,146.61999999999995)">
        <rect fill="#4e4c4c" height="13.439999999999998" rx="3.5999999999999996" ry="3.5999999999999996" transform="skewX(-15)" width="15.120000000000001" x="0" y="0"/>
    </g>
    <text dominant-baseline="central" fill="white" font-family="Consolas" font-size="10.08" text-anchor="middle" x="400.88" y="153.33999999999997">1</text>
    <g transform="translate(364.8806185731371,146.61999999999995)">
        <rect fill="#800000" height="13.439999999999998" rx="3.5999999999999996" ry="3.5999999999999996" transform="skewX(-15)" width="28.56" x="0" y="0"/>
    </g>
    <text dominant-baseline="central" fill="white" font-family="Consolas" font-size="10.08" text-anchor="middle" x="377.36" y="153.33999999999997">P14</text>
    <g transform="translate(334.64061857313715,146.61999999999995)">
        <rect fill="#e9ba33" height="13.439999999999998" rx="3.5999999999999996" ry="3.5999999999999996" transform="skewX(-15)" width="28.56" x="0" y="0"/>
    </g>
    <text dominant-baseline="central" fill="#423F42" font-family="Consolas" font-size="10.08" text-anchor="middle" x="347.12" y="153.33999999999997">SCK</text>
    <rect fill="#4e4c4c" height="1.6799999999999997" width="21.84" x="413.47999999999996" y="169.29999999999995"/>
    <g transform="translate(395.1206185731371,163.41999999999996)">
        <rect fill="#4e4c4c" height="13.439999999999998" rx="3.5999999999999996" ry="3.5999999999999996" transform="skewX(-15)" width="15.120000000000001" x="0" y="0"/>
    </g>
    <text dominant-baseline="central" fill="white" font-family="Consolas" font-size="10.08" text-anchor="middle" x="400.88" y="170.14">2</text>
    <g transform="translate(364.8806185731371,163.41999999999996)">
        <rect fill="#800000" height="13.439999999999998" rx="3.5999999999999996" ry="3.5999999999999996" transform="skewX(-15)" width="28.56" x="0" y="0"/>
    </g>
    <text dominant-baseline="central" fill="white" font-family="Consolas" font-size="10.08" text-anchor="middle" x="377.36" y="170.14">P16</text>
    <g transform="translate(334.64061857313715,163.41999999999996)">
        <rect fill="#e9ba33" height="13.439999999999998" rx="3.5999999999999996" ry="3.5999999999999996" transform="skewX(-15)" width="28.56" x="0" y="0"/>
    </g>
    <text dominant-baseline="central" fill="#423F42" font-family="Consolas" font-size="10.08" text-anchor="middle" x="347.12" y="170.14">MOSI</text>
    <rect fill="#4e4c4c" height="1.6799999999999997" width="21.84" x="413.47999999999996" y="186.09999999999997"/>
    <g transform="translate(395.1206185731371,180.21999999999994)">
        <rect fill="#4e4c4c" height="13.439999999999998" rx="3.5999999999999996" ry="3.5999999999999996" transform="skewX(-15)" width="15.120000000000001" x="0" y="0"/>
    </g>
    <text dominant-baseline="central" fill="white" font-family="Consolas" font-size="10.08" text-anchor="middle" x="400.88" y="186.93999999999994">3</text>
    <g transform="translate(364.8806185731371,180.21999999999994)">
        <rect fill="#800000" height="13.439999999999998" rx="3.5999999999999996" ry="3.5999999999999996" transform="skewX(-15)" width="28.56" x="0" y="0"/>
    </g>
    <text dominant-baseline="central" fill="white" font-family="Consolas" font-size="10.08" text-anchor="middle" x="377.36" y="186.93999999999994">P23</text>
    <rect fill="#4e4c4c" height="1.6799999999999997" width="21.84" x="413.47999999999996" y="202.89999999999998"/>
    <g transform="translate(395.1206185731371,197.01999999999998)">
        <rect fill="#4e4c4c" height="13.439999999999998" rx="3.5999999999999996" ry="3.5999999999999996" transform="skewX(-15)" width="15.120000000000001" x="0" y="0"/>
    </g>
    <text dominant-baseline="central" fill="white" font-family="Consolas" font-size="10.08" text-anchor="middle" x="400.88" y="203.73999999999998">4</text>
    <g transform="translate(364.8806185731371,197.01999999999998)">
        <rect fill="#800000" height="13.439999999999998" rx="3.5999999999999996" ry="3.5999999999999996" transform="skewX(-15)" width="28.56" x="0" y="0"/>
    </g>
    <text dominant-baseline="central" fill="white" font-family="Consolas" font-size="10.08" text-anchor="middle" x="377.36" y="203.73999999999998">P22</text>
    <rect fill="#4e4c4c" height="1.6799999999999997" width="21.84" x="413.47999999999996" y="219.69999999999996"/>
    <g transform="translate(395.1206185731371,213.82)">
        <rect fill="#4e4c4c" height="13.439999999999998" rx="3.5999999999999996" ry="3.5999999999999996" transform="skewX(-15)" width="15.120000000000001" x="0" y="0"/>
    </g>
    <text dominant-baseline="central" fill="white" font-family="Consolas" font-size="10.08" text-anchor="middle" x="400.88" y="220.53999999999996">5</text>
    <g transform="translate(364.8806185731371,213.82)">
        <rect fill="#800000" height="13.439999999999998" rx="3.5999999999999996" ry="3.5999999999999996" transform="skewX(-15)" width="28.56" x="0" y="0"/>
    </g>
    <text dominant-baseline="central" fill="white" font-family="Consolas" font-size="10.08" text-anchor="middle" x="377.36" y="220.53999999999996">P20</text>
    <g transform="translate(334.64061857313715,213.82)">
        <rect fill="#8ad039" height="13.439999999999998" rx="3.5999999999999996" ry="3.5999999999999996" transform="skewX(-15)" width="28.56" x="0" y="0"/>
    </g>
    <text dominant-baseline="central" fill="#423F42" font-family="Consolas" font-size="10.08" text-anchor="middle" x="347.12" y="220.53999999999996">ADC3</text>
    <rect fill="#4e4c4c" height="1.6799999999999997" width="21.84" x="413.47999999999996" y="236.49999999999994"/>
    <g transform="translate(395.1206185731371,230.61999999999995)">
        <rect fill="#4e4c4c" height="13.439999999999998" rx="3.5999999999999996" ry="3.5999999999999996" transform="skewX(-15)" width="15.120000000000001" x="0" y="0"/>
    </g>
    <text dominant-baseline="central" fill="white" font-family="Consolas" font-size="10.08" text-anchor="middle" x="400.88" y="237.33999999999995">6</text>
    <g transform="translate(364.8806185731371,230.61999999999995)">
        <rect fill="#800000" height="13.439999999999998" rx="3.5999999999999996" ry="3.5999999999999996" transform="skewX(-15)" width="28.56" x="0" y="0"/>
    </g>
    <text dominant-baseline="central" fill="white" font-family="Consolas" font-size="10.08" text-anchor="middle" x="377.36" y="237.33999999999995">P1</text>
    <g transform="translate(334.64061857313715,230.61999999999995)">
        <rect fill="#8ad039" height="13.439999999999998" rx="3.5999999999999996" ry="3.5999999999999996" transform="skewX(-15)" width="28.56" x="0" y="0"/>
    </g>
    <text dominant-baseline="central" fill="#423F42" font-family="Consolas" font-size="10.08" text-anchor="middle" x="347.12" y="237.33999999999995">ADC5</text>
    <g transform="translate(304.40061857313714,230.61999999999995)">
        <rect fill="#dcd4ee" height="13.439999999999998" rx="3.5999999999999996" ry="3.5999999999999996" transform="skewX(-15)" width="28.56" x="0" y="0"/>
    </g>
    <text dominant-baseline="central" fill="#423F42" font-family="Consolas" font-size="10.08" text-anchor="middle" x="316.88" y="237.33999999999995">RX2</text>
    <rect fill="#4e4c4c" height="1.6799999999999997" width="21.84" x="413.47999999999996" y="253.29999999999993"/>
    <g transform="translate(395.1206185731371,247.41999999999996)">
        <rect fill="#4e4c4c" height="13.439999999999998" rx="3.5999999999999996" ry="3.5999999999999996" transform="skewX(-15)" width="15.120000000000001" x="0" y="0"/>
    </g>
    <text dominant-baseline="central" fill="white" font-family="Consolas" font-size="10.08" text-anchor="middle" x="400.88" y="254.13999999999993">7</text>
    <g transform="translate(364.8806185731371,247.41999999999996)">
        <rect fill="#800000" height="13.439999999999998" rx="3.5999999999999996" ry="3.5999999999999996" transform="skewX(-15)" width="28.56" x="0" y="0"/>
    </g>
    <text dominant-baseline="central" fill="white" font-family="Consolas" font-size="10.08" text-anchor="middle" x="377.36" y="254.13999999999993">P0</text>
    <g transform="translate(334.64061857313715,247.41999999999996)">
        <rect fill="#dcd4ee" height="13.439999999999998" rx="3.5999999999999996" ry="3.5999999999999996" transform="skewX(-15)" width="28.56" x="0" y="0"/>
    </g>
    <text dominant-baseline="central" fill="#423F42" font-family="Consolas" font-size="10.08" text-anchor="middle" x="347.12" y="254.13999999999993">TX2</text>
    <rect fill="#4e4c4c" height="2.16" width="28.080000000000005" x="438.2" y="345.34"/>
    <g transform="translate(414.5950810226049,337.78)">
        <rect fill="#4e4c4c" height="17.28" rx="3.5999999999999996" ry="3.5999999999999996" transform="skewX(-15)" width="19.44" x="0" y="0"/>
    </g>
    <text dominant-baseline="central" fill="white" font-family="Consolas" font-size="12.96" text-anchor="middle" x="422.00000000000006" y="346.41999999999996">8</text>
    <g transform="translate(375.71508102260486,337.78)">
        <rect fill="#800000" height="17.28" rx="3.5999999999999996" ry="3.5999999999999996" transform="skewX(-15)" width="36.72" x="0" y="0"/>
    </g>
    <text dominant-baseline="central" fill="white" font-family="Consolas" font-size="12.96" text-anchor="middle" x="391.75999999999993" y="346.41999999999996">P24</text>
    <g transform="translate(336.8350810226048,337.78)">
        <rect fill="#8ad039" height="17.28" rx="3.5999999999999996" ry="3.5999999999999996" transform="skewX(-15)" width="36.72" x="0" y="0"/>
    </g>
    <text dominant-baseline="central" fill="#423F42" font-family="Consolas" font-size="12.96" text-anchor="middle" x="352.87999999999994" y="346.41999999999996">ADC2</text>
    <g transform="translate(297.9550810226049,337.78)">
        <rect fill="#f95" height="17.28" rx="3.5999999999999996" ry="3.5999999999999996" transform="skewX(-15)" width="36.72" x="0" y="0"/>
    </g>
    <text dominant-baseline="central" fill="#423F42" font-family="Consolas" font-size="12.96" text-anchor="middle" x="314.0" y="346.41999999999996">SCL2</text>
    <g transform="translate(259.0750810226049,337.78)">
        <rect fill="#afa35e" height="17.28" rx="3.5999999999999996" ry="3.5999999999999996" transform="skewX(-15)" width="36.72" x="0" y="0"/>
    </g>
    <text dominant-baseline="central" fill="#423F42" font-family="Consolas" font-size="12.96" text-anchor="middle" x="275.12" y="346.41999999999996">PWM4</text>
    <rect fill="#4e4c4c" height="2.16" width="28.080000000000005" x="438.2" y="366.94"/>
    <g transform="translate(414.5950810226049,359.38)">
        <rect fill="#4e4c4c" height="17.28" rx="3.5999999999999996" ry="3.5999999999999996" transform="skewX(-15)" width="19.44" x="0" y="0"/>
    </g>
    <text dominant-baseline="central" fill="white" font-family="Consolas" font-size="12.96" text-anchor="middle" x="422.00000000000006" y="368.02">9</text>
    <g transform="translate(375.71508102260486,359.38)">
        <rect fill="#800000" height="17.28" rx="3.5999999999999996" ry="3.5999999999999996" transform="skewX(-15)" width="36.72" x="0" y="0"/>
    </g>
    <text dominant-baseline="central" fill="white" font-family="Consolas" font-size="12.96" text-anchor="middle" x="391.75999999999993" y="368.02">P9</text>
    <g transform="translate(336.8350810226048,359.38)">
        <rect fill="#afa35e" height="17.28" rx="3.5999999999999996" ry="3.5999999999999996" transform="skewX(-15)" width="36.72" x="0" y="0"/>
    </g>
    <text dominant-baseline="central" fill="#423F42" font-family="Consolas" font-size="12.96" text-anchor="middle" x="352.87999999999994" y="368.02">PWM3</text>
    <rect fill="#4e4c4c" height="2.16" width="28.080000000000005" x="438.2" y="388.53999999999996"/>
    <g transform="translate(414.5950810226049,380.98)">
        <rect fill="#4e4c4c" height="17.28" rx="3.5999999999999996" ry="3.5999999999999996" transform="skewX(-15)" width="19.44" x="0" y="0"/>
    </g>
    <text dominant-baseline="central" fill="white" font-family="Consolas" font-size="12.96" text-anchor="middle" x="422.00000000000006" y="389.62">10</text>
    <g transform="translate(375.71508102260486,380.98)">
        <rect fill="#800000" height="17.28" rx="3.5999999999999996" ry="3.5999999999999996" transform="skewX(-15)" width="36.72" x="0" y="0"/>
    </g>
    <text dominant-baseline="central" fill="white" font-family="Consolas" font-size="12.96" text-anchor="middle" x="391.75999999999993" y="389.62">P26</text>
    <g transform="translate(336.8350810226048,380.98)">
        <rect fill="#8ad039" height="17.28" rx="3.5999999999999996" ry="3.5999999999999996" transform="skewX(-15)" width="36.72" x="0" y="0"/>
    </g>
    <text dominant-baseline="central" fill="#423F42" font-family="Consolas" font-size="12.96" text-anchor="middle" x="352.87999999999994" y="389.62">ADC1</text>
    <g transform="translate(297.9550810226049,380.98)">
        <rect fill="#f95" height="17.28" rx="3.5999999999999996" ry="3.5999999999999996" transform="skewX(-15)" width="36.72" x="0" y="0"/>
    </g>
    <text dominant-baseline="central" fill="#423F42" font-family="Consolas" font-size="12.96" text-anchor="middle" x="314.0" y="389.62">SDA2</text>
    <g transform="translate(259.0750810226049,380.98)">
        <rect fill="#afa35e" height="17.28" rx="3.5999999999999996" ry="3.5999999999999996" transform="skewX(-15)" width="36.72" x="0" y="0"/>
    </g>
    <text dominant-baseline="central" fill="#423F42" font-family="Consolas" font-size="12.96" text-anchor="middle" x="275.12" y="389.62">PWM5</text>
    <rect fill="#4e4c4c" height="2.16" width="28.080000000000005" x="438.2" y="410.13999999999993"/>
    <g transform="translate(414.5950810226049,402.58)">
        <rect fill="#4e4c4c" height="17.28" rx="3.5999999999999996" ry="3.5999999999999996" transform="skewX(-15)" width="19.44" x="0" y="0"/>
    </g>
    <text dominant-baseline="central" fill="white" font-family="Consolas" font-size="12.96" text-anchor="middle" x="422.00000000000006" y="411.21999999999997">11</text>
    <g transform="translate(375.71508102260486,402.58)">
        <rect fill="#800000" height="17.28" rx="3.5999999999999996" ry="3.5999999999999996" transform="skewX(-15)" width="36.72" x="0" y="0"/>
    </g>
    <text dominant-baseline="central" fill="white" font-family="Consolas" font-size="12.96" text-anchor="middle" x="391.75999999999993" y="411.21999999999997">P6</text>
    <g transform="translate(336.8350810226048,402.58)">
        <rect fill="#afa35e" height="17.28" rx="3.5999999999999996" ry="3.5999999999999996" transform="skewX(-15)" width="36.72" x="0" y="0"/>
    </g>
    <text dominant-baseline="central" fill="#423F42" font-family="Consolas" font-size="12.96" text-anchor="middle" x="352.87999999999994" y="411.21999999999997">PWM0</text>
    <rect fill="#4e4c4c" height="2.16" width="28.080000000000005" x="622.88" y="410.13999999999993"/>
    <g transform="translate(659.7550810226049,402.58)">
        <rect fill="#4e4c4c" height="17.28" rx="3.5999999999999996" ry="3.5999999999999996" transform="skewX(-15)" width="19.44" x="0" y="0"/>
    </g>
    <text dominant-baseline="central" fill="white" font-family="Consolas" font-size="12.96" text-anchor="middle" x="667.1600000000001" y="411.21999999999997">12</text>
    <g transform="translate(681.355081022605,402.58)">
        <rect fill="#800000" height="17.28" rx="3.5999999999999996" ry="3.5999999999999996" transform="skewX(-15)" width="36.72" x="0" y="0"/>
    </g>
    <text dominant-baseline="central" fill="white" font-family="Consolas" font-size="12.96" text-anchor="middle" x="697.4000000000001" y="411.21999999999997">P8</text>
    <g transform="translate(720.2350810226048,402.58)">
        <rect fill="#afa35e" height="17.28" rx="3.5999999999999996" ry="3.5999999999999996" transform="skewX(-15)" width="36.72" x="0" y="0"/>
    </g>
    <text dominant-baseline="central" fill="#423F42" font-family="Consolas" font-size="12.96" text-anchor="middle" x="736.28" y="411.21999999999997">PWM2</text>
    <rect fill="#4e4c4c" height="2.16" width="28.080000000000005" x="622.88" y="388.53999999999996"/>
    <g transform="translate(659.7550810226049,380.98)">
        <rect fill="#4e4c4c" height="17.28" rx="3.5999999999999996" ry="3.5999999999999996" transform="skewX(-15)" width="19.44" x="0" y="0"/>
    </g>
    <text dominant-baseline="central" fill="white" font-family="Consolas" font-size="12.96" text-anchor="middle" x="667.1600000000001" y="389.62">13</text>
    <g transform="translate(681.355081022605,380.98)">
        <rect fill="#000" height="17.28" rx="3.5999999999999996" ry="3.5999999999999996" transform="skewX(-15)" width="36.72" x="0" y="0"/>
    </g>
    <text dominant-baseline="central" fill="white" font-family="Consolas" font-size="12.96" text-anchor="middle" x="697.4000000000001" y="389.62">GND</text>
    <rect fill="#4e4c4c" height="2.16" width="28.080000000000005" x="622.88" y="366.94"/>
    <g transform="translate(659.7550810226049,359.38)">
        <rect fill="#4e4c4c" height="17.28" rx="3.5999999999999996" ry="3.5999999999999996" transform="skewX(-15)" width="19.44" x="0" y="0"/>
    </g>
    <text dominant-baseline="central" fill="white" font-family="Consolas" font-size="12.96" text-anchor="middle" x="667.1600000000001" y="368.02">14</text>
    <g transform="translate(681.355081022605,359.38)">
        <rect fill="#cd3c24" height="17.28" rx="3.5999999999999996" ry="3.5999999999999996" transform="skewX(-15)" width="36.72" x="0" y="0"/>
    </g>
    <text dominant-baseline="central" fill="white" font-family="Consolas" font-size="12.96" text-anchor="middle" x="697.4000000000001" y="368.02">3V3</text>
    <rect fill="#4e4c4c" height="1.6799999999999997" width="21.84" x="633.3199999999999" y="253.29999999999993"/>
    <g transform="translate(662.0006185731371,247.41999999999996)">
        <rect fill="#4e4c4c" height="13.439999999999998" rx="3.5999999999999996" ry="3.5999999999999996" transform="skewX(-15)" width="15.120000000000001" x="0" y="0"/>
    </g>
    <text dominant-baseline="central" fill="white" font-family="Consolas" font-size="10.08" text-anchor="middle" x="667.76" y="254.13999999999993">15</text>
    <g transform="translate(678.8006185731372,247.41999999999996)">
        <rect fill="#800000" height="13.439999999999998" rx="3.5999999999999996" ry="3.5999999999999996" transform="skewX(-15)" width="28.56" x="0" y="0"/>
    </g>
    <text dominant-baseline="central" fill="white" font-family="Consolas" font-size="10.08" text-anchor="middle" x="691.28" y="254.13999999999993">P11</text>
    <g transform="translate(709.0406185731371,247.41999999999996)">
        <rect fill="#dcd4ee" height="13.439999999999998" rx="3.5999999999999996" ry="3.5999999999999996" transform="skewX(-15)" width="28.56" x="0" y="0"/>
    </g>
    <text dominant-baseline="central" fill="#423F42" font-family="Consolas" font-size="10.08" text-anchor="middle" x="721.5199999999999" y="254.13999999999993">TX1</text>
    <rect fill="#4e4c4c" height="1.6799999999999997" width="21.84" x="633.3199999999999" y="236.49999999999994"/>
    <g transform="translate(662.0006185731371,230.61999999999995)">
        <rect fill="#4e4c4c" height="13.439999999999998" rx="3.5999999999999996" ry="3.5999999999999996" transform="skewX(-15)" width="15.120000000000001" x="0" y="0"/>
    </g>
    <text dominant-baseline="central" fill="white" font-family="Consolas" font-size="10.08" text-anchor="middle" x="667.76" y="237.33999999999995">16</text>
    <g transform="translate(678.8006185731372,230.61999999999995)">
        <rect fill="#800000" height="13.439999999999998" rx="3.5999999999999996" ry="3.5999999999999996" transform="skewX(-15)" width="28.56" x="0" y="0"/>
    </g>
    <text dominant-baseline="central" fill="white" font-family="Consolas" font-size="10.08" text-anchor="middle" x="691.28" y="237.33999999999995">P10</text>
    <g transform="translate(709.0406185731371,230.61999999999995)">
        <rect fill="#8ad039" height="13.439999999999998" rx="3.5999999999999996" ry="3.5999999999999996" transform="skewX(-15)" width="28.56" x="0" y="0"/>
    </g>
    <text dominant-baseline="central" fill="#423F42" font-family="Consolas" font-size="10.08" text-anchor="middle" x="721.5199999999999" y="237.33999999999995">ADC6</text>
    <g transform="translate(739.2806185731371,230.61999999999995)">
        <rect fill="#dcd4ee" height="13.439999999999998" rx="3.5999999999999996" ry="3.5999999999999996" transform="skewX(-15)" width="28.56" x="0" y="0"/>
    </g>
    <text dominant-baseline="central" fill="#423F42" font-family="Consolas" font-size="10.08" text-anchor="middle" x="751.76" y="237.33999999999995">RX1</text>
    <rect fill="#4e4c4c" height="1.6799999999999997" width="21.84" x="633.3199999999999" y="219.69999999999996"/>
    <g transform="translate(662.0006185731371,213.82)">
        <rect fill="#4e4c4c" height="13.439999999999998" rx="3.5999999999999996" ry="3.5999999999999996" transform="skewX(-15)" width="15.120000000000001" x="0" y="0"/>
    </g>
    <text dominant-baseline="central" fill="white" font-family="Consolas" font-size="10.08" text-anchor="middle" x="667.76" y="220.53999999999996">17</text>
    <g transform="translate(678.8006185731372,213.82)">
        <rect fill="#800000" height="13.439999999999998" rx="3.5999999999999996" ry="3.5999999999999996" transform="skewX(-15)" width="28.56" x="0" y="0"/>
    </g>
    <text dominant-baseline="central" fill="white" font-family="Consolas" font-size="10.08" text-anchor="middle" x="691.28" y="220.53999999999996">P28</text>
    <g transform="translate(709.0406185731371,213.82)">
        <rect fill="#8ad039" height="13.439999999999998" rx="3.5999999999999996" ry="3.5999999999999996" transform="skewX(-15)" width="28.56" x="0" y="0"/>
    </g>
    <text dominant-baseline="central" fill="#423F42" font-family="Consolas" font-size="10.08" text-anchor="middle" x="721.5199999999999" y="220.53999999999996">ADC4</text>
    <rect fill="#4e4c4c" height="1.6799999999999997" width="21.84" x="633.3199999999999" y="202.89999999999998"/>
    <g transform="translate(662.0006185731371,197.01999999999998)">
        <rect fill="#4e4c4c" height="13.439999999999998" rx="3.5999999999999996" ry="3.5999999999999996" transform="skewX(-15)" width="15.120000000000001" x="0" y="0"/>
    </g>
    <text dominant-baseline="central" fill="white" font-family="Consolas" font-size="10.08" text-anchor="middle" x="667.76" y="203.73999999999998">18</text>
    <g transform="translate(678.8006185731372,197.01999999999998)">
        <rect fill="#ed602e" height="13.439999999999998" rx="3.5999999999999996" ry="3.5999999999999996" transform="skewX(-15)" width="28.56" x="0" y="0"/>
    </g>
    <text dominant-baseline="central" fill="#423F42" font-family="Consolas" font-size="10.08" text-anchor="middle" x="691.28" y="203.73999999999998">CEN</text>
    <rect fill="#4e4c4c" height="1.6799999999999997" width="21.84" x="633.3199999999999" y="186.09999999999997"/>
    <g transform="translate(662.0006185731371,180.21999999999994)">
        <rect fill="#4e4c4c" height="13.439999999999998" rx="3.5999999999999996" ry="3.5999999999999996" transform="skewX(-15)" width="15.120000000000001" x="0" y="0"/>
    </g>
    <text dominant-baseline="central" fill="white" font-family="Consolas" font-size="10.08" text-anchor="middle" x="667.76" y="186.93999999999994">19</text>
    <g transform="translate(678.8006185731372,180.21999999999994)">
        <rect fill="#800000" height="13.439999999999998" rx="3.5999999999999996" ry="3.5999999999999996" transform="skewX(-15)" width="28.56" x="0" y="0"/>
    </g>
    <text dominant-baseline="central" fill="white" font-family="Consolas" font-size="10.08" text-anchor="middle" x="691.28" y="186.93999999999994">P21</text>
    <rect fill="#4e4c4c" height="1.6799999999999997" width="21.84" x="633.3199999999999" y="169.29999999999995"/>
    <g transform="translate(662.0006185731371,163.41999999999996)">
        <rect fill="#4e4c4c" height="13.439999999999998" rx="3.5999999999999996" ry="3.5999999999999996" transform="skewX(-15)" width="15.120000000000001" x="0" y="0"/>
    </g>
    <text dominant-baseline="central" fill="white" font-family="Consolas" font-size="10.08" text-anchor="middle" x="667.76" y="170.14">20</text>
    <g transform="translate(678.8006185731372,163.41999999999996)">
        <rect fill="#800000" height="13.439999999999998" rx="3.5999999999999996" ry="3.5999999999999996" transform="skewX(-15)" width="28.56" x="0" y="0"/>
    </g>
    <text dominant-baseline="central" fill="white" font-family="Consolas" font-size="10.08" text-anchor="middle" x="691.28" y="170.14">P17</text>
    <g transform="translate(709.0406185731371,163.41999999999996)">
        <rect fill="#f95" height="13.439999999999998" rx="3.5999999999999996" ry="3.5999999999999996" transform="skewX(-15)" width="28.56" x="0" y="0"/>
    </g>
    <text dominant-baseline="central" fill="#423F42" font-family="Consolas" font-size="10.08" text-anchor="middle" x="721.5199999999999" y="170.14">SDA2</text>
    <g transform="translate(739.2806185731371,163.41999999999996)">
        <rect fill="#e9ba33" height="13.439999999999998" rx="3.5999999999999996" ry="3.5999999999999996" transform="skewX(-15)" width="28.56" x="0" y="0"/>
    </g>
    <text dominant-baseline="central" fill="#423F42" font-family="Consolas" font-size="10.08" text-anchor="middle" x="751.76" y="170.14">MISO</text>
    <rect fill="#4e4c4c" height="1.6799999999999997" width="21.84" x="633.3199999999999" y="152.49999999999997"/>
    <g transform="translate(662.0006185731371,146.61999999999995)">
        <rect fill="#4e4c4c" height="13.439999999999998" rx="3.5999999999999996" ry="3.5999999999999996" transform="skewX(-15)" width="15.120000000000001" x="0" y="0"/>
    </g>
    <text dominant-baseline="central" fill="white" font-family="Consolas" font-size="10.08" text-anchor="middle" x="667.76" y="153.33999999999997">21</text>
    <g transform="translate(678.8006185731372,146.61999999999995)">
        <rect fill="#800000" height="13.439999999999998" rx="3.5999999999999996" ry="3.5999999999999996" transform="skewX(-15)" width="28.56" x="0" y="0"/>
    </g>
    <text dominant-baseline="central" fill="white" font-family="Consolas" font-size="10.08" text-anchor="middle" x="691.28" y="153.33999999999997">P15</text>
    <g transform="translate(709.0406185731371,146.61999999999995)">
        <rect fill="#f95" height="13.439999999999998" rx="3.5999999999999996" ry="3.5999999999999996" transform="skewX(-15)" width="28.56" x="0" y="0"/>
    </g>
    <text dominant-baseline="central" fill="#423F42" font-family="Consolas" font-size="10.08" text-anchor="middle" x="721.5199999999999" y="153.33999999999997">SCL2</text>
    <g transform="translate(739.2806185731371,146.61999999999995)">
        <rect fill="#e9ba33" height="13.439999999999998" rx="3.5999999999999996" ry="3.5999999999999996" transform="skewX(-15)" width="28.56" x="0" y="0"/>
    </g>
    <text dominant-baseline="central" fill="#423F42" font-family="Consolas" font-size="10.08" text-anchor="middle" x="751.76" y="153.33999999999997">CS</text>
</svg>
