<?xml version="1.0" encoding="utf-8" ?>
<svg xmlns="http://www.w3.org/2000/svg" xmlns:ev="http://www.w3.org/2001/xml-events" xmlns:xlink="http://www.w3.org/1999/xlink" baseProfile="full" height="500" version="1.1" viewBox="0,0,1024,500" width="1024">
    <defs/>
    <rect fill="white" height="500.0" stroke="black" stroke-width="1.2000000000000002" width="1024.0" x="0" y="0"/>
    <linearGradient gradientUnits="userSpaceOnUse" id="id1" x1="294.7819951338199" x2="115.9819951338199" y1="101.79999999999998" y2="315.4">
        <stop offset="0%" stop-color="#47a8cd"/>
        <stop offset="100%" stop-color="#008fb5"/>
    </linearGradient>
    <rect fill="url(#id1) none" height="213.59999999999997" rx="0" ry="0" stroke="#b5a739" stroke-width="1.2000000000000002" width="178.8" x="115.9819951338199" y="101.79999999999998"/>
    <rect fill="#b5a739" height="1.2000000000000002" rx="0" ry="0" width="19.200000000000003" x="115.38199513381988" y="273.4"/>
    <rect fill="#b5a739" height="41.400000000000006" rx="0" ry="0" width="1.2000000000000002" x="134.58199513381987" y="273.4"/>
    <rect fill="#fff" height="42.599999999999994" rx="0" ry="0" width="20.4" x="114.1819951338199" y="274.6"/>
    <rect fill="#b5a739" height="1.2000000000000002" rx="0" ry="0" width="19.200000000000003" x="274.9819951338199" y="273.4"/>
    <rect fill="#b5a739" height="41.400000000000006" rx="0" ry="0" width="1.2000000000000002" x="274.9819951338199" y="273.4"/>
    <rect fill="#fff" height="42.599999999999994" rx="0" ry="0" width="20.4" x="276.1819951338199" y="274.6"/>
    <linearGradient gradientUnits="userSpaceOnUse" id="id2" x1="291.7819951338199" x2="118.9819951338199" y1="173.2" y2="269.19999999999993">
        <stop offset="0%" stop-color="whitesmoke"/>
        <stop offset="100%" stop-color="#999"/>
    </linearGradient>
    <rect fill="url(#id2) none" height="96.0" rx="6.0" ry="6.0" width="172.8" x="118.9819951338199" y="173.2"/>
    <rect fill="#e5b472" height="30.0" id="r_pins_horz.pin1.pad" rx="2.4000000000000004" ry="2.4000000000000004" width="12.0" x="151.38199513381988" y="281.8"/>
    <rect fill="#e5b472" height="30.0" id="r_pins_horz.pin2.pad" rx="2.4000000000000004" ry="2.4000000000000004" width="12.0" x="175.38199513381988" y="281.8"/>
    <rect fill="#e5b472" height="30.0" id="r_pins_horz.pin3.pad" rx="2.4000000000000004" ry="2.4000000000000004" width="12.0" x="199.38199513381988" y="281.8"/>
    <rect fill="#e5b472" height="30.0" id="r_pins_horz.pin4.pad" rx="2.4000000000000004" ry="2.4000000000000004" width="12.0" x="223.38199513381988" y="281.8"/>
    <rect fill="#e5b472" height="30.0" id="r_pins_horz.pin5.pad" rx="2.4000000000000004" ry="2.4000000000000004" width="12.0" x="247.38199513381988" y="281.8"/>
    <rect fill="#4e4c4c" height="24.0" rx="0" ry="0" width="2.4000000000000004" x="156.1819951338199" y="318.4"/>
    <rect fill="#4e4c4c" height="2.4000000000000004" rx="0" ry="0" width="2.4000000000000004" x="153.78199513381986" y="339.99999999999994"/>
    <rect height="0.0" id="tuya2.front.pins.label1.anchor" rx="0" ry="0" width="0.0" x="275.16399026763975" y="442.3999999999999"/>
    <rect fill="#4e4c4c" height="48.0" rx="0" ry="0" width="2.4000000000000004" x="180.1819951338199" y="318.4"/>
    <rect fill="#4e4c4c" height="2.4000000000000004" rx="0" ry="0" width="26.400000000000002" x="153.78199513381986" y="363.99999999999994"/>
    <rect height="0.0" id="tuya2.front.pins.label2.anchor" rx="0" ry="0" width="0.0" x="275.16399026763975" y="466.3999999999999"/>
    <rect fill="#4e4c4c" height="72.0" rx="0" ry="0" width="2.4000000000000004" x="204.18199513381987" y="318.4"/>
    <rect fill="#4e4c4c" height="2.4000000000000004" rx="0" ry="0" width="50.400000000000006" x="153.78199513381986" y="387.99999999999994"/>
    <rect height="0.0" id="tuya2.front.pins.label3.anchor" rx="0" ry="0" width="0.0" x="275.16399026763975" y="490.3999999999999"/>
    <rect fill="#4e4c4c" height="72.0" rx="0" ry="0" width="2.4000000000000004" x="228.18199513381987" y="318.4"/>
    <rect fill="#4e4c4c" height="2.4000000000000004" rx="0" ry="0" width="50.400000000000006" x="229.38199513381988" y="387.99999999999994"/>
    <rect height="0.0" id="tuya2.front.pins.label4.anchor" rx="0" ry="0" width="0.0" x="389.1639902676398" y="490.3999999999999"/>
    <rect fill="#4e4c4c" height="48.0" rx="0" ry="0" width="2.4000000000000004" x="252.18199513381987" y="318.4"/>
    <rect fill="#4e4c4c" height="2.4000000000000004" rx="0" ry="0" width="26.400000000000002" x="253.38199513381988" y="363.99999999999994"/>
    <rect height="0.0" id="tuya2.front.pins.label5.anchor" rx="0" ry="0" width="0.0" x="389.1639902676398" y="466.3999999999999"/>
    <text fill="#fff" font-family="Consolas" font-size="12.0" x="187.38199513381988" y="167.2">WR2</text>
    <rect fill="#58839b" height="56.26229508196722" rx="0" ry="0" width="5.625" x="127.75699513381988" y="109.85573770491801"/>
    <rect fill="#58839b" height="5.409836065573771" rx="0" ry="0" width="51.75" x="127.75699513381988" y="109.85573770491801"/>
    <rect fill="#58839b" height="56.26229508196722" rx="0" ry="0" width="5.625" x="152.50699513381988" y="109.85573770491801"/>
    <rect fill="#58839b" height="32.459016393442624" rx="0" ry="0" width="5.625" x="173.88199513381988" y="109.85573770491801"/>
    <rect fill="#58839b" height="5.409836065573771" rx="0" ry="0" width="33.75" x="173.88199513381988" y="136.90491803278687"/>
    <rect fill="#58839b" height="32.459016393442624" rx="0" ry="0" width="5.625" x="202.00699513381988" y="109.85573770491801"/>
    <rect fill="#58839b" height="5.409836065573771" rx="0" ry="0" width="30.375" x="202.00699513381988" y="109.85573770491801"/>
    <rect fill="#58839b" height="32.459016393442624" rx="0" ry="0" width="5.625" x="226.75699513381988" y="109.85573770491801"/>
    <rect fill="#58839b" height="5.409836065573771" rx="0" ry="0" width="33.75" x="226.75699513381988" y="136.90491803278687"/>
    <rect fill="#58839b" height="32.459016393442624" rx="0" ry="0" width="5.625" x="254.88199513381988" y="109.85573770491801"/>
    <rect fill="#58839b" height="5.409836065573771" rx="0" ry="0" width="28.125" x="254.88199513381988" y="109.85573770491801"/>
    <rect fill="#58839b" height="47.606557377049185" rx="0" ry="0" width="5.625" x="277.3819951338199" y="109.85573770491801"/>
    <rect fill="#4e4c4c" height="2.4000000000000004" width="31.200000000000003" x="279.78199513381986" y="363.99999999999994"/>
    <g transform="translate(320.7543073811587,355.59999999999997)">
        <rect fill="#4e4c4c" height="19.200000000000003" rx="3.5999999999999996" ry="3.5999999999999996" transform="skewX(-15)" width="21.6" x="0" y="0"/>
    </g>
    <text dominant-baseline="central" fill="white" font-family="Consolas" font-size="14.399999999999999" text-anchor="middle" x="328.9819951338199" y="365.19999999999993">2</text>
    <g transform="translate(344.7543073811587,355.59999999999997)">
        <rect fill="#800000" height="19.200000000000003" rx="3.5999999999999996" ry="3.5999999999999996" transform="skewX(-15)" width="40.8" x="0" y="0"/>
    </g>
    <text dominant-baseline="central" fill="white" font-family="Consolas" font-size="14.399999999999999" text-anchor="middle" x="362.5819951338199" y="365.19999999999993">PA12</text>
    <g transform="translate(387.95430738115874,355.59999999999997)">
        <rect fill="#afa35e" height="19.200000000000003" rx="3.5999999999999996" ry="3.5999999999999996" transform="skewX(-15)" width="40.8" x="0" y="0"/>
    </g>
    <text dominant-baseline="central" fill="#423F42" font-family="Consolas" font-size="14.399999999999999" text-anchor="middle" x="405.78199513382003" y="365.19999999999993">PWM3</text>
    <rect fill="#4e4c4c" height="2.4000000000000004" width="31.200000000000003" x="279.78199513381986" y="387.99999999999994"/>
    <g transform="translate(320.7543073811587,379.59999999999997)">
        <rect fill="#4e4c4c" height="19.200000000000003" rx="3.5999999999999996" ry="3.5999999999999996" transform="skewX(-15)" width="21.6" x="0" y="0"/>
    </g>
    <text dominant-baseline="central" fill="white" font-family="Consolas" font-size="14.399999999999999" text-anchor="middle" x="328.9819951338199" y="389.19999999999993">4</text>
    <g transform="translate(344.7543073811587,379.59999999999997)">
        <rect fill="#800000" height="19.200000000000003" rx="3.5999999999999996" ry="3.5999999999999996" transform="skewX(-15)" width="40.8" x="0" y="0"/>
    </g>
    <text dominant-baseline="central" fill="white" font-family="Consolas" font-size="14.399999999999999" text-anchor="middle" x="362.5819951338199" y="389.19999999999993">PA00</text>
    <g transform="translate(387.95430738115874,379.59999999999997)">
        <rect fill="#afa35e" height="19.200000000000003" rx="3.5999999999999996" ry="3.5999999999999996" transform="skewX(-15)" width="40.8" x="0" y="0"/>
    </g>
    <text dominant-baseline="central" fill="#423F42" font-family="Consolas" font-size="14.399999999999999" text-anchor="middle" x="405.78199513382003" y="389.19999999999993">PWM2</text>
    <rect fill="#4e4c4c" height="2.4000000000000004" width="31.200000000000003" x="122.58199513381987" y="387.99999999999994"/>
    <g transform="translate(96.35430738115866,379.59999999999997)">
        <rect fill="#4e4c4c" height="19.200000000000003" rx="3.5999999999999996" ry="3.5999999999999996" transform="skewX(-15)" width="21.6" x="0" y="0"/>
    </g>
    <text dominant-baseline="central" fill="white" font-family="Consolas" font-size="14.399999999999999" text-anchor="middle" x="104.58199513381987" y="389.19999999999993">6</text>
    <g transform="translate(53.15430738115866,379.59999999999997)">
        <rect fill="#800000" height="19.200000000000003" rx="3.5999999999999996" ry="3.5999999999999996" transform="skewX(-15)" width="40.8" x="0" y="0"/>
    </g>
    <text dominant-baseline="central" fill="white" font-family="Consolas" font-size="14.399999999999999" text-anchor="middle" x="70.98199513381988" y="389.19999999999993">PA05</text>
    <g transform="translate(9.95430738115866,379.59999999999997)">
        <rect fill="#afa35e" height="19.200000000000003" rx="3.5999999999999996" ry="3.5999999999999996" transform="skewX(-15)" width="40.8" x="0" y="0"/>
    </g>
    <text dominant-baseline="central" fill="#423F42" font-family="Consolas" font-size="14.399999999999999" text-anchor="middle" x="27.781995133819883" y="389.19999999999993">PWM4</text>
    <rect fill="#4e4c4c" height="2.4000000000000004" width="31.200000000000003" x="122.58199513381987" y="363.99999999999994"/>
    <g transform="translate(96.35430738115866,355.59999999999997)">
        <rect fill="#4e4c4c" height="19.200000000000003" rx="3.5999999999999996" ry="3.5999999999999996" transform="skewX(-15)" width="21.6" x="0" y="0"/>
    </g>
    <text dominant-baseline="central" fill="white" font-family="Consolas" font-size="14.399999999999999" text-anchor="middle" x="104.58199513381987" y="365.19999999999993">8</text>
    <g transform="translate(53.15430738115866,355.59999999999997)">
        <rect fill="#8ad039" height="19.200000000000003" rx="3.5999999999999996" ry="3.5999999999999996" transform="skewX(-15)" width="40.8" x="0" y="0"/>
    </g>
    <text dominant-baseline="central" fill="#423F42" font-family="Consolas" font-size="14.399999999999999" text-anchor="middle" x="70.98199513381988" y="365.19999999999993">ADC2</text>
    <rect fill="#4e4c4c" height="2.4000000000000004" width="31.200000000000003" x="122.58199513381987" y="339.99999999999994"/>
    <g transform="translate(96.35430738115866,331.59999999999997)">
        <rect fill="#4e4c4c" height="19.200000000000003" rx="3.5999999999999996" ry="3.5999999999999996" transform="skewX(-15)" width="21.6" x="0" y="0"/>
    </g>
    <text dominant-baseline="central" fill="white" font-family="Consolas" font-size="14.399999999999999" text-anchor="middle" x="104.58199513381987" y="341.19999999999993">10</text>
    <g transform="translate(53.15430738115866,331.59999999999997)">
        <rect fill="#ed602e" height="19.200000000000003" rx="3.5999999999999996" ry="3.5999999999999996" transform="skewX(-15)" width="40.8" x="0" y="0"/>
    </g>
    <text dominant-baseline="central" fill="#423F42" font-family="Consolas" font-size="14.399999999999999" text-anchor="middle" x="70.98199513381988" y="341.19999999999993">CEN</text>
    <linearGradient gradientUnits="userSpaceOnUse" id="id3" x1="806.7819951338199" x2="627.98199513382" y1="101.79999999999998" y2="315.4">
        <stop offset="0%" stop-color="#47a8cd"/>
        <stop offset="100%" stop-color="#008fb5"/>
    </linearGradient>
    <rect fill="url(#id3) none" height="213.59999999999997" rx="0" ry="0" stroke="#b5a739" stroke-width="1.2000000000000002" width="178.8" x="627.98199513382" y="101.79999999999998"/>
    <rect fill="#b5a739" height="1.2000000000000002" rx="0" ry="0" width="19.200000000000003" x="627.3819951338199" y="273.4"/>
    <rect fill="#b5a739" height="41.400000000000006" rx="0" ry="0" width="1.2000000000000002" x="646.58199513382" y="273.4"/>
    <rect fill="#fff" height="42.599999999999994" rx="0" ry="0" width="20.4" x="626.1819951338199" y="274.6"/>
    <rect fill="#b5a739" height="1.2000000000000002" rx="0" ry="0" width="19.200000000000003" x="786.98199513382" y="273.4"/>
    <rect fill="#b5a739" height="41.400000000000006" rx="0" ry="0" width="1.2000000000000002" x="786.98199513382" y="273.4"/>
    <rect fill="#fff" height="42.599999999999994" rx="0" ry="0" width="20.4" x="788.18199513382" y="274.6"/>
    <rect fill="#e5b472" height="30.0" id="r_pins_horz.pin1.pad" rx="2.4000000000000004" ry="2.4000000000000004" width="12.0" x="651.3819951338199" y="281.8"/>
    <rect fill="#e5b472" height="30.0" id="r_pins_horz.pin2.pad" rx="2.4000000000000004" ry="2.4000000000000004" width="12.0" x="675.3819951338199" y="281.8"/>
    <rect fill="#e5b472" height="30.0" id="r_pins_horz.pin3.pad" rx="2.4000000000000004" ry="2.4000000000000004" width="12.0" x="699.3819951338199" y="281.8"/>
    <rect fill="#e5b472" height="30.0" id="r_pins_horz.pin4.pad" rx="2.4000000000000004" ry="2.4000000000000004" width="12.0" x="723.3819951338199" y="281.8"/>
    <rect fill="#e5b472" height="30.0" id="r_pins_horz.pin5.pad" rx="2.4000000000000004" ry="2.4000000000000004" width="12.0" x="747.3819951338199" y="281.8"/>
    <rect fill="#e5b472" height="30.0" id="r_pins_horz.pin6.pad" rx="2.4000000000000004" ry="2.4000000000000004" width="12.0" x="771.3819951338199" y="281.8"/>
    <rect fill="#4e4c4c" height="24.0" rx="0" ry="0" width="2.4000000000000004" x="656.1819951338199" y="318.4"/>
    <rect fill="#4e4c4c" height="2.4000000000000004" rx="0" ry="0" width="2.4000000000000004" x="653.7819951338199" y="339.99999999999994"/>
    <rect height="0.0" id="tuya2.back.pins.label1.anchor" rx="0" ry="0" width="0.0" x="1287.16399026764" y="442.3999999999999"/>
    <rect fill="#4e4c4c" height="48.0" rx="0" ry="0" width="2.4000000000000004" x="680.1819951338199" y="318.4"/>
    <rect fill="#4e4c4c" height="2.4000000000000004" rx="0" ry="0" width="26.400000000000002" x="653.7819951338199" y="363.99999999999994"/>
    <rect height="0.0" id="tuya2.back.pins.label2.anchor" rx="0" ry="0" width="0.0" x="1287.16399026764" y="466.3999999999999"/>
    <rect fill="#4e4c4c" height="72.0" rx="0" ry="0" width="2.4000000000000004" x="704.1819951338199" y="318.4"/>
    <rect fill="#4e4c4c" height="2.4000000000000004" rx="0" ry="0" width="50.400000000000006" x="653.7819951338199" y="387.99999999999994"/>
    <rect height="0.0" id="tuya2.back.pins.label3.anchor" rx="0" ry="0" width="0.0" x="1287.16399026764" y="490.3999999999999"/>
    <rect fill="#4e4c4c" height="72.0" rx="0" ry="0" width="2.4000000000000004" x="728.1819951338199" y="318.4"/>
    <rect fill="#4e4c4c" height="2.4000000000000004" rx="0" ry="0" width="50.400000000000006" x="729.3819951338199" y="387.99999999999994"/>
    <rect height="0.0" id="tuya2.back.pins.label4.anchor" rx="0" ry="0" width="0.0" x="1401.16399026764" y="490.3999999999999"/>
    <rect fill="#4e4c4c" height="48.0" rx="0" ry="0" width="2.4000000000000004" x="752.1819951338199" y="318.4"/>
    <rect fill="#4e4c4c" height="2.4000000000000004" rx="0" ry="0" width="26.400000000000002" x="753.3819951338199" y="363.99999999999994"/>
    <rect height="0.0" id="tuya2.back.pins.label5.anchor" rx="0" ry="0" width="0.0" x="1401.16399026764" y="466.3999999999999"/>
    <rect fill="#4e4c4c" height="24.0" rx="0" ry="0" width="2.4000000000000004" x="776.18199513382" y="318.4"/>
    <rect fill="#4e4c4c" height="2.4000000000000004" rx="0" ry="0" width="2.4000000000000004" x="777.3819951338199" y="339.99999999999994"/>
    <rect height="0.0" id="tuya2.back.pins.label6.anchor" rx="0" ry="0" width="0.0" x="1401.16399026764" y="442.3999999999999"/>
    <circle cx="692.1819951338199" cy="275.19999999999993" fill="#e5b472" r="6.0"/>
    <circle cx="692.1819951338199" cy="259.6" fill="#e5b472" r="6.0"/>
    <rect fill="#4e4c4c" height="0.0" rx="0" ry="0" width="2.4000000000000004" x="681.3819951338199" y="274.0"/>
    <rect fill="#4e4c4c" height="2.4000000000000004" rx="0" ry="0" width="27.6" x="653.7819951338199" y="274.0"/>
    <rect height="0.0" id="wr2.back.rxd.anchor" rx="0" ry="0" width="0.0" x="1287.16399026764" y="376.3999999999999"/>
    <rect fill="#4e4c4c" height="6.0" rx="0" ry="0" width="2.4000000000000004" x="690.98199513382" y="241.6"/>
    <rect fill="#4e4c4c" height="2.4000000000000004" rx="0" ry="0" width="34.800000000000004" x="656.1819951338199" y="241.6"/>
    <rect height="0.0" id="wr2.back.txd.anchor" rx="0" ry="0" width="0.0" x="1289.5639902676398" y="344.0"/>
    <rect fill="#4e4c4c" height="2.4000000000000004" width="31.200000000000003" x="622.58199513382" y="339.99999999999994"/>
    <g transform="translate(596.3543073811588,331.59999999999997)">
        <rect fill="#4e4c4c" height="19.200000000000003" rx="3.5999999999999996" ry="3.5999999999999996" transform="skewX(-15)" width="21.6" x="0" y="0"/>
    </g>
    <text dominant-baseline="central" fill="white" font-family="Consolas" font-size="14.399999999999999" text-anchor="middle" x="604.58199513382" y="341.19999999999993">1</text>
    <g transform="translate(553.1543073811588,331.59999999999997)">
        <rect fill="#cd3c24" height="19.200000000000003" rx="3.5999999999999996" ry="3.5999999999999996" transform="skewX(-15)" width="40.8" x="0" y="0"/>
    </g>
    <text dominant-baseline="central" fill="white" font-family="Consolas" font-size="14.399999999999999" text-anchor="middle" x="570.98199513382" y="341.19999999999993">3V3</text>
    <rect fill="#4e4c4c" height="2.4000000000000004" width="31.200000000000003" x="622.58199513382" y="363.99999999999994"/>
    <g transform="translate(596.3543073811588,355.59999999999997)">
        <rect fill="#4e4c4c" height="19.200000000000003" rx="3.5999999999999996" ry="3.5999999999999996" transform="skewX(-15)" width="21.6" x="0" y="0"/>
    </g>
    <text dominant-baseline="central" fill="white" font-family="Consolas" font-size="14.399999999999999" text-anchor="middle" x="604.58199513382" y="365.19999999999993">3</text>
    <g transform="translate(553.1543073811588,355.59999999999997)">
        <rect fill="#000" height="19.200000000000003" rx="3.5999999999999996" ry="3.5999999999999996" transform="skewX(-15)" width="40.8" x="0" y="0"/>
    </g>
    <text dominant-baseline="central" fill="white" font-family="Consolas" font-size="14.399999999999999" text-anchor="middle" x="570.98199513382" y="365.19999999999993">GND</text>
    <rect fill="#4e4c4c" height="2.4000000000000004" width="31.200000000000003" x="622.58199513382" y="387.99999999999994"/>
    <g transform="translate(596.3543073811588,379.59999999999997)">
        <rect fill="#4e4c4c" height="19.200000000000003" rx="3.5999999999999996" ry="3.5999999999999996" transform="skewX(-15)" width="21.6" x="0" y="0"/>
    </g>
    <text dominant-baseline="central" fill="white" font-family="Consolas" font-size="14.399999999999999" text-anchor="middle" x="604.58199513382" y="389.19999999999993">5</text>
    <g transform="translate(553.1543073811588,379.59999999999997)">
        <rect fill="#800000" height="19.200000000000003" rx="3.5999999999999996" ry="3.5999999999999996" transform="skewX(-15)" width="40.8" x="0" y="0"/>
    </g>
    <text dominant-baseline="central" fill="white" font-family="Consolas" font-size="14.399999999999999" text-anchor="middle" x="570.98199513382" y="389.19999999999993">PA18</text>
    <g transform="translate(509.95430738115874,379.59999999999997)">
        <rect fill="#dcd4ee" height="19.200000000000003" rx="3.5999999999999996" ry="3.5999999999999996" transform="skewX(-15)" width="40.8" x="0" y="0"/>
    </g>
    <text dominant-baseline="central" fill="#423F42" font-family="Consolas" font-size="14.399999999999999" text-anchor="middle" x="527.7819951338199" y="389.19999999999993">RX0</text>
    <g transform="translate(466.7543073811587,379.59999999999997)">
        <rect fill="#f95" height="19.200000000000003" rx="3.5999999999999996" ry="3.5999999999999996" transform="skewX(-15)" width="40.8" x="0" y="0"/>
    </g>
    <text dominant-baseline="central" fill="#423F42" font-family="Consolas" font-size="14.399999999999999" text-anchor="middle" x="484.58199513382" y="389.19999999999993">SCL1</text>
    <rect fill="#4e4c4c" height="2.4000000000000004" width="31.200000000000003" x="779.7819951338199" y="387.99999999999994"/>
    <g transform="translate(820.7543073811587,379.59999999999997)">
        <rect fill="#4e4c4c" height="19.200000000000003" rx="3.5999999999999996" ry="3.5999999999999996" transform="skewX(-15)" width="21.6" x="0" y="0"/>
    </g>
    <text dominant-baseline="central" fill="white" font-family="Consolas" font-size="14.399999999999999" text-anchor="middle" x="828.98199513382" y="389.19999999999993">7</text>
    <g transform="translate(844.7543073811587,379.59999999999997)">
        <rect fill="#800000" height="19.200000000000003" rx="3.5999999999999996" ry="3.5999999999999996" transform="skewX(-15)" width="40.8" x="0" y="0"/>
    </g>
    <text dominant-baseline="central" fill="white" font-family="Consolas" font-size="14.399999999999999" text-anchor="middle" x="862.5819951338199" y="389.19999999999993">PA23</text>
    <g transform="translate(887.9543073811587,379.59999999999997)">
        <rect fill="#dcd4ee" height="19.200000000000003" rx="3.5999999999999996" ry="3.5999999999999996" transform="skewX(-15)" width="40.8" x="0" y="0"/>
    </g>
    <text dominant-baseline="central" fill="#423F42" font-family="Consolas" font-size="14.399999999999999" text-anchor="middle" x="905.7819951338199" y="389.19999999999993">TX0</text>
    <g transform="translate(931.1543073811587,379.59999999999997)">
        <rect fill="#f95" height="19.200000000000003" rx="3.5999999999999996" ry="3.5999999999999996" transform="skewX(-15)" width="40.8" x="0" y="0"/>
    </g>
    <text dominant-baseline="central" fill="#423F42" font-family="Consolas" font-size="14.399999999999999" text-anchor="middle" x="948.98199513382" y="389.19999999999993">SDA1</text>
    <g transform="translate(974.3543073811586,379.59999999999997)">
        <rect fill="#afa35e" height="19.200000000000003" rx="3.5999999999999996" ry="3.5999999999999996" transform="skewX(-15)" width="40.8" x="0" y="0"/>
    </g>
    <text dominant-baseline="central" fill="#423F42" font-family="Consolas" font-size="14.399999999999999" text-anchor="middle" x="992.1819951338198" y="389.19999999999993">PWM0</text>
    <rect fill="#4e4c4c" height="2.4000000000000004" width="31.200000000000003" x="779.7819951338199" y="363.99999999999994"/>
    <g transform="translate(820.7543073811587,355.59999999999997)">
        <rect fill="#4e4c4c" height="19.200000000000003" rx="3.5999999999999996" ry="3.5999999999999996" transform="skewX(-15)" width="21.6" x="0" y="0"/>
    </g>
    <text dominant-baseline="central" fill="white" font-family="Consolas" font-size="14.399999999999999" text-anchor="middle" x="828.98199513382" y="365.19999999999993">9</text>
    <g transform="translate(844.7543073811587,355.59999999999997)">
        <rect fill="#800000" height="19.200000000000003" rx="3.5999999999999996" ry="3.5999999999999996" transform="skewX(-15)" width="40.8" x="0" y="0"/>
    </g>
    <text dominant-baseline="central" fill="white" font-family="Consolas" font-size="14.399999999999999" text-anchor="middle" x="862.5819951338199" y="365.19999999999993">PA14</text>
    <g transform="translate(887.9543073811587,355.59999999999997)">
        <rect fill="#afa35e" height="19.200000000000003" rx="3.5999999999999996" ry="3.5999999999999996" transform="skewX(-15)" width="40.8" x="0" y="0"/>
    </g>
    <text dominant-baseline="central" fill="#423F42" font-family="Consolas" font-size="14.399999999999999" text-anchor="middle" x="905.7819951338199" y="365.19999999999993">PWM0</text>
    <g transform="translate(931.1543073811587,355.59999999999997)">
        <rect fill="#ffe680" height="19.200000000000003" rx="3.5999999999999996" ry="3.5999999999999996" transform="skewX(-15)" width="40.8" x="0" y="0"/>
    </g>
    <text dominant-baseline="central" fill="#423F42" font-family="Consolas" font-size="14.399999999999999" text-anchor="middle" x="948.98199513382" y="365.19999999999993">SWCLK</text>
    <rect fill="#4e4c4c" height="2.4000000000000004" width="31.200000000000003" x="779.7819951338199" y="339.99999999999994"/>
    <g transform="translate(820.7543073811587,331.59999999999997)">
        <rect fill="#4e4c4c" height="19.200000000000003" rx="3.5999999999999996" ry="3.5999999999999996" transform="skewX(-15)" width="21.6" x="0" y="0"/>
    </g>
    <text dominant-baseline="central" fill="white" font-family="Consolas" font-size="14.399999999999999" text-anchor="middle" x="828.98199513382" y="341.19999999999993">11</text>
    <g transform="translate(844.7543073811587,331.59999999999997)">
        <rect fill="#800000" height="19.200000000000003" rx="3.5999999999999996" ry="3.5999999999999996" transform="skewX(-15)" width="40.8" x="0" y="0"/>
    </g>
    <text dominant-baseline="central" fill="white" font-family="Consolas" font-size="14.399999999999999" text-anchor="middle" x="862.5819951338199" y="341.19999999999993">PA15</text>
    <g transform="translate(887.9543073811587,331.59999999999997)">
        <rect fill="#afa35e" height="19.200000000000003" rx="3.5999999999999996" ry="3.5999999999999996" transform="skewX(-15)" width="40.8" x="0" y="0"/>
    </g>
    <text dominant-baseline="central" fill="#423F42" font-family="Consolas" font-size="14.399999999999999" text-anchor="middle" x="905.7819951338199" y="341.19999999999993">PWM1</text>
    <g transform="translate(931.1543073811587,331.59999999999997)">
        <rect fill="#ffe680" height="19.200000000000003" rx="3.5999999999999996" ry="3.5999999999999996" transform="skewX(-15)" width="40.8" x="0" y="0"/>
    </g>
    <text dominant-baseline="central" fill="#423F42" font-family="Consolas" font-size="14.399999999999999" text-anchor="middle" x="948.98199513382" y="341.19999999999993">SWDIO</text>
    <rect fill="#4e4c4c" height="2.4000000000000004" width="31.200000000000003" x="624.98199513382" y="241.6"/>
    <g transform="translate(579.5543073811587,233.2)">
        <rect fill="#800000" height="19.200000000000003" rx="3.5999999999999996" ry="3.5999999999999996" transform="skewX(-15)" width="40.8" x="0" y="0"/>
    </g>
    <text dominant-baseline="central" fill="white" font-family="Consolas" font-size="14.399999999999999" text-anchor="middle" x="597.3819951338199" y="242.8">PA30</text>
    <g transform="translate(536.3543073811588,233.2)">
        <rect fill="#dcd4ee" height="19.200000000000003" rx="3.5999999999999996" ry="3.5999999999999996" transform="skewX(-15)" width="40.8" x="0" y="0"/>
    </g>
    <text dominant-baseline="central" fill="#423F42" font-family="Consolas" font-size="14.399999999999999" text-anchor="middle" x="554.18199513382" y="242.8">TX2</text>
    <g transform="translate(493.1543073811588,233.2)">
        <rect fill="#f95" height="19.200000000000003" rx="3.5999999999999996" ry="3.5999999999999996" transform="skewX(-15)" width="40.8" x="0" y="0"/>
    </g>
    <text dominant-baseline="central" fill="#423F42" font-family="Consolas" font-size="14.399999999999999" text-anchor="middle" x="510.98199513381996" y="242.8">SDA0</text>
    <g transform="translate(449.95430738115874,233.2)">
        <rect fill="#afa35e" height="19.200000000000003" rx="3.5999999999999996" ry="3.5999999999999996" transform="skewX(-15)" width="40.8" x="0" y="0"/>
    </g>
    <text dominant-baseline="central" fill="#423F42" font-family="Consolas" font-size="14.399999999999999" text-anchor="middle" x="467.78199513382" y="242.8">PWM4</text>
    <rect fill="#4e4c4c" height="2.4000000000000004" width="31.200000000000003" x="622.58199513382" y="273.99999999999994"/>
    <g transform="translate(577.1543073811588,265.59999999999997)">
        <rect fill="#800000" height="19.200000000000003" rx="3.5999999999999996" ry="3.5999999999999996" transform="skewX(-15)" width="40.8" x="0" y="0"/>
    </g>
    <text dominant-baseline="central" fill="white" font-family="Consolas" font-size="14.399999999999999" text-anchor="middle" x="594.98199513382" y="275.19999999999993">PA29</text>
    <g transform="translate(533.9543073811587,265.59999999999997)">
        <rect fill="#dcd4ee" height="19.200000000000003" rx="3.5999999999999996" ry="3.5999999999999996" transform="skewX(-15)" width="40.8" x="0" y="0"/>
    </g>
    <text dominant-baseline="central" fill="#423F42" font-family="Consolas" font-size="14.399999999999999" text-anchor="middle" x="551.7819951338199" y="275.19999999999993">RX2</text>
    <g transform="translate(490.7543073811587,265.59999999999997)">
        <rect fill="#f95" height="19.200000000000003" rx="3.5999999999999996" ry="3.5999999999999996" transform="skewX(-15)" width="40.8" x="0" y="0"/>
    </g>
    <text dominant-baseline="central" fill="#423F42" font-family="Consolas" font-size="14.399999999999999" text-anchor="middle" x="508.58199513382" y="275.19999999999993">SCL0</text>
    <g transform="translate(447.5543073811587,265.59999999999997)">
        <rect fill="#afa35e" height="19.200000000000003" rx="3.5999999999999996" ry="3.5999999999999996" transform="skewX(-15)" width="40.8" x="0" y="0"/>
    </g>
    <text dominant-baseline="central" fill="#423F42" font-family="Consolas" font-size="14.399999999999999" text-anchor="middle" x="465.38199513381994" y="275.19999999999993">PWM4</text>
</svg>
